<?xml version="1.0" standalone="no"?>
<!DOCTYPE svg PUBLIC "-//W3C//DTD SVG 1.1//EN" "http://www.w3.org/Graphics/SVG/1.1/DTD/svg11.dtd" >
<svg xmlns="http://www.w3.org/2000/svg" xmlns:xlink="http://www.w3.org/1999/xlink" version="1.1">
<metadata>
Created by FontForge 20161003 at Thu Jul 18 17:22:52 2019
 By www-data
Copyright 2017 The Barlow Project Authors (https://github.com/jpt/barlow)
</metadata>
<defs>
<font id="BarlowSemiBoldItalic" horiz-adv-x="0" >
  <font-face 
    font-family="BarlowSemiBoldItalic"
    font-weight="600"
    font-style="italic"
    font-stretch="normal"
    units-per-em="1000"
    panose-1="0 0 7 0 0 0 0 0 0 0"
    ascent="800"
    descent="-200"
    x-height="511"
    cap-height="700"
    bbox="-552.222 -231 1123.26 981"
    underline-thickness="50"
    underline-position="-150"
    slope="-7"
    unicode-range="U+000D-25CA"
  />
<missing-glyph horiz-adv-x="440" 
d="M-19 6q0 -6 5 -6h429q5 0 7 6l84 688q2 6 -5 6h-429q-6 0 -6 -6zM198 244q-16 0 -14 16l3 22q4 33 26 58t46.5 38.5t46 35t24.5 47.5q4 28 -13 44.5t-47 16.5q-33 0 -54 -17.5t-25 -45.5l-1 -7q-2 -18 -17 -16l-49 3q-7 1 -11 3.5t-3 7.5l1 9q7 62 54.5 100.5t115.5 38.5
q67 0 102.5 -36.5t28.5 -97.5q-5 -40 -28 -70t-47.5 -43.5t-45.5 -33t-24 -40.5l-2 -17q-3 -16 -18 -16h-49zM207 90q-22 0 -35 15t-10 37q2 21 19.5 36t39.5 15q21 0 34.5 -15t11.5 -36q-3 -22 -20.5 -37t-39.5 -15z" />
    <glyph glyph-name="I_J.liga" unicode="IJ" horiz-adv-x="824" 
d="M67 0q-16 0 -14 16l82 668q3 16 18 16h81q16 0 14 -16l-82 -668q-2 -16 -18 -16h-81zM494 -8q-107 0 -165.5 60.5t-46.5 160.5l5 38q2 16 17 16h82q16 0 13 -16l-4 -38q-7 -54 23.5 -87.5t87.5 -33.5t95.5 33.5t45.5 87.5l58 471q2 16 17 16h82q16 0 13 -16l-58 -471
q-12 -100 -85 -160.5t-180 -60.5z" />
    <glyph glyph-name="f_f_i.liga" unicode="ffi" horiz-adv-x="931" 
d="M859 572q-32 0 -50 20.5t-14 52.5t27 52t55 20t49.5 -20t13.5 -52q-5 -32 -27 -52.5t-54 -20.5zM585 539l-3 -22q0 -6 6 -6h97q15 0 13 -16l-8 -62q-2 -16 -17 -16h-97q-6 0 -7 -6l-48 -395q-2 -16 -18 -16h-81q-16 0 -14 16l49 395q0 6 -5 6h-202q-6 0 -7 -6l-48 -395
q-2 -16 -17 -16h-82q-16 0 -14 16l49 395q0 6 -5 6h-51q-15 0 -13 16l8 62q2 16 17 16h50q5 0 7 6l4 32q10 82 55.5 118.5t143.5 32.5h29q16 0 14 -16l-6 -48q-3 -16 -18 -16h-29q-39 -1 -56 -20.5t-22 -60.5l-2 -22q-1 -6 5 -6h201q5 0 7 6l4 32q10 82 55.5 118.5
t143.5 32.5h29q16 0 13 -16l-5 -48q-3 -16 -18 -16h-29q-39 -1 -56 -20.5t-22 -60.5zM748 0q-16 0 -14 16l59 479q2 16 18 16h81q16 0 14 -16l-59 -479q-2 -16 -18 -16h-81z" />
    <glyph glyph-name="f_f_l.liga" unicode="ffl" horiz-adv-x="919" 
d="M585 539l-3 -22q0 -6 6 -6h97q15 0 13 -16l-8 -62q-2 -16 -17 -16h-97q-6 0 -7 -6l-48 -395q-2 -16 -18 -16h-81q-16 0 -14 16l49 395q0 6 -5 6h-202q-6 0 -7 -6l-48 -395q-2 -16 -17 -16h-82q-16 0 -14 16l49 395q0 6 -5 6h-51q-15 0 -13 16l8 62q2 16 17 16h50q5 0 7 6
l4 32q10 82 55.5 118.5t143.5 32.5h29q16 0 14 -16l-6 -48q-3 -16 -18 -16h-29q-39 -1 -56 -20.5t-22 -60.5l-2 -22q-1 -6 5 -6h201q5 0 7 6l4 32q10 82 55.5 118.5t143.5 32.5h29q16 0 13 -16l-5 -48q-3 -16 -18 -16h-29q-39 -1 -56 -20.5t-22 -60.5zM809 684q2 16 17 16
h82q15 0 13 -16l-82 -668q-2 -16 -17 -16h-82q-16 0 -13 16z" />
    <glyph glyph-name="f_i.liga" unicode="fi" horiz-adv-x="612" 
d="M540 575q-32 0 -50 20.5t-14 52.5t27 52t55 20t49.5 -20t13.5 -52t-26.5 -52.5t-54.5 -20.5zM358 512q16 0 13 -16l-8 -71q-3 -16 -18 -16h-91q-6 0 -7 -6l-47 -387q-2 -16 -18 -16h-81q-16 0 -14 16l48 387q0 6 -5 6h-56q-15 0 -13 16l9 71q2 16 17 16h55q6 0 7 6l2 17
q12 95 54.5 130.5t143.5 34.5h30q16 0 13 -16l-7 -62q-2 -16 -18 -16h-21q-42 0 -60 -17t-23 -62l-2 -9q0 -6 6 -6h91zM429 0q-16 0 -14 16l59 479q2 16 17 16h82q16 0 14 -16l-59 -479q-3 -16 -18 -16h-81z" />
    <glyph glyph-name="f_l.liga" unicode="fl" horiz-adv-x="600" 
d="M358 512q16 0 13 -16l-8 -71q-3 -16 -18 -16h-91q-6 0 -7 -6l-47 -387q-2 -16 -18 -16h-81q-16 0 -14 16l48 387q0 6 -5 6h-56q-15 0 -13 16l9 71q2 16 17 16h55q6 0 7 6l2 17q12 95 54.5 130.5t143.5 34.5h30q16 0 13 -16l-7 -62q-2 -16 -18 -16h-21q-42 0 -60 -17
t-23 -62l-2 -9q0 -6 6 -6h91zM422 0q-16 0 -14 16l82 668q3 16 18 16h81q16 0 14 -16l-82 -668q-2 -16 -18 -16h-81z" />
    <glyph glyph-name="g_j.liga" unicode="gj" horiz-adv-x="765" 
d="M700 573q-33 0 -50.5 20.5t-13.5 52.5q4 30 28 50.5t54 20.5q29 0 48.5 -21t15.5 -50q-5 -32 -27.5 -52.5t-54.5 -20.5zM396 474q5 -7 7 3l2 18q2 16 18 16h81q16 0 14 -16l-57 -461q-9 -73 -41 -123.5t-80 -74t-101 -31t-114 -1.5q-13 1 -11 18l12 74q2 16 19 14
q96 -9 145 19.5t59 107.5l1 6q0 9 -7 3q-45 -43 -117 -43q-62 0 -110.5 33t-60.5 101q-7 43 2 121q11 84 31 127q27 61 79 97.5t116 36.5q74 0 113 -45zM571 -17l63 512q2 16 18 16h81q16 0 14 -16l-63 -511q-13 -102 -68 -146t-163 -43q-15 0 -14 16l9 65q3 16 18 16
q44 2 72 24.5t33 66.5zM358 170q11 26 18 89q8 57 3 87q-3 33 -25 53t-58 20q-71 0 -103 -73q-14 -27 -23 -88q-7 -64 -1 -87q6 -32 29 -52.5t59 -20.5q38 0 64 20t37 52z" />
    <glyph glyph-name="i_j.liga" unicode="ij" horiz-adv-x="474" 
d="M175 575q-32 0 -49.5 20.5t-13.5 52.5t26.5 52t54.5 20t49.5 -20t13.5 -52t-26.5 -52.5t-54.5 -20.5zM409 572q-32 0 -49.5 21t-13.5 52q4 30 28 51t53 21q30 0 49 -21t15 -51q-4 -31 -27 -52t-55 -21zM64 0q-16 0 -14 16l59 479q3 16 18 16h81q16 0 14 -16l-59 -479
q-2 -16 -17 -16h-82zM158 -205q-16 0 -13 16l8 66q2 16 18 15q53 0 78 21.5t31 69.5l63 512q2 16 18 16h81q16 0 14 -16l-63 -511q-13 -106 -64.5 -148t-170.5 -41z" />
    <glyph glyph-name="hyphen_hyphen.liga" unicode="&#x2d;&#x2d;" horiz-adv-x="648" 
d="M57 247q-15 0 -13 16l8 67q2 16 18 16h554q16 0 14 -16l-8 -67q-2 -16 -18 -16h-555z" />
    <glyph glyph-name=".notdef" horiz-adv-x="440" 
d="M-19 6q0 -6 5 -6h429q5 0 7 6l84 688q2 6 -5 6h-429q-6 0 -6 -6zM198 244q-16 0 -14 16l3 22q4 33 26 58t46.5 38.5t46 35t24.5 47.5q4 28 -13 44.5t-47 16.5q-33 0 -54 -17.5t-25 -45.5l-1 -7q-2 -18 -17 -16l-49 3q-7 1 -11 3.5t-3 7.5l1 9q7 62 54.5 100.5t115.5 38.5
q67 0 102.5 -36.5t28.5 -97.5q-5 -40 -28 -70t-47.5 -43.5t-45.5 -33t-24 -40.5l-2 -17q-3 -16 -18 -16h-49zM207 90q-22 0 -35 15t-10 37q2 21 19.5 36t39.5 15q21 0 34.5 -15t11.5 -36q-3 -22 -20.5 -37t-39.5 -15z" />
    <glyph glyph-name=".null" 
 />
    <glyph glyph-name="nonmarkingreturn" horiz-adv-x="333" 
 />
    <glyph glyph-name="CR" unicode="&#xd;" horiz-adv-x="194" 
 />
    <glyph glyph-name="space" unicode=" " horiz-adv-x="194" 
 />
    <glyph glyph-name="exclam" unicode="!" horiz-adv-x="328" 
d="M143 236q-14 0 -13 16l42 432q3 16 18 16h81q15 0 14 -16l-64 -432q-1 -16 -17 -16h-61zM142 2q-33 0 -52.5 22.5t-15.5 54.5t30 54.5t57 22.5t52.5 -22.5t17.5 -54.5t-29.5 -54.5t-59.5 -22.5z" />
    <glyph glyph-name="quotedbl" unicode="&#x22;" horiz-adv-x="315" 
d="M86 477q-15 0 -15 16l14 188q0 16 16 16h78q15 0 12 -16l-32 -188q-4 -16 -19 -16h-54zM255 477q-14 0 -14 16l13 188q2 16 17 16h77q16 0 13 -16l-33 -188q-3 -16 -18 -16h-55z" />
    <glyph glyph-name="numbersign" unicode="#" horiz-adv-x="657" 
d="M635 429q-3 -16 -18 -16h-67q-5 0 -7 -5l-33 -119q-3 -6 5 -6h51q16 0 14 -16l-8 -67q-3 -16 -18 -16h-67q-5 0 -7 -5l-39 -141q-3 -15 -18 -15l-82 1q-16 0 -11 17l37 137q3 6 -5 6h-113q-5 0 -8 -5l-38 -141q-5 -15 -19 -15l-81 1q-17 0 -12 17l38 137q1 6 -6 6h-50
q-16 0 -14 16l9 67q2 16 17 16h66q4 0 8 6l32 118q1 6 -5 6h-49q-16 0 -14 16l9 68q2 16 17 16h65q5 0 8 5l38 141q3 15 19 15l81 -1q17 0 12 -17l-38 -137q-2 -6 5 -6h114q5 0 7 5l39 141q3 15 18 15l82 -1q16 0 11 -17l-37 -137q-1 -6 5 -6h52q15 0 14 -16zM390 283
q5 0 7 6l32 118q3 6 -5 6h-112q-5 0 -8 -5l-33 -119q-1 -6 5 -6h114z" />
    <glyph glyph-name="dollar" unicode="$" horiz-adv-x="533" 
d="M495 191q-10 -82 -64.5 -134.5t-143.5 -61.5q-7 -2 -7 -7l-5 -49q-3 -16 -18 -16h-44q-15 0 -14 16l7 49q0 6 -5 7q-80 10 -120.5 57.5t-32.5 120.5l5 41q3 16 18 16h79q16 0 14 -15l-2 -16q-5 -46 21.5 -76.5t80.5 -30.5q52 0 82 26.5t36 66.5q4 33 -20.5 55.5t-84.5 51
t-89 48.5q-55 35 -79 74t-17 102q10 78 61 128t133 61q7 2 7 7l6 56q1 16 17 16h43q15 0 14 -16l-8 -55q0 -6 5 -7q86 -8 128 -58t32 -128l-3 -31q-3 -16 -18 -16h-79q-7 0 -11 3.5t-3 8.5l1 11q6 49 -19 80.5t-81 31.5q-48 0 -78 -23.5t-35 -64.5q-2 -20 4.5 -35.5
t24.5 -28t34 -20t48 -21.5t51 -23q75 -37 106 -85.5t23 -115.5z" />
    <glyph glyph-name="percent" unicode="%" horiz-adv-x="808" 
d="M250 404q-62 0 -100 44.5t-30 108.5q8 63 56.5 107.5t111.5 44.5q61 0 99 -44.5t31 -107.5q-8 -64 -57 -108.5t-111 -44.5zM175 0q-9 0 -11.5 5.5t2.5 13.5l444 670q7 11 20 11h48q8 0 10.5 -5.5t-2.5 -13.5l-443 -670q-8 -11 -20 -11h-48zM258 466q36 0 64.5 26.5
t33.5 64.5q4 37 -18 63.5t-58 26.5t-65 -26.5t-33 -63.5q-4 -38 18 -64.5t58 -26.5zM573 -9q-62 0 -100 44.5t-30 108.5q8 63 57 107.5t111 44.5q61 0 99 -44.5t30 -107.5q-8 -64 -56.5 -108.5t-110.5 -44.5zM581 53q36 0 64 26.5t33 64.5t-17 64t-58 26q-37 0 -65 -26
t-33 -64t17 -64.5t59 -26.5z" />
    <glyph glyph-name="ampersand" unicode="&#x26;" horiz-adv-x="668" 
d="M592 19q6 -7 2.5 -13t-13.5 -6h-90q-13 0 -18 9q-22 28 -35 47q-4 4 -9 1q-97 -65 -203 -65q-89 0 -140.5 43.5t-41.5 127.5q8 68 49 114.5t109 87.5q4 3 2 8q-44 62 -56.5 94.5t-8.5 65.5q10 79 66.5 127t140.5 48q85 0 133 -47.5t39 -124.5q-7 -62 -47 -104.5
t-108 -82.5q-6 -3 -3 -8q19 -27 96 -129q2 -6 8 0q35 37 66 76q10 13 22 5l56 -35q13 -8 2 -22q-46 -60 -90 -105q-5 -4 1 -12q12 -17 37 -52t34 -48zM336 602q-35 0 -57.5 -19t-26.5 -50q-2 -17 6.5 -37.5t40.5 -67.5q3 -5 8 -2q45 28 70 53t28 55q4 31 -15.5 49.5
t-53.5 18.5zM258 91q54 6 113 44q4 4 1 9q-34 46 -52 70q-50 67 -54 73q-3 4 -8 1q-89 -55 -100 -115q-8 -42 20 -64.5t80 -17.5z" />
    <glyph glyph-name="quotesingle" unicode="'" horiz-adv-x="150" 
d="M86 480q-15 0 -14 16l13 187q0 16 16 16h83q7 0 11 -4.5t2 -11.5l-33 -187q-4 -16 -19 -16h-59z" />
    <glyph glyph-name="parenleft" unicode="(" horiz-adv-x="307" 
d="M102 -96q-12 0 -18 10q-96 167 -65 416q16 129 61.5 237t107.5 183q9 10 20 10h77q9 0 11.5 -5.5t-2.5 -13.5q-120 -178 -149 -411q-27 -225 48 -407q4 -8 0 -13.5t-13 -5.5h-78z" />
    <glyph glyph-name="parenright" unicode=")" horiz-adv-x="307" 
d="M162 -86q-9 -10 -20 -10h-78q-9 0 -11.5 5.5t2.5 13.5q120 179 148 407q29 232 -47 411q-7 19 13 19h78q11 0 17 -10q97 -166 66 -420q-30 -248 -168 -416z" />
    <glyph glyph-name="asterisk" unicode="*" horiz-adv-x="386" 
d="M204 393q-15 0 -13 16l12 95q0 9 -7 4l-91 -51q-15 -8 -21 6l-13 34q-6 14 8 22l91 48q8 4 1 8l-79 46q-12 7 -3 22l21 34q9 14 22 6l80 -50q5 -5 7 4l11 94q3 16 18 16h35q16 0 13 -16l-11 -94q-1 -3 1 -4.5t5 0.5l92 50q16 9 20 -6l14 -34q4 -14 -9 -21l-92 -47
q-7 -3 -1 -8l80 -48q14 -8 4 -22l-22 -34q-9 -14 -22 -6l-79 51q-6 4 -8 -4l-11 -95q-2 -16 -18 -16h-35z" />
    <glyph glyph-name="plus" unicode="+" horiz-adv-x="476" 
d="M453 355q16 0 13 -16l-8 -68q-2 -16 -17 -16h-137q-6 0 -7 -6l-17 -139q-2 -16 -17 -16h-65q-16 0 -14 16l17 139q2 6 -5 6h-138q-15 0 -13 16l8 68q2 16 18 16h137q7 0 7 6l18 143q2 16 17 16h65q16 0 14 -16l-18 -143q0 -6 5 -6h137z" />
    <glyph glyph-name="comma" unicode="," horiz-adv-x="257" 
d="M32 -91q-16 0 -11 17l61 216q5 15 19 15h70q17 0 10 -18l-82 -216q-5 -14 -19 -14h-48z" />
    <glyph glyph-name="hyphen" unicode="-" horiz-adv-x="392" 
d="M58 251q-16 0 -14 16l9 68q2 16 17 16h298q16 0 14 -16l-9 -68q-2 -16 -17 -16h-298z" />
    <glyph glyph-name="period" unicode="." horiz-adv-x="262" 
d="M109 -1q-33 0 -52.5 22t-15.5 55q4 31 30.5 53.5t56.5 22.5q31 0 52.5 -22.5t17.5 -53.5q-4 -32 -29.5 -54.5t-59.5 -22.5z" />
    <glyph glyph-name="slash" unicode="/" horiz-adv-x="401" 
d="M21 0q-18 0 -10 18l316 669q7 13 20 13h79q18 0 11 -18l-316 -669q-7 -13 -20 -13h-80z" />
    <glyph glyph-name="zero" unicode="0" horiz-adv-x="551" 
d="M254 -11q-102 0 -154.5 59.5t-39.5 160.5l34 282q13 100 79.5 158.5t168.5 58.5t155.5 -58.5t40.5 -158.5l-34 -282q-13 -101 -80.5 -160.5t-169.5 -59.5zM266 90q50 0 84 30.5t41 82.5l35 292q7 52 -19.5 82.5t-76.5 30.5t-83 -30.5t-40 -82.5l-36 -292
q-6 -52 19.5 -82.5t75.5 -30.5z" />
    <glyph glyph-name="one" unicode="1" horiz-adv-x="331" 
d="M209 696q8 4 19 4h87q16 0 13 -16l-82 -668q-2 -16 -17 -16h-82q-15 0 -13 16l70 567q0 7 -7 5l-93 -26q-8 -2 -12.5 2t-3.5 12l7 58q1 12 14 18z" />
    <glyph glyph-name="two" unicode="2" horiz-adv-x="534" 
d="M45 0q-16 0 -14 16l8 66q1 10 10 19q39 38 81 81t91.5 94.5t73.5 76.5q102 107 109 162q5 41 -20 67t-70 26t-75.5 -26t-35.5 -69l-3 -22q-2 -16 -18 -16h-82q-16 0 -14 16l5 39q13 81 79 129.5t157 48.5q97 0 149 -54.5t41 -136.5q-10 -83 -107 -189q-55 -62 -214 -221
q-7 -7 3 -7h267q16 0 14 -16l-9 -68q-2 -16 -17 -16h-409z" />
    <glyph glyph-name="three" unicode="3" horiz-adv-x="515" 
d="M469 333q13 -51 6 -110q-6 -45 -30 -99q-29 -63 -85 -97.5t-129 -34.5q-72 0 -120.5 37.5t-62.5 101.5q-7 36 -4 77q2 16 17 16h83q15 0 14 -16q0 -34 2 -47q6 -32 27.5 -50.5t55.5 -18.5q64 0 95 60q18 32 23 74q6 50 -6 85q-17 56 -79 56q-17 0 -40 -13q-14 -7 -21 4
l-35 53q-6 12 5 23l176 159q7 7 -2 7h-241q-15 0 -13 16l8 68q2 16 18 16h379q16 0 13 -16l-9 -75q-1 -11 -10 -20l-157 -145q-6 -6 4 -8q91 -14 118 -103z" />
    <glyph glyph-name="four" unicode="4" horiz-adv-x="568" 
d="M518 288q16 0 14 -16l-9 -72q-2 -16 -17 -16h-35q-5 0 -7 -6l-20 -162q-2 -16 -17 -16h-82q-15 0 -13 16l20 162q0 6 -5 6h-291q-16 0 -14 16l7 58q1 10 6 19l233 411q7 12 19 12h86q19 0 10 -19l-217 -386q-4 -7 4 -7h169q5 0 7 6l16 131q2 16 17 16h82q16 0 14 -16
l-17 -131q0 -6 6 -6h34z" />
    <glyph glyph-name="five" unicode="5" horiz-adv-x="514" 
d="M483 314q6 -45 1 -93q-7 -50 -24 -89q-28 -64 -86.5 -101.5t-131.5 -37.5q-72 0 -121 36.5t-63 98.5q-4 22 -6 46q0 17 17 17h84q12 0 15 -11q0 -2 0.5 -4t0.5 -3q1 -2 1 -5.5t1 -5.5q13 -69 83 -69q34 0 60.5 19.5t39.5 52.5q13 28 15 54q4 32 0 59q-2 33 -24.5 50.5
t-59.5 17.5q-66 0 -96 -49q-7 -12 -19 -12h-88q-16 0 -14 16l47 383q2 16 18 16h369q16 0 14 -16l-9 -68q-2 -16 -17 -16h-267q-5 0 -7 -6l-22 -178q-1 -4 1 -4.5t5 1.5q50 34 113 34q68 0 114 -35.5t56 -97.5z" />
    <glyph glyph-name="six" unicode="6" horiz-adv-x="513" 
d="M472 345q20 -53 11 -124q-8 -62 -33 -107q-64 -121 -207 -121q-72 0 -120 34.5t-62 96.5q-10 42 -4 98l38 305q10 82 73.5 131.5t156.5 49.5q90 0 140.5 -48.5t40.5 -127.5l-3 -18q-2 -16 -17 -16h-81q-7 0 -11.5 2.5t-3.5 7.5l1 9q5 40 -17.5 65.5t-62.5 25.5
q-41 0 -70.5 -26.5t-34.5 -68.5l-14 -108q0 -7 7 -3q46 40 116 40q118 0 157 -97zM347 148q19 31 23 71q6 43 -7 77q-20 48 -78 48q-60 0 -92 -50q-19 -32 -24 -78q-5 -40 4 -67q18 -55 81 -55q60 0 93 54z" />
    <glyph glyph-name="seven" unicode="7" horiz-adv-x="473" 
d="M116 0q-18 0 -10 18l282 575q4 7 -3 7h-207q-6 0 -6 -6l-5 -40q-2 -16 -18 -16h-62q-15 0 -13 16l16 130q2 16 17 16h401q16 0 13 -16l-9 -74q0 -5 -6 -19l-282 -578q-6 -13 -20 -13h-88z" />
    <glyph glyph-name="eight" unicode="8" horiz-adv-x="517" 
d="M469 303q15 -43 8 -102q-8 -62 -38 -108q-30 -47 -82.5 -74t-119.5 -27q-136 0 -177 105q-19 49 -12 105t35 103q22 37 61 63q6 4 1 8q-27 21 -41 51q-20 42 -14 93q7 61 43 106q68 86 193 86q139 0 178 -102q16 -40 11 -91q-6 -47 -35 -88q-22 -30 -57 -55q-8 -3 -1 -7
q34 -24 47 -66zM220 564q-15 -22 -20 -56q-4 -32 8 -60q22 -43 80 -43q60 0 93 46q17 23 22 58q3 32 -5 53q-22 51 -84 51q-63 0 -94 -49zM335 131q23 29 31 82q3 32 -4 57q-16 58 -83 58q-62 0 -95 -57q-16 -29 -19 -60q-6 -49 8 -77q20 -44 77 -44q55 0 85 41z" />
    <glyph glyph-name="nine" unicode="9" horiz-adv-x="511" 
d="M498 576q10 -39 3 -98l-37 -305q-10 -82 -73.5 -131.5t-156.5 -49.5q-91 0 -141 48.5t-40 127.5l2 18q2 16 17 16h82q8 0 11.5 -2.5t2.5 -6.5l-1 -10q-5 -40 17.5 -65.5t62.5 -25.5q41 0 71 26.5t35 68.5l13 108q1 4 -1 4.5t-6 -1.5q-45 -40 -116 -40q-116 0 -157 97
q-19 49 -11 124q7 59 33 107q30 58 84 89.5t124 31.5q72 0 119.5 -34.5t62.5 -96.5zM365 406q19 32 24 78q5 40 -4 67q-17 55 -81 55q-60 0 -93 -54q-19 -31 -23 -71q-5 -46 7 -77q22 -48 79 -48q61 0 91 50z" />
    <glyph glyph-name="colon" unicode=":" horiz-adv-x="344" 
d="M195 339q-34 0 -53.5 22.5t-15.5 54.5t30.5 54.5t57.5 22.5t52.5 -22.5t17.5 -54.5t-30 -54.5t-59 -22.5zM154 9q-33 0 -53 22t-16 55q4 31 30.5 53.5t57.5 22.5t52.5 -22.5t17.5 -53.5q-4 -32 -29.5 -54.5t-59.5 -22.5z" />
    <glyph glyph-name="semicolon" unicode=";" horiz-adv-x="305" 
d="M175 325q-34 0 -54 22.5t-15 55.5q4 31 30.5 53.5t57.5 22.5t52 -22.5t17 -53.5q-4 -32 -29.5 -55t-58.5 -23zM67 -89q-16 0 -13 17l48 211q4 15 19 15h71q16 0 11 -18l-73 -211q-4 -14 -18 -14h-45z" />
    <glyph glyph-name="less" unicode="&#x3c;" horiz-adv-x="476" 
d="M432 51q-1 -9 -7 -13t-13 0l-361 179q-11 6 -10 18l10 75q1 12 14 18l405 179q8 4 13 0t3 -13l-9 -78q-1 -12 -14 -18l-293 -121q-10 -4 -1 -8l263 -122q11 -6 10 -18z" />
    <glyph glyph-name="equal" unicode="=" horiz-adv-x="476" 
d="M71 353q-16 0 -14 16l8 68q3 16 18 16h382q16 0 14 -16l-9 -68q-2 -16 -17 -16h-382zM46 155q-16 0 -13 16l8 68q2 16 17 16h383q15 0 13 -16l-8 -68q-2 -16 -18 -16h-382z" />
    <glyph glyph-name="greater" unicode="&#x3e;" horiz-adv-x="476" 
d="M35 38q-9 -4 -14 0t-3 13l9 78q3 12 14 18l294 122q9 4 1 8l-264 121q-10 6 -9 18l9 78q4 21 20 13l361 -179q11 -6 10 -18l-9 -75q-1 -12 -14 -18z" />
    <glyph glyph-name="question" unicode="?" horiz-adv-x="485" 
d="M191 214q-16 0 -13 16l4 37q5 38 26 67.5t48 48.5t54 37.5t47.5 43t24.5 54.5q4 39 -19 62.5t-66 23.5q-45 0 -75 -25t-35 -64l-2 -17q-2 -17 -17 -15l-81 4q-16 2 -14 15l2 13q10 87 76.5 141t161.5 54q94 0 144.5 -51.5t39.5 -136.5q-6 -46 -28 -81.5t-49.5 -56.5
t-55 -39t-47.5 -39t-23 -46l-4 -30q-2 -16 -17 -16h-82zM210 -1q-30 0 -48.5 21t-15.5 51q4 30 28 51t55 21q30 0 49.5 -21t15.5 -51t-29 -51t-55 -21z" />
    <glyph glyph-name="at" unicode="@" horiz-adv-x="797" 
d="M501 643q153 0 227 -99t35 -256q-23 -96 -75.5 -149t-125.5 -53q-69 0 -97 43q-5 5 -8 0q-42 -42 -104 -42q-53 0 -84 27.5t-33 70.5q-1 32 14 86q13 52 28 84q22 48 62.5 74t85.5 26q50 0 71 -30q6 -6 8 2l2 9q5 15 19 15h44q16 0 13 -17l-48 -189q-9 -36 2.5 -61
t40.5 -25q71 0 104 125q34 134 -21 210t-174 76q-123 0 -222 -82.5t-127 -224.5q-26 -126 28 -203t169 -77q94 0 157 37q14 8 21 -3l19 -28q9 -14 -5 -23q-85 -58 -212 -58q-143 0 -215 101t-37 264q34 166 160 268t278 102zM367 155q47 0 74 51q11 19 23 66q8 35 10 65
q2 22 -12 36t-38 14q-48 0 -77 -50q-10 -17 -23 -69q-11 -45 -10 -62q-1 -23 13.5 -37t39.5 -14z" />
    <glyph glyph-name="A" unicode="A" horiz-adv-x="629" 
d="M476 0q-13 0 -16 13l-17 103q0 5 -6 5h-254q-5 0 -8 -5l-42 -103q-6 -13 -20 -13h-88q-17 0 -10 18l290 669q6 13 19 13h113q13 0 16 -13l126 -669q3 -18 -14 -18h-89zM218 219q-3 -7 4 -7h198q6 0 6 7l-59 340q-3 6 -7 0z" />
    <glyph glyph-name="B" unicode="B" horiz-adv-x="603" 
d="M478 366q-11 -4 -2 -8q92 -48 77 -164q-12 -95 -79 -144.5t-167 -49.5h-240q-16 0 -14 16l82 668q3 16 18 16h233q105 0 157 -47t40 -142q-13 -103 -105 -145zM243 600q-6 0 -6 -6l-23 -183q0 -6 5 -6h130q52 0 84.5 25.5t38.5 70.5q5 46 -21 72.5t-78 26.5h-130z
M320 101q51 0 83.5 28t38.5 76q6 49 -20.5 76.5t-78.5 27.5h-135q-6 0 -7 -6l-24 -196q0 -6 5 -6h138z" />
    <glyph glyph-name="C" unicode="C" horiz-adv-x="590" 
d="M277 -8q-110 0 -168.5 64.5t-45.5 170.5l30 247q13 106 87.5 170t184.5 64t169 -62t46 -163q-2 -11 -16 -12l-83 -5q-15 -2 -15 5l1 6q8 59 -23.5 95t-90.5 36t-99 -36t-48 -95l-31 -255q-7 -58 24.5 -94t90.5 -36q58 0 98 35.5t48 94.5q0 13 16 11l81 -4q4 0 6.5 -0.5
l5 -1t3 -1.5t0.5 -2v-5q-13 -103 -87 -165t-184 -62z" />
    <glyph glyph-name="D" unicode="D" horiz-adv-x="599" 
d="M67 0q-16 0 -14 16l82 668q3 16 18 16h233q105 0 161 -56t44 -149l-35 -290q-12 -94 -82 -149.5t-174 -55.5h-233zM177 106q-1 -6 5 -6h135q51 0 86 33.5t42 89.5l32 253q7 57 -20 90.5t-80 33.5h-134q-6 0 -6 -6z" />
    <glyph glyph-name="E" unicode="E" horiz-adv-x="574" 
d="M587 616q-2 -16 -18 -16h-326q-6 0 -6 -6l-23 -185q0 -6 5 -6h218q15 0 13 -16l-8 -68q-3 -16 -18 -16h-217q-5 0 -7 -6l-23 -191q0 -6 5 -6h326q16 0 14 -16l-9 -68q-2 -16 -17 -16h-429q-16 0 -14 16l82 668q3 16 18 16h429q15 0 13 -16z" />
    <glyph glyph-name="F" unicode="F" horiz-adv-x="546" 
d="M586 616q-2 -16 -18 -16h-325q-6 0 -6 -6l-23 -185q0 -6 5 -6h218q15 0 13 -16l-8 -68q-3 -16 -18 -16h-217q-5 0 -7 -6l-34 -281q-2 -16 -18 -16h-81q-16 0 -14 16l82 668q3 16 18 16h428q15 0 13 -16z" />
    <glyph glyph-name="G" unicode="G" horiz-adv-x="588" 
d="M277 -8q-109 0 -168 65t-46 172l30 242q13 107 87.5 172t184.5 65q108 0 167 -62.5t48 -158.5l-1 -4q-2 -16 -17 -16h-81q-7 0 -11 2.5t-3 6.5l1 8q7 54 -24.5 89t-90.5 35t-99 -36.5t-48 -96.5l-31 -250q-7 -60 26.5 -96.5t93.5 -36.5q57 0 94.5 31.5t44.5 86.5l8 61
q0 6 -5 6h-115q-16 0 -13 16l8 66q2 16 17 16h216q16 0 14 -16l-15 -124q-14 -115 -87.5 -179t-184.5 -64z" />
    <glyph glyph-name="H" unicode="H" horiz-adv-x="618" 
d="M505 684q2 16 17 16h82q16 0 13 -16l-82 -668q-2 -16 -17 -16h-81q-16 0 -14 16l34 281q2 6 -5 6h-245q-5 0 -7 -6l-34 -281q-2 -16 -18 -16h-81q-16 0 -14 16l82 668q3 16 18 16h81q16 0 14 -16l-34 -275q0 -6 5 -6h246q6 0 6 6z" />
    <glyph glyph-name="I" unicode="I" horiz-adv-x="254" 
d="M67 0q-16 0 -14 16l82 668q3 16 18 16h81q16 0 14 -16l-82 -668q-2 -16 -18 -16h-81z" />
    <glyph glyph-name="J" unicode="J" horiz-adv-x="569" 
d="M240 -8q-107 0 -165.5 60.5t-46.5 160.5l5 38q2 16 17 16h82q16 0 13 -16l-4 -38q-7 -54 23.5 -87.5t87.5 -33.5t95.5 33.5t45.5 87.5l58 471q2 16 17 16h82q15 0 13 -16l-58 -471q-12 -100 -85 -160.5t-180 -60.5z" />
    <glyph glyph-name="K" unicode="K" horiz-adv-x="601" 
d="M67 0q-16 0 -14 16l82 668q3 16 18 16h81q16 0 14 -16l-36 -294q-1 -4 1.5 -4.5t4.5 2.5l287 303q7 9 20 9h93q9 0 11 -6t-5 -14l-252 -275q-4 -4 -1 -8l188 -378q4 -8 0.5 -13.5t-13.5 -5.5h-93q-12 0 -17 11l-152 304q-2 8 -9 1l-80 -85q-3 -5 -4 -7l-25 -208
q-2 -16 -18 -16h-81z" />
    <glyph glyph-name="L" unicode="L" horiz-adv-x="554" 
d="M67 0q-16 0 -14 16l82 668q3 16 18 16h81q16 0 14 -16l-71 -578q0 -6 5 -6h320q16 0 14 -16l-9 -68q-2 -16 -17 -16h-423z" />
    <glyph glyph-name="M" unicode="M" horiz-adv-x="688" 
d="M67 0q-16 0 -14 16l82 668q3 16 18 16h82q13 0 18 -11l121 -252q2 -8 8 0l184 252q6 11 20 11h82q16 0 14 -16l-83 -668q-2 -16 -17 -16h-81q-16 0 -14 16l58 473q1 4 -1.5 5t-5.5 -3l-139 -195q-8 -11 -21 -11h-37q-13 0 -19 11l-91 195q-1 4 -3.5 3t-3.5 -5l-58 -473
q-2 -16 -18 -16h-81z" />
    <glyph glyph-name="N" unicode="N" horiz-adv-x="644" 
d="M67 0q-16 0 -14 16l82 668q3 16 18 16h77q14 0 19 -11l215 -458q1 -4 3.5 -3t3.5 5l55 451q3 16 18 16h81q16 0 14 -16l-82 -668q-2 -16 -18 -16h-79q-13 0 -18 11l-215 461q-2 4 -4.5 3t-2.5 -5l-55 -454q-1 -16 -18 -16h-80z" />
    <glyph glyph-name="O" unicode="O" horiz-adv-x="602" 
d="M280 -10q-110 0 -169.5 67.5t-46.5 178.5l28 228q13 109 89.5 176.5t186.5 67.5q112 0 172 -67t46 -177l-28 -228q-14 -111 -90.5 -178.5t-187.5 -67.5zM292 90q61 0 103 38.5t50 103.5l28 233q8 64 -24 103.5t-93 39.5t-102 -39t-49 -104l-29 -233q-8 -64 24 -103
t92 -39z" />
    <glyph glyph-name="P" unicode="P" horiz-adv-x="577" 
d="M410 701q92 0 141.5 -57.5t38.5 -151.5q-11 -93 -76.5 -149.5t-160.5 -56.5h-154q-5 0 -7 -6l-32 -264q-2 -16 -17 -16h-82q-16 0 -13 16l82 669q2 16 17 16h263zM354 380q49 0 83 30t40 79q6 50 -20.5 81t-75.5 31h-143q-6 0 -7 -6l-25 -209q-2 -6 5 -6h143z" />
    <glyph glyph-name="Q" unicode="Q" horiz-adv-x="569" 
d="M352 708q107 0 165 -66.5t45 -175.5l-30 -240q-10 -88 -65.5 -149t-139.5 -79q-6 -2 -6 -6l-10 -80q-2 -16 -17 -16h-82q-16 0 -13 16l10 80q0 4 -5 6q-80 17 -120.5 78t-29.5 150l29 240q13 109 87.5 175.5t181.5 66.5zM420 228l30 244q8 61 -22.5 98.5t-88.5 37.5
q-56 0 -95.5 -37.5t-46.5 -98.5l-30 -244q-8 -61 22.5 -98.5t86.5 -37.5q58 0 97 37.5t47 98.5z" />
    <glyph glyph-name="R" unicode="R" horiz-adv-x="595" 
d="M436 0q-14 0 -17 12l-92 286q-1 4 -7 4h-113q-5 0 -7 -6l-34 -280q-2 -16 -18 -16h-81q-16 0 -14 16l83 669q2 16 17 16h263q90 0 138.5 -56.5t37.5 -147.5q-9 -69 -49.5 -117.5t-102.5 -66.5q-6 -2 -4 -8l99 -286q5 -19 -14 -19h-85zM244 601q-7 0 -7 -6l-24 -197
q-1 -6 5 -6h144q46 0 78.5 28.5t38.5 74.5q6 47 -19 76.5t-72 29.5h-144z" />
    <glyph glyph-name="S" unicode="S" horiz-adv-x="572" 
d="M269 -8q-112 0 -172 54.5t-49 146.5l3 21q2 16 17 16h80q14 0 13 -15l-2 -16q-5 -46 30 -76.5t101 -30.5q59 0 92 26t38 67q6 40 -24.5 63.5t-115.5 59.5q-38 15 -60.5 25t-52 29t-44.5 39t-24 50t-4 67q10 88 78.5 139t172.5 51q110 0 171 -57t50 -149l-2 -13
q-2 -16 -17 -16h-80q-7 0 -11 3.5t-3 8.5l2 11q6 47 -27.5 79.5t-99.5 32.5q-54 0 -86.5 -23t-37.5 -65q-5 -43 24.5 -65.5t118.5 -57.5q40 -16 59 -24.5t50.5 -28.5t46 -39t24.5 -49.5t5 -67.5q-11 -89 -82 -142.5t-182 -53.5z" />
    <glyph glyph-name="T" unicode="T" horiz-adv-x="562" 
d="M580 700q15 0 13 -16l-8 -69q-2 -16 -18 -16h-173q-6 0 -7 -6l-71 -577q-2 -16 -17 -16h-82q-16 0 -13 16l71 577q0 6 -6 6h-166q-16 0 -14 16l9 69q2 16 17 16h465z" />
    <glyph glyph-name="U" unicode="U" horiz-adv-x="617" 
d="M288 -8q-109 0 -168.5 64.5t-46.5 170.5l57 457q2 16 17 16h82q15 0 13 -16l-56 -459q-8 -59 24 -96t90 -37q59 0 99.5 37t48.5 96l56 459q2 16 17 16h82q16 0 14 -16l-57 -457q-13 -106 -87.5 -170.5t-184.5 -64.5z" />
    <glyph glyph-name="V" unicode="V" horiz-adv-x="592" 
d="M231 0q-13 0 -16 13l-119 669q-2 18 15 18h88q15 0 16 -13l80 -517q4 -10 8 0l206 516q5 14 19 14h87q17 0 10 -18l-286 -669q-6 -13 -19 -13h-89z" />
    <glyph glyph-name="W" unicode="W" horiz-adv-x="841" 
d="M194 0q-14 0 -16 14l-92 668q-3 18 15 18h88q14 0 15 -14l54 -450q0 -3 1.5 -4t3.5 0.5t3 3.5l159 450q4 14 18 14h87q15 0 16 -14l55 -450q0 -3 2 -4t3.5 0t2.5 4l163 450q4 14 18 14h84q17 0 10 -18l-247 -668q-4 -14 -19 -14h-84q-15 0 -15 14l-55 471q0 3 -1.5 4
t-3.5 -0.5t-3 -3.5l-165 -471q-4 -14 -18 -14h-79z" />
    <glyph glyph-name="X" unicode="X" horiz-adv-x="598" 
d="M28 0q-19 0 -7 19l230 327q3 5 1 8l-150 327q-7 19 12 19h89q14 0 17 -11l110 -244q3 -6 8 0l170 244q7 11 20 11h89q19 0 7 -19l-230 -327q-4 -4 -1 -8l150 -327q7 -19 -12 -19h-89q-13 0 -17 11l-111 243q-1 3 -3.5 3t-3.5 -3l-171 -243q-7 -11 -20 -11h-88z" />
    <glyph glyph-name="Y" unicode="Y" horiz-adv-x="581" 
d="M230 1q-16 0 -14 16l33 263q0 1 -0.5 3.5t-0.5 3.5l-148 394q-7 19 13 19h88q12 0 17 -12l99 -275q4 -8 8 0l168 275q7 12 20 12h89q20 0 8 -19l-246 -394q-1 -3 -3 -7l-32 -263q-2 -16 -18 -16h-81z" />
    <glyph glyph-name="Z" unicode="Z" horiz-adv-x="537" 
d="M32 0q-16 0 -14 16l10 78q1 10 8 20l384 479q5 7 -3 7h-311q-16 0 -14 16l8 68q3 16 18 16h429q15 0 13 -16l-9 -78q-2 -11 -9 -20l-383 -479q-7 -7 3 -7h311q16 0 14 -16l-9 -68q-2 -16 -17 -16h-429z" />
    <glyph glyph-name="bracketleft" unicode="[" horiz-adv-x="391" 
d="M12 -138q-16 0 -13 16l110 897q2 16 17 16h206q16 0 13 -16l-8 -68q-2 -16 -17 -16h-103q-5 0 -7 -6l-88 -716q0 -6 5 -6h104q16 0 14 -16l-9 -69q-2 -16 -17 -16h-207z" />
    <glyph glyph-name="backslash" unicode="\" horiz-adv-x="401" 
d="M355 18q5 -18 -15 -18h-79q-14 0 -17 13l-152 669q-3 18 15 18h80q14 0 17 -13z" />
    <glyph glyph-name="bracketright" unicode="]" horiz-adv-x="391" 
d="M324 -122q-3 -16 -18 -16h-207q-15 0 -13 16l8 69q3 16 18 16h104q6 0 6 6l88 716q0 6 -5 6h-103q-16 0 -13 16l8 68q2 16 17 16h206q16 0 14 -16z" />
    <glyph glyph-name="asciicircum" unicode="^" horiz-adv-x="451" 
d="M68 301q-19 0 -10 18l179 368q7 13 20 13h69q13 0 16 -13l90 -368q3 -18 -15 -18h-63q-14 0 -17 13l-57 261q0 3 -1.5 4t-3.5 0t-3 -4l-120 -261q-6 -13 -20 -13h-64z" />
    <glyph glyph-name="underscore" unicode="_" horiz-adv-x="494" 
d="M17 0q-15 0 -13 16l7 57q2 16 17 16h420q16 0 14 -16l-7 -57q-2 -16 -18 -16h-420z" />
    <glyph glyph-name="grave" unicode="`" horiz-adv-x="221" 
d="M243 594q3 -8 -1.5 -13.5t-12.5 -5.5h-63q-13 0 -18 10l-50 96q-4 8 -0.5 13.5t12.5 5.5h77q12 0 17 -11z" />
    <glyph glyph-name="a" unicode="a" horiz-adv-x="534" 
d="M402 495q2 16 18 16h81q16 0 14 -16l-59 -479q-2 -16 -18 -16h-81q-16 0 -14 16l3 24q1 4 -1.5 5t-4.5 -2q-48 -51 -116 -51t-111.5 37.5t-57.5 102.5q-11 57 -2 125q8 70 31 122q30 66 82.5 103t122.5 37q66 0 104 -47q5 -8 7 2zM335 140q27 39 37 116q9 78 -10 119
q-20 44 -67 44q-50 0 -83 -42q-34 -45 -43 -122q-9 -72 9 -114q20 -48 76 -48q48 0 81 47z" />
    <glyph glyph-name="b" unicode="b" horiz-adv-x="534" 
d="M505 379q10 -47 2 -122q-9 -70 -33 -125q-30 -65 -82.5 -102.5t-120.5 -37.5q-69 0 -105 52q-2 4 -4 3t-3 -5l-3 -26q-2 -16 -17 -16h-82q-16 0 -13 16l82 668q2 16 17 16h82q15 0 13 -16l-26 -212q0 -9 7 -2q47 49 116 49q70 0 113.5 -37t56.5 -103zM353 141
q28 41 37 114q10 77 -13 122q-22 42 -72 42q-48 0 -79 -44q-29 -43 -38 -119q-10 -79 8 -116q20 -47 70 -47q56 0 87 48z" />
    <glyph glyph-name="c" unicode="c" horiz-adv-x="515" 
d="M246 -8q-74 0 -123.5 39.5t-62.5 106.5q-11 46 -1 120q8 69 30 118q29 66 88 104.5t134 38.5q76 0 127.5 -39t62.5 -98q3 -18 2 -28q1 -15 -15 -18l-82 -13q-15 -3 -15 12l-2 13q-3 30 -27.5 50.5t-62.5 20.5t-65.5 -19.5t-40.5 -53.5q-14 -33 -21 -89q-7 -57 -2 -89
q12 -76 89 -76q37 0 65.5 19.5t40.5 51.5l2 5q2 5 8 10t12 4l79 -13q15 -3 11 -18q-5 -16 -7 -20q-27 -64 -88 -101.5t-136 -37.5z" />
    <glyph glyph-name="d" unicode="d" horiz-adv-x="534" 
d="M425 684q3 16 18 16h81q16 0 14 -16l-82 -668q-2 -16 -18 -16h-81q-16 0 -14 16l4 26q0 4 -2 5t-5 -3q-47 -52 -117 -52q-68 0 -111.5 37.5t-57.5 102.5q-11 57 -2 125q8 70 31 122q30 66 82.5 103t122.5 37q68 0 104 -49q2 -3 4.5 -2.5t2.5 4.5zM334 140q27 39 37 116
q9 78 -10 119q-20 44 -67 44q-50 0 -83 -42q-34 -45 -43 -122q-9 -72 9 -114q20 -48 76 -48q48 0 81 47z" />
    <glyph glyph-name="e" unicode="e" horiz-adv-x="526" 
d="M274 90q71 3 112 55q11 14 22 5l42 -38q10 -10 2 -22q-72 -98 -201 -98q-77 0 -124 37.5t-62 104.5q-13 57 -4 124q8 68 23 106q27 71 87 113t137 42q182 0 187 -205q2 -38 -3 -82q-2 -16 -17 -16h-301q-6 0 -7 -6q-2 -29 1 -44q6 -36 33.5 -56t72.5 -20zM295 419
q-74 0 -102 -70q-6 -12 -13 -42q-2 -6 4 -6h195q5 0 7 6q0 27 -1 36q-5 35 -28.5 55.5t-61.5 20.5z" />
    <glyph glyph-name="f" unicode="f" horiz-adv-x="365" 
d="M358 512q16 0 13 -16l-8 -71q-3 -16 -18 -16h-91q-6 0 -7 -6l-47 -387q-2 -16 -18 -16h-81q-16 0 -14 16l48 387q0 6 -5 6h-56q-15 0 -13 16l9 71q2 16 17 16h55q6 0 7 6l2 17q12 95 54.5 130.5t143.5 34.5h30q16 0 13 -16l-7 -62q-2 -16 -18 -16h-21q-42 0 -60 -17
t-23 -62l-2 -9q0 -6 6 -6h91z" />
    <glyph glyph-name="g" unicode="g" horiz-adv-x="533" 
d="M405 495q2 16 18 16h81q16 0 14 -16l-57 -461q-9 -73 -41 -123.5t-80 -74t-101 -31t-114 -1.5q-13 1 -11 18l12 74q2 16 19 14q96 -9 145 19.5t59 107.5l1 6q0 9 -7 3q-45 -43 -117 -43q-62 0 -110.5 33t-60.5 101q-7 43 2 121q11 84 31 127q27 61 79 97.5t116 36.5
q74 0 113 -45q5 -7 7 3zM358 170q11 26 18 89q8 57 3 87q-3 33 -25 53t-58 20q-71 0 -103 -73q-14 -27 -23 -88q-7 -64 -1 -87q6 -32 29 -52.5t59 -20.5q38 0 64 20t37 52z" />
    <glyph glyph-name="h" unicode="h" horiz-adv-x="528" 
d="M342 519q79 0 120.5 -48t31.5 -131l-40 -324q-2 -16 -17 -16h-82q-16 0 -14 16l37 300q6 46 -16 74.5t-64 28.5q-41 0 -70.5 -28t-35.5 -74l-37 -301q-2 -16 -17 -16h-82q-16 0 -13 16l82 668q2 16 17 16h82q15 0 13 -16l-26 -216q-1 -4 1 -5t5 2q45 54 125 54z" />
    <glyph glyph-name="i" unicode="i" horiz-adv-x="247" 
d="M175 575q-32 0 -49.5 20.5t-13.5 52.5t26.5 52t54.5 20t49.5 -20t13.5 -52t-26.5 -52.5t-54.5 -20.5zM64 0q-16 0 -14 16l59 479q3 16 18 16h81q16 0 14 -16l-59 -479q-2 -16 -17 -16h-82z" />
    <glyph glyph-name="j" unicode="j" horiz-adv-x="238" 
d="M172 572q-32 0 -49.5 21t-13.5 52q4 30 28 51t53 21q30 0 49.5 -21t15.5 -51q-4 -31 -27 -52t-56 -21zM-79 -205q-15 0 -13 16l8 66q2 17 18 15q53 0 78.5 21.5t31.5 69.5l62 512q3 16 18 16h81q16 0 14 -16l-63 -511q-13 -106 -64.5 -148t-170.5 -41z" />
    <glyph glyph-name="k" unicode="k" horiz-adv-x="506" 
d="M56 0q-16 0 -13 16l82 668q2 16 17 16h82q15 0 13 -16l-43 -355q-1 -4 1.5 -5t4.5 2l176 176q9 9 20 9h94q9 0 11.5 -6.5t-4.5 -13.5l-137 -146q-4 -3 -2 -8l104 -318q5 -19 -14 -19h-86q-13 0 -16 12l-74 250q-3 6 -8 1l-87 -91q-3 -4 -3 -7l-19 -149q-2 -16 -17 -16
h-82z" />
    <glyph glyph-name="l" unicode="l" horiz-adv-x="236" 
d="M57 0q-16 0 -13 16l82 668q2 16 17 16h82q15 0 13 -16l-82 -668q-2 -16 -17 -16h-82z" />
    <glyph glyph-name="m" unicode="m" horiz-adv-x="804" 
d="M635 519q74 0 111 -46.5t27 -129.5l-41 -327q-2 -16 -17 -16h-81q-15 0 -13 16l37 303q6 45 -15 72.5t-60 27.5q-40 0 -68.5 -27t-33.5 -72l-38 -304q-2 -16 -17 -16h-81q-15 0 -13 16l37 303q5 46 -15.5 73t-60.5 27q-37 0 -63 -22t-35 -60l-40 -321q-2 -16 -17 -16h-82
q-16 0 -13 16l59 479q2 16 17 16h81q16 0 14 -16l-3 -27q-1 -4 1.5 -5t4.5 3q49 53 129 53q97 0 128 -77q4 -8 8 1q54 76 153 76z" />
    <glyph glyph-name="n" unicode="n" horiz-adv-x="528" 
d="M342 519q79 0 120.5 -48t31.5 -131l-40 -324q-2 -16 -17 -16h-82q-16 0 -14 16l37 300q6 46 -16 74.5t-64 28.5q-41 0 -70.5 -28t-35.5 -74l-37 -301q-2 -16 -17 -16h-82q-16 0 -13 16l59 479q2 16 17 16h81q16 0 14 -16l-3 -27q-1 -4 1 -5t5 2q45 54 125 54z" />
    <glyph glyph-name="o" unicode="o" horiz-adv-x="540" 
d="M251 -8q-76 0 -126.5 40t-63.5 111q-10 47 -2 114q8 63 29 114q31 70 91 109t138 39q74 0 123 -39t63 -108q11 -50 3 -114q-8 -62 -30 -114q-31 -71 -90.5 -111.5t-134.5 -40.5zM263 92q36 0 64.5 21t43.5 59q16 33 21 84q6 49 1 84q-7 38 -30.5 58.5t-60.5 20.5
q-77 0 -110 -79q-14 -38 -20 -84q-6 -48 -1 -84q7 -38 31 -59t61 -21z" />
    <glyph glyph-name="p" unicode="p" horiz-adv-x="538" 
d="M508 379q11 -57 2 -125q-8 -70 -31 -122q-63 -140 -205 -140q-68 0 -104 49q-1 3 -3.5 2.5t-3.5 -4.5l-26 -212q-2 -16 -18 -16h-81q-16 0 -14 16l82 668q3 16 18 16h81q16 0 14 -16l-3 -26q-1 -4 1.5 -5t4.5 3q47 52 117 52q68 0 112 -37.5t57 -102.5zM351 134
q34 45 43 122q9 72 -9 114q-20 48 -76 48q-48 0 -81 -47q-27 -39 -37 -116q-9 -78 10 -119q20 -44 67 -44q50 0 83 42z" />
    <glyph glyph-name="q" unicode="q" horiz-adv-x="538" 
d="M402 495q2 16 18 16h81q16 0 14 -16l-82 -668q-3 -16 -18 -16h-81q-16 0 -14 16l26 212q1 4 -1.5 4.5t-4.5 -2.5q-49 -49 -117 -49q-70 0 -113 37t-57 103q-10 53 -1 122q7 68 32 125q30 65 83 102.5t121 37.5q69 0 104 -52q2 -4 4 -3t3 5zM332 136q30 42 39 119
q10 76 -8 116q-22 47 -70 47q-55 0 -88 -48q-28 -44 -37 -114q-9 -79 13 -122q22 -42 73 -42q47 0 78 44z" />
    <glyph glyph-name="r" unicode="r" horiz-adv-x="365" 
d="M335 517q30 0 50 -11q11 -6 6 -20l-25 -83q-5 -14 -20 -10q-21 7 -49 3q-41 -2 -71.5 -29.5t-36.5 -71.5l-34 -279q-2 -16 -17 -16h-82q-16 0 -13 16l59 479q2 16 17 16h81q16 0 14 -16l-5 -39q0 -9 6 -2q47 63 120 63z" />
    <glyph glyph-name="s" unicode="s" horiz-adv-x="479" 
d="M225 -6q-92 0 -143 40t-43 102l1 5q2 16 17 16h78q7 0 11 -2t3 -5v-7q-4 -25 20.5 -43.5t65.5 -18.5q39 0 65 16.5t29 41.5q2 12 -2.5 21t-17.5 16t-23.5 11t-33.5 11.5t-35 11.5q-35 11 -57 21t-47 27.5t-35 44t-6 61.5q9 71 67 112t145 41q89 0 138 -42.5t41 -109.5
q-2 -12 -17 -12h-75q-15 0 -15 6l1 6q3 26 -19.5 43.5t-65.5 17.5q-38 0 -63 -14.5t-29 -40.5q-1 -7 0 -12.5t5 -10.5t7.5 -9t11 -8t13 -6.5t16.5 -6t17.5 -5.5t20 -6t20.5 -6q37 -11 59.5 -21t49 -27.5t37 -44t6.5 -62.5q-9 -71 -68 -111.5t-150 -40.5z" />
    <glyph glyph-name="t" unicode="t" horiz-adv-x="363" 
d="M357 433q-2 -16 -18 -16h-94q-6 0 -6 -6l-29 -236q-5 -39 9 -56t49 -17h25q16 0 13 -16l-8 -67q-2 -15 -17 -17q-8 0 -24 -0.5t-23 -0.5q-76 0 -110.5 27.5t-26.5 102.5l34 280q0 6 -5 6h-51q-15 0 -13 16l8 62q2 16 17 16h50q5 0 7 6l14 112q2 16 17 16h77q16 0 13 -16
l-13 -112q-2 -6 5 -6h94q16 0 13 -16z" />
    <glyph glyph-name="u" unicode="u" horiz-adv-x="525" 
d="M394 495q3 16 18 16h80q16 0 14 -16l-59 -479q-2 -16 -17 -16h-81q-16 0 -13 16l3 26q0 4 -2 5t-5 -3q-45 -51 -124 -51q-74 0 -118.5 44t-34.5 125l41 333q2 16 17 16h82q15 0 13 -16l-37 -300q-5 -47 15 -75t63 -28t73 28t36 75z" />
    <glyph glyph-name="v" unicode="v" horiz-adv-x="489" 
d="M178 0q-14 0 -15 13l-95 480q-3 18 15 18h91q13 0 16 -13l52 -332q3 -6 7 0l133 331q6 14 19 14l91 -1q19 0 11 -18l-211 -479q-6 -13 -19 -13h-95z" />
    <glyph glyph-name="w" unicode="w" horiz-adv-x="738" 
d="M161 0q-13 0 -16 13l-78 480q-2 18 16 18h85q14 0 14 -14l40 -328q0 -4 2 -4q4 -1 5 4l123 328q5 14 19 14h75q14 0 16 -14l45 -329q0 -5 4 -4l3 4l124 329q5 14 19 14l84 -1q18 0 11 -18l-197 -479q-6 -13 -19 -13h-86q-13 0 -16 13l-46 299q-3 7 -7 3q-1 -1 -1 -3
l-113 -298q-6 -14 -20 -14h-86z" />
    <glyph glyph-name="x" unicode="x" horiz-adv-x="501" 
d="M19 0q-9 0 -11 5.5t4 13.5l182 233q2 4 1 8l-125 232q-4 8 -0.5 13.5t12.5 5.5h87q12 0 18 -10l80 -151q3 -5 8 0l116 151q7 10 20 10h94q10 0 12 -5.5t-5 -13.5l-181 -232q-4 -4 -1 -8l124 -233q5 -8 1.5 -13.5t-13.5 -5.5h-87q-12 0 -17 10l-80 151q-1 2 -3.5 2
t-3.5 -2l-118 -151q-9 -10 -20 -10h-94z" />
    <glyph glyph-name="y" unicode="y" horiz-adv-x="474" 
d="M7 -199q-7 0 -5 16l8 64q2 16 8 16h6q58 0 85.5 19t51.5 80q1 3 1 8l-99 489q-3 18 15 18h88q14 0 15 -13l55 -331q2 -10 8 0l132 331q6 13 19 13h88q19 0 10 -18l-234 -521q-32 -71 -59 -104.5t-70 -50t-117 -16.5h-6z" />
    <glyph glyph-name="z" unicode="z" horiz-adv-x="441" 
d="M23 0q-16 0 -13 16l9 78q1 11 10 20l270 285q7 7 -3 7h-218q-16 0 -14 16l9 73q3 16 18 16h345q16 0 14 -16l-10 -78q-2 -13 -9 -20l-277 -285q-5 -7 3 -7h232q16 0 14 -16l-9 -73q-2 -16 -18 -16h-353z" />
    <glyph glyph-name="braceleft" unicode="{" horiz-adv-x="340" 
d="M180 -138q-117 0 -102 120l26 211q10 79 -41 89q-14 3 -13 17l8 62q1 14 17 16q53 10 63 88l25 206q15 120 131 120h75q16 0 13 -16l-8 -68q-2 -16 -18 -16h-25q-53 0 -61 -67l-22 -173q-10 -90 -66 -118q-8 -3 -2 -7q50 -27 38 -119l-21 -177q-9 -67 45 -67h25
q16 0 14 -16l-9 -69q-2 -16 -17 -16h-75z" />
    <glyph glyph-name="bar" unicode="|" horiz-adv-x="184" 
d="M22 -80q-16 0 -13 16l99 808q2 16 17 16h82q16 0 13 -16l-99 -808q-2 -16 -17 -16h-82z" />
    <glyph glyph-name="braceright" unicode="}" horiz-adv-x="340" 
d="M87 -138h-75q-16 0 -13 16l8 69q2 16 18 16h25q53 0 61 67l22 177q12 91 67 119q7 4 1 7q-49 28 -38 118l21 173q9 67 -45 67h-25q-16 0 -14 16l9 68q2 16 17 16h75q115 0 102 -120l-26 -206q-9 -78 42 -88q15 -2 12 -16l-7 -62q-1 -14 -17 -17q-53 -10 -63 -89l-26 -211
q-15 -120 -131 -120z" />
    <glyph glyph-name="asciitilde" unicode="~" horiz-adv-x="506" 
d="M348 212q-37 0 -87 29q-43 29 -76 29q-39 0 -68 -34q-11 -14 -22 -5l-40 31q-11 9 -4 21q22 39 61.5 63.5t81.5 24.5q38 0 80 -26q49 -33 80 -33q30 0 60 34q10 13 22 4l47 -34q11 -8 3 -21q-23 -37 -60 -60t-78 -23z" />
    <glyph glyph-name="uni00A0" unicode="&#xa0;" horiz-adv-x="194" 
 />
    <glyph glyph-name="exclamdown" unicode="&#xa1;" horiz-adv-x="328" 
d="M229 708q33 0 53.5 -22.5t16.5 -54.5t-31 -54.5t-58 -22.5t-52 22.5t-17 54.5q5 32 30 54.5t58 22.5zM155 458q3 16 18 16h60q16 0 13 -16l-42 -432q-1 -16 -18 -16h-81q-15 0 -14 16z" />
    <glyph glyph-name="cent" unicode="&#xa2;" horiz-adv-x="515" 
d="M376 253l2 5q2 5 8 10t12 4l79 -13q15 -3 11 -18q-6 -16 -7 -20q-23 -54 -71 -90t-110 -46q-6 -1 -6 -7l-6 -61q-2 -16 -16 -16h-65q-15 0 -13 16l10 66q1 4 -4 6q-51 13 -84.5 49.5t-44.5 89.5q-11 46 -1 120q8 69 30 118q47 109 163 136q5 2 6 6l6 66q2 16 16 16h65
q15 0 13 -16l-10 -62q0 -5 5 -7q60 -10 99.5 -46t48.5 -87q3 -18 2 -28q1 -15 -15 -18l-82 -13q-15 -3 -15 12l-2 13q-3 30 -27.5 50.5t-62.5 20.5t-65.5 -19.5t-40.5 -53.5q-14 -33 -21 -89q-6 -50 -2 -89q12 -76 89 -76q37 0 65.5 19.5t40.5 51.5z" />
    <glyph glyph-name="sterling" unicode="&#xa3;" horiz-adv-x="592" 
d="M273 210q-8 -62 -49 -103q-4 -3 -3 -5t5 -2h313q16 0 14 -16l-9 -68q-2 -16 -17 -16h-430q-16 0 -14 16l9 71q1 12 13 20q47 31 55 102l10 80q2 6 -5 6h-62q-16 0 -13 16l7 62q2 16 18 16h62q6 0 6 6l13 103q12 97 73 152t155 58q150 4 183 -144q2 -16 -14 -19l-77 -14
q-13 -3 -18 11q-16 68 -82 66q-94 -3 -107 -108l-13 -105q-2 -6 5 -6h174q15 0 13 -16l-7 -62q-3 -16 -18 -16h-174q-6 0 -6 -6z" />
    <glyph glyph-name="currency" unicode="&#xa4;" horiz-adv-x="538" 
d="M490 303q-7 -55 -40 -106q-3 -6 0 -9l51 -60q10 -12 -4 -23l-54 -44q-13 -10 -22 1l-49 56q-2 4 -8 1q-50 -28 -106 -28q-55 0 -96 26q-5 3 -9 -1l-59 -54q-12 -11 -22 -1l-45 44q-9 11 3 23l61 56q5 3 3 9q-24 52 -17 110q7 56 41 106q4 5 0 9l-51 59q-9 12 3 23l55 45
q13 10 22 -1l48 -56q2 -4 8 -1q50 28 107 28q58 0 103 -31q4 -3 8 1l66 59q11 12 22 1l44 -45q11 -11 -3 -23l-71 -64q-3 -3 -2 -8q20 -50 13 -102zM174 303q-6 -46 22.5 -79.5t73.5 -33.5t81 33t43 80q5 46 -23.5 79.5t-73.5 33.5t-81 -33t-42 -80z" />
    <glyph glyph-name="yen" unicode="&#xa5;" horiz-adv-x="666" 
d="M647 700q8 0 10.5 -5.5t-2.5 -13.5l-211 -338q-4 -7 3 -7h89q16 0 14 -16l-5 -34q-2 -16 -17 -16h-118q-6 0 -6 -6l-7 -58q-1 -6 5 -6h117q16 0 14 -16l-4 -34q-3 -16 -18 -16h-117q-6 0 -7 -6l-13 -111q-3 -16 -18 -16h-81q-16 0 -14 16l14 111q0 6 -5 6h-120
q-15 0 -13 16l4 34q2 16 17 16h120q6 0 6 6l7 58q1 6 -5 6h-119q-16 0 -14 16l5 34q2 16 17 16h91q6 0 5 7l-126 338q-4 8 0 13.5t13 5.5h88q12 0 17 -12l99 -275q3 -6 8 0l167 275q7 12 20 12h90z" />
    <glyph glyph-name="brokenbar" unicode="&#xa6;" horiz-adv-x="184" 
d="M81 401q-16 0 -13 16l40 327q2 16 17 16h82q16 0 13 -16l-40 -327q-2 -16 -17 -16h-82zM22 -80q-16 0 -13 16l40 327q2 16 17 16h82q16 0 13 -16l-40 -327q-2 -16 -17 -16h-82z" />
    <glyph glyph-name="section" unicode="&#xa7;" horiz-adv-x="469" 
d="M186 -208q-82 0 -124 45t-34 122l2 27q3 16 17 16h81q7 0 11 -3.5t3 -9.5l-1 -12q-5 -39 12 -62t51 -23q32 0 55 22t27 55q2 20 -3.5 34.5t-22.5 26.5t-30.5 18t-42.5 18q-3 1 -5.5 2t-4.5 2q-44 17 -70 35t-40 47q-19 38 -13 90q7 57 39 98q27 35 71 51q10 3 2 7
q-37 19 -57 56t-14 86q9 70 68 119t140 49q80 0 125.5 -47.5t37.5 -121.5l-2 -17q-2 -16 -18 -16h-81q-7 0 -11 3t-3 8l1 10q4 36 -13.5 58.5t-48.5 22.5q-32 0 -55.5 -22.5t-27.5 -55.5q-5 -37 20.5 -58.5t77.5 -40.5q79 -26 109 -65q32 -43 24 -108q-6 -54 -38 -97
q-31 -44 -72 -55q-8 -2 -2 -6q83 -49 72 -142q-9 -75 -69 -120.5t-143 -45.5zM235 166q46 0 70 33q16 21 19 50q5 34 -8 54q-20 30 -60 30q-44 0 -70 -38q-16 -19 -19 -48q-3 -30 8 -48q17 -33 60 -33z" />
    <glyph glyph-name="dieresis" unicode="&#xa8;" horiz-adv-x="342" 
d="M134 581q-27 0 -42 17t-11 45q3 28 22.5 45t46.5 17q26 0 40.5 -17t10.5 -45q-3 -28 -22 -45t-45 -17zM312 581q-27 0 -41.5 17t-11.5 45q4 28 22.5 45t45.5 17t41.5 -17t11.5 -45q-4 -28 -22.5 -45t-45.5 -17z" />
    <glyph glyph-name="copyright" unicode="&#xa9;" horiz-adv-x="810" 
d="M384 -8q-151 0 -238 102.5t-68 257.5q19 153 131 254.5t263 101.5q152 0 239 -101t68 -255q-19 -156 -130.5 -258t-264.5 -102zM392 58q125 0 216 83.5t106 210.5q16 125 -55 207.5t-195 82.5q-123 0 -214 -82.5t-107 -207.5q-16 -128 54.5 -211t194.5 -83zM408 173
q-52 0 -80 30t-22 80l17 136q6 50 41 79.5t88 29.5q52 0 79.5 -28t22.5 -76q-2 -9 -17 -9l-31 -1q-8 0 -12 1.5t-3 3.5v4q3 23 -10 37t-36 14q-24 0 -40 -14t-18 -37l-18 -145q-3 -23 9.5 -36.5t36.5 -13.5q23 0 39.5 14t19.5 36q0 10 16 10l31 -1h7t5 -0.5t2.5 -1.5t0.5 -2
v-5q-6 -48 -41.5 -76.5t-86.5 -28.5z" />
    <glyph glyph-name="ordfeminine" unicode="&#xaa;" horiz-adv-x="317" 
d="M201 566h63q7 0 7 6l2 14q3 30 -12 48t-48 18q-48 0 -66 -34q-6 -15 -19 -13l-32 3q-17 2 -12 18q12 36 49.5 59t86.5 23q59 0 91.5 -31.5t26.5 -80.5l-26 -214q-3 -16 -18 -16h-33q-16 0 -13 16v5q1 4 -1 5t-5 -2q-33 -30 -90 -30q-50 0 -77.5 24.5t-21.5 71.5
q6 50 46 80t102 30zM170 412q34 0 60 19t29 47l4 31q2 6 -5 6h-55q-80 0 -86 -54q-3 -25 11.5 -37t41.5 -12zM32 293q2 16 18 16h245q16 0 14 -16l-5 -40q-3 -16 -18 -16h-245q-16 0 -14 16z" />
    <glyph glyph-name="guillemotleft" unicode="&#xab;" horiz-adv-x="504" 
d="M260 126q4 -8 0.5 -13.5t-12.5 -5.5h-74q-12 0 -17 10l-80 153q-6 11 3 22l117 153q7 10 20 10h74q9 0 11 -5.5t-4 -13.5l-118 -151q-3 -4 0 -8zM422 126q4 -8 0.5 -13.5t-12.5 -5.5h-74q-12 0 -17 10l-80 153q-6 11 2 22l118 153q7 10 20 10h74q9 0 11 -5.5t-4 -13.5
l-118 -151q-3 -4 0 -8z" />
    <glyph glyph-name="logicalnot" unicode="&#xac;" horiz-adv-x="476" 
d="M53 339q2 16 18 16h382q16 0 13 -16l-22 -183q-2 -16 -17 -16h-66q-16 0 -14 16l11 93q2 6 -5 6h-295q-15 0 -13 16z" />
    <glyph glyph-name="uni00AD" unicode="&#xad;" horiz-adv-x="392" 
d="M58 251q-16 0 -14 16l9 68q2 16 17 16h298q16 0 14 -16l-9 -68q-2 -16 -17 -16h-298z" />
    <glyph glyph-name="registered" unicode="&#xae;" horiz-adv-x="434" 
d="M284 711q83 0 132.5 -56.5t39.5 -139.5q-10 -87 -73.5 -144.5t-147.5 -57.5q-82 0 -131 57.5t-39 144.5q10 83 73.5 139.5t145.5 56.5zM241 361q64 0 112 44t56 110q8 63 -29.5 106t-101.5 43q-62 0 -109 -43t-55 -106q-8 -66 28.5 -110t98.5 -44zM331 548
q-4 -32 -29 -46q-4 -3 -4 -8l13 -54q3 -18 -15 -18h-9q-13 0 -16 13l-12 54q-1 5 -6 5h-4q-5 0 -7 -6l-6 -50q-2 -16 -17 -16h-9q-16 0 -14 16l19 151q2 16 17 16h51q24 0 37.5 -16.5t10.5 -40.5zM258 570q-6 0 -6 -6l-4 -33q-2 -6 5 -6h14q10 0 16.5 6.5t7.5 15.5
q3 23 -18 23h-15z" />
    <glyph glyph-name="macron" unicode="&#xaf;" horiz-adv-x="276" 
d="M68 583q-16 0 -14 16l6 48q2 16 18 16h245q16 0 13 -16l-5 -48q-3 -16 -18 -16h-245z" />
    <glyph glyph-name="degree" unicode="&#xb0;" horiz-adv-x="367" 
d="M222 476q-68 0 -109 48.5t-32 118.5q8 69 61 117t121 48q67 0 108 -48t33 -117q-9 -70 -61.5 -118.5t-120.5 -48.5zM232 554q36 0 63.5 25.5t32.5 63.5t-16.5 63.5t-57.5 25.5t-64.5 -26t-32.5 -63q-5 -37 17 -63t58 -26z" />
    <glyph glyph-name="plusminus" unicode="&#xb1;" horiz-adv-x="476" 
d="M320 436q0 -6 5 -6h137q16 0 14 -16l-9 -68q-2 -16 -17 -16h-137q-6 0 -6 -6l-18 -139q-2 -16 -17 -16h-65q-16 0 -14 16l18 139q0 6 -6 6h-137q-16 0 -14 16l8 68q3 16 18 16h138q6 0 6 6l18 143q2 16 17 16h65q16 0 14 -16zM27 0q-16 0 -13 16l8 68q2 16 17 16h383
q15 0 13 -16l-8 -68q-2 -16 -18 -16h-382z" />
    <glyph glyph-name="uni00B2" unicode="&#xb2;" horiz-adv-x="327" 
d="M80 425q-15 0 -13 16l4 38q1 11 11 19q68 66 141 140q62 62 66 94q2 23 -12 37.5t-39 14.5q-26 0 -43.5 -15t-19.5 -39l-1 -6q-2 -16 -17 -16h-44q-16 0 -13 16l2 18q8 49 48.5 78.5t95.5 29.5q59 0 91 -33.5t26 -83.5q-7 -49 -63 -111q-34 -39 -121 -124q-4 -2 -3 -4.5
t5 -2.5h146q16 0 14 -16l-5 -34q-2 -16 -17 -16h-239z" />
    <glyph glyph-name="uni00B3" unicode="&#xb3;" horiz-adv-x="313" 
d="M332 629q10 -28 4 -70q-4 -35 -21 -68q-40 -72 -127 -72q-44 0 -73.5 22.5t-38.5 61.5q-5 20 -3 40q2 16 17 16h45q15 0 13 -15q0 -10 2 -22q8 -37 46 -37q32 0 50 27q14 20 17 49q3 33 -5 52q-10 27 -43 27q-11 0 -20 -4q-13 -6 -20 4l-18 26q-6 13 4 23l97 82
q3 2 2 4.5t-4 2.5h-131q-16 0 -14 16l4 34q2 16 18 16h219q16 0 14 -16l-5 -38q-1 -11 -10 -20l-85 -77q-7 -5 3 -7q46 -10 63 -57z" />
    <glyph glyph-name="acute" unicode="&#xb4;" horiz-adv-x="221" 
d="M95 575q-9 0 -12 5.5t3 13.5l62 95q6 11 19 11h77q10 0 12 -5.5t-5 -13.5l-73 -96q-8 -10 -20 -10h-63z" />
    <glyph glyph-name="uni00B5" unicode="&#xb5;" horiz-adv-x="533" 
d="M400 495q3 16 18 16h80q16 0 14 -16l-59 -479q-2 -16 -17 -16h-81q-16 0 -14 16l4 26q0 4 -2 5t-5 -3q-45 -51 -124 -51q-30 0 -54 7q-7 2 -7 -5l-22 -179q-3 -16 -18 -16h-81q-16 0 -14 16l84 679q2 16 17 16h81q16 0 14 -16l-37 -300q-5 -47 15 -75t63 -28
q44 0 73.5 28.5t34.5 74.5z" />
    <glyph glyph-name="paragraph" unicode="&#xb6;" horiz-adv-x="590" 
d="M325 700h250q16 0 13 -16l-106 -868q-2 -16 -18 -16h-52q-16 0 -14 16l98 795q0 6 -5 6h-102q-6 0 -6 -6l-98 -795q-2 -16 -18 -16h-53q-16 0 -13 16l52 428q0 6 -5 6q-91 8 -141.5 70t-39.5 155q12 98 83 161.5t175 63.5z" />
    <glyph glyph-name="periodcentered" unicode="&#xb7;" horiz-adv-x="157" 
d="M48 -1q-33 0 -52.5 22t-15.5 55q4 31 30 53.5t57 22.5t52.5 -22.5t17.5 -53.5q-4 -32 -29.5 -54.5t-59.5 -22.5z" />
    <glyph glyph-name="cedilla" unicode="&#xb8;" horiz-adv-x="154" 
d="M-29 -183q-12 4 -9 19l9 31q5 15 20 12q43 -11 55 25q12 33 -30 77q-7 7 -5 13t13 6h38q11 0 18 -7q60 -57 36 -121q-13 -32 -40.5 -48t-54 -14t-50.5 7z" />
    <glyph glyph-name="uni00B9" unicode="&#xb9;" horiz-adv-x="184" 
d="M150 841q9 4 19 4h49q16 0 14 -16l-48 -388q-2 -16 -17 -16h-44q-16 0 -14 16l41 330q0 3 -1 4.5t-4 0.5l-22 -3q-8 -2 -12 2t-3 12l3 26q3 12 14 18z" />
    <glyph glyph-name="ordmasculine" unicode="&#xba;" horiz-adv-x="347" 
d="M199 365q-46 0 -76.5 25t-41.5 70q-10 34 -3 77q5 46 21 78q43 93 143 93q44 0 75 -24.5t41 -67.5q7 -32 2 -78q-5 -40 -21 -78q-22 -45 -59 -70t-81 -25zM207 429q44 0 65 49q12 30 15 59q5 34 0 58q-4 23 -19 36t-36 13q-43 0 -67 -49q-11 -27 -15 -58q-3 -30 1 -59
q8 -49 56 -49zM50 237q-15 0 -13 16l5 43q2 16 18 16h266q16 0 14 -16l-5 -43q-3 -16 -18 -16h-267z" />
    <glyph glyph-name="guillemotright" unicode="&#xbb;" horiz-adv-x="504" 
d="M87 107q-10 0 -12 5.5t4 13.5l118 151q3 5 1 8l-80 151q-5 8 -1.5 13.5t13.5 5.5h73q13 0 18 -10l80 -153q6 -11 -3 -22l-118 -153q-8 -10 -19 -10h-74zM249 107q-10 0 -12 5.5t4 13.5l118 151q3 5 1 8l-80 151q-5 8 -1.5 13.5t13.5 5.5h73q13 0 17 -10l81 -153
q6 -11 -3 -22l-118 -153q-8 -10 -19 -10h-74z" />
    <glyph glyph-name="onequarter" unicode="&#xbc;" horiz-adv-x="788" 
d="M166 296q-2 -16 -17 -16h-44q-16 0 -13 16l40 330q1 3 -0.5 4.5t-4.5 0.5l-22 -3q-8 -2 -12 2t-3 12l4 26q1 12 14 18l24 10q9 4 19 4h49q16 0 14 -16zM561 689q8 11 20 11h48q9 0 11.5 -5.5t-3.5 -13.5l-471 -670q-6 -11 -20 -11h-49q-9 0 -11 5.5t4 13.5zM745 177
q16 0 14 -16l-5 -37q-2 -16 -17 -16h-13q-6 0 -6 -6l-11 -86q-2 -16 -17 -16h-43q-16 0 -14 16l11 86q0 6 -5 6h-167q-16 0 -13 16l3 30q1 10 6 19l132 235q7 12 19 12h46q19 0 9 -19l-121 -217q-3 -7 4 -7h90q5 0 7 6l8 67q2 16 18 16h42q16 0 14 -16l-8 -67q-2 -6 5 -6h12
z" />
    <glyph glyph-name="onehalf" unicode="&#xbd;" horiz-adv-x="768" 
d="M166 296q-2 -16 -17 -16h-44q-16 0 -13 16l40 330q1 3 -0.5 4.5t-4.5 0.5l-22 -3q-8 -2 -12 2t-3 12l4 26q1 12 14 18l24 10q9 4 19 4h49q16 0 14 -16zM561 689q8 11 20 11h48q9 0 11.5 -5.5t-3.5 -13.5l-471 -670q-6 -11 -20 -11h-49q-9 0 -11 5.5t4 13.5zM568 73
q-4 -2 -3 -4.5t5 -2.5h146q16 0 14 -16l-4 -34q-3 -16 -18 -16h-239q-15 0 -13 16l5 38q1 12 10 19q68 66 141 140q62 62 66 94q3 23 -11.5 37.5t-39.5 14.5q-26 0 -43.5 -15t-19.5 -39l-1 -6q-2 -16 -17 -16h-44q-15 0 -13 16l2 18q8 49 48.5 78.5t95.5 29.5
q60 0 91.5 -33.5t25.5 -83.5q-7 -48 -62 -111q-35 -39 -122 -124z" />
    <glyph glyph-name="threequarters" unicode="&#xbe;" horiz-adv-x="879" 
d="M298 351q-40 -72 -127 -72q-44 0 -73.5 22.5t-38.5 61.5q-5 20 -3 40q2 16 17 16h44q14 0 14 -15q0 -10 2 -22q7 -37 46 -37q32 0 50 27q12 20 17 49q3 31 -6 52q-9 27 -42 27q-11 0 -20 -4q-14 -6 -21 4l-17 26q-8 13 4 23l96 82q4 2 3 4.5t-5 2.5h-131q-15 0 -13 16
l4 34q2 16 18 16h219q16 0 13 -16l-4 -38q-1 -12 -11 -20l-85 -77q-5 -5 2 -7q47 -10 65 -57q9 -32 4 -70q-4 -35 -21 -68zM652 689q8 11 20 11h48q9 0 11.5 -5.5t-2.5 -13.5l-472 -670q-6 -11 -19 -11h-50q-19 0 -7 19zM837 177q15 0 13 -16l-4 -37q-3 -16 -18 -16h-13
q-6 0 -6 -6l-11 -86q-2 -16 -17 -16h-43q-16 0 -13 16l10 86q2 6 -5 6h-167q-16 0 -13 16l3 30q2 11 7 19l131 235q7 12 19 12h46q18 0 9 -19l-121 -217q-3 -7 4 -7h91q6 0 6 6l8 67q3 16 18 16h43q15 0 13 -16l-8 -67q-2 -6 5 -6h13z" />
    <glyph glyph-name="questiondown" unicode="&#xbf;" horiz-adv-x="485" 
d="M297 501q31 0 49.5 -21t14.5 -51t-28 -51t-54 -21t-49.5 21t-15.5 51t28.5 51t54.5 21zM316 286q16 0 14 -16l-5 -37q-4 -38 -25 -67.5t-48.5 -48.5t-54.5 -37.5t-47 -43t-24 -54.5q-5 -39 18 -62.5t66 -23.5q45 0 75 25t35 64l2 17q3 16 18 15l81 -4q15 -2 13 -15
l-1 -13q-11 -87 -77.5 -141t-161.5 -54q-94 0 -144 51.5t-39 136.5q6 46 27.5 81.5t49.5 56.5t55 39t47.5 39t23.5 46l3 30q3 16 18 16h81z" />
    <glyph glyph-name="Agrave" unicode="&#xc0;" horiz-adv-x="629" 
d="M429 783q3 -8 -1 -13.5t-13 -5.5h-63q-13 0 -17 10l-51 96q-4 8 -0.5 13.5t12.5 5.5h77q12 0 17 -11zM476 0q-13 0 -16 13l-17 103q0 5 -6 5h-254q-5 0 -8 -5l-42 -103q-6 -13 -20 -13h-88q-17 0 -10 18l290 669q6 13 19 13h113q13 0 16 -13l126 -669q3 -18 -14 -18h-89z
M218 219q-3 -7 4 -7h198q6 0 6 7l-59 340q-3 6 -7 0z" />
    <glyph glyph-name="Aacute" unicode="&#xc1;" horiz-adv-x="629" 
d="M496 889q10 0 12 -5.5t-4 -13.5l-74 -96q-8 -10 -20 -10h-63q-9 0 -12 5.5t3 13.5l62 95q8 11 20 11h76zM476 0q-13 0 -16 13l-17 103q0 5 -6 5h-254q-5 0 -8 -5l-42 -103q-6 -13 -20 -13h-88q-17 0 -10 18l290 669q6 13 19 13h113q13 0 16 -13l126 -669q3 -18 -14 -18
h-89zM218 219q-3 -7 4 -7h198q6 0 6 7l-59 340q-3 6 -7 0z" />
    <glyph glyph-name="Acircumflex" unicode="&#xc2;" horiz-adv-x="629" 
d="M399 834q-2 6 -8 0l-50 -64q-9 -10 -20 -10h-57q-10 0 -12 6t5 13l83 98q7 10 19 10h84q10 0 17 -10l60 -97q4 -8 0.5 -14t-12.5 -6h-57q-11 0 -17 10zM476 0q-13 0 -16 13l-17 103q0 5 -6 5h-254q-5 0 -8 -5l-42 -103q-6 -13 -20 -13h-88q-17 0 -10 18l290 669
q6 13 19 13h113q13 0 16 -13l126 -669q3 -18 -14 -18h-89zM218 219q-3 -7 4 -7h198q6 0 6 7l-59 340q-3 6 -7 0z" />
    <glyph glyph-name="Atilde" unicode="&#xc3;" horiz-adv-x="629" 
d="M355 811q-25 0 -41 -19q-11 -14 -22 -5l-24 20q-11 8 -4 21q37 60 92 60q26 0 60 -23q25 -19 44 -19q24 0 39 20q12 14 23 5l24 -18q11 -8 3 -22q-41 -62 -97 -62q-24 0 -60 25q-21 17 -37 17zM476 0q-13 0 -16 13l-17 103q0 5 -6 5h-254q-5 0 -8 -5l-42 -103
q-6 -13 -20 -13h-88q-17 0 -10 18l290 669q6 13 19 13h113q13 0 16 -13l126 -669q3 -18 -14 -18h-89zM218 219q-3 -7 4 -7h198q6 0 6 7l-59 340q-3 6 -7 0z" />
    <glyph glyph-name="Adieresis" unicode="&#xc4;" horiz-adv-x="629" 
d="M299 770q-27 0 -42 17t-11 45q3 27 22 44.5t46 17.5q26 0 41 -17t11 -45t-22.5 -45t-44.5 -17zM477 770q-27 0 -41.5 17t-11.5 45q4 28 22.5 45t45.5 17t41.5 -17t10.5 -45q-3 -28 -21.5 -45t-45.5 -17zM476 0q-13 0 -16 13l-17 103q0 5 -6 5h-254q-5 0 -8 -5l-42 -103
q-6 -13 -20 -13h-88q-17 0 -10 18l290 669q6 13 19 13h113q13 0 16 -13l126 -669q3 -18 -14 -18h-89zM218 219q-3 -7 4 -7h198q6 0 6 7l-59 340q-3 6 -7 0z" />
    <glyph glyph-name="Aring" unicode="&#xc5;" horiz-adv-x="629" 
d="M385 752q-44 0 -71 31.5t-21 76.5q5 46 40 77t79 31t71 -31t21 -77q-5 -45 -40 -76.5t-79 -31.5zM405 914q-22 0 -39 -15.5t-20 -38.5q-3 -22 10.5 -37.5t35.5 -15.5q21 0 38.5 15.5t20.5 37.5q3 23 -11 38.5t-35 15.5zM476 0q-13 0 -16 13l-17 103q0 5 -6 5h-254
q-5 0 -8 -5l-42 -103q-6 -13 -20 -13h-88q-17 0 -10 18l290 669q6 13 19 13h113q13 0 16 -13l126 -669q3 -18 -14 -18h-89zM218 219q-3 -7 4 -7h198q6 0 6 7l-59 340q-3 6 -7 0z" />
    <glyph glyph-name="AE" unicode="&#xc6;" horiz-adv-x="918" 
d="M930 616q-2 -16 -17 -16h-311q-6 0 -6 -6l-23 -185q0 -6 5 -6h202q16 0 13 -16l-8 -68q-2 -16 -17 -16h-202q-6 0 -7 -6l-23 -191q-2 -6 5 -6h310q16 0 14 -16l-8 -68q-3 -16 -18 -16h-413q-16 0 -14 16l12 99q2 6 -5 6h-209q-6 0 -7 -4l-65 -105q-8 -12 -20 -12h-91
q-8 0 -10.5 5.5t2.5 13.5l415 669q8 12 20 12h471q16 0 14 -16zM266 219q-4 -7 3 -7h162q6 0 6 6l41 336q1 5 -1.5 5.5t-4.5 -3.5z" />
    <glyph glyph-name="Ccedilla" unicode="&#xc7;" horiz-adv-x="590" 
d="M580 478q-2 -6 -16 -7l-83 -5q-15 -2 -15 5l1 6q8 59 -23.5 95t-90.5 36t-99 -36t-48 -95l-31 -255q-7 -58 24.5 -94t90.5 -36q58 0 98 35.5t48 94.5q0 13 16 11l81 -4q4 0 6.5 -0.5l5 -1t3 -1.5t0.5 -2v-5q-12 -96 -78 -157t-165 -69q-10 -2 -4 -8q46 -52 24 -108
q-13 -32 -40.5 -48t-54 -14t-50.5 7q-13 5 -8 19l8 31q5 15 20 12q43 -11 56 25q14 38 -43 88l-6 3q-78 20 -116.5 80t-27.5 147l30 247q13 106 87.5 170t184.5 64t169 -62t46 -163v-5z" />
    <glyph glyph-name="Egrave" unicode="&#xc8;" horiz-adv-x="574" 
d="M416 795q3 -8 -1.5 -13.5t-12.5 -5.5h-63q-13 0 -17 10l-51 96q-4 8 -0.5 13.5t12.5 5.5h77q12 0 17 -11zM587 616q-2 -16 -18 -16h-326q-6 0 -6 -6l-23 -185q0 -6 5 -6h218q15 0 13 -16l-8 -68q-3 -16 -18 -16h-217q-5 0 -7 -6l-23 -191q0 -6 5 -6h326q16 0 14 -16
l-9 -68q-2 -16 -17 -16h-429q-16 0 -14 16l82 668q3 16 18 16h429q15 0 13 -16z" />
    <glyph glyph-name="Eacute" unicode="&#xc9;" horiz-adv-x="574" 
d="M483 901q10 0 12 -5.5t-5 -13.5l-73 -96q-7 -10 -20 -10h-63q-9 0 -12 5.5t3 13.5l62 95q6 11 19 11h77zM587 616q-2 -16 -18 -16h-326q-6 0 -6 -6l-23 -185q0 -6 5 -6h218q15 0 13 -16l-8 -68q-3 -16 -18 -16h-217q-5 0 -7 -6l-23 -191q0 -6 5 -6h326q16 0 14 -16
l-9 -68q-2 -16 -17 -16h-429q-16 0 -14 16l82 668q3 16 18 16h429q15 0 13 -16z" />
    <glyph glyph-name="Ecircumflex" unicode="&#xca;" horiz-adv-x="574" 
d="M386 846q-2 6 -8 0l-50 -64q-9 -10 -20 -10h-57q-10 0 -12 6t5 13l82 98q9 10 20 10h84q10 0 17 -10l60 -97q5 -8 1 -14t-14 -6h-56q-11 0 -17 10zM587 616q-2 -16 -18 -16h-326q-6 0 -6 -6l-23 -185q0 -6 5 -6h218q15 0 13 -16l-8 -68q-3 -16 -18 -16h-217q-5 0 -7 -6
l-23 -191q0 -6 5 -6h326q16 0 14 -16l-9 -68q-2 -16 -17 -16h-429q-16 0 -14 16l82 668q3 16 18 16h429q15 0 13 -16z" />
    <glyph glyph-name="Edieresis" unicode="&#xcb;" horiz-adv-x="574" 
d="M286 782q-27 0 -42 17t-11 45q3 28 22 45t46 17q26 0 40.5 -17t11.5 -45q-4 -28 -22.5 -45t-44.5 -17zM464 782q-27 0 -41.5 17t-11.5 45q4 28 22.5 45t45.5 17t41.5 -17t10.5 -45q-3 -28 -21.5 -45t-45.5 -17zM587 616q-2 -16 -18 -16h-326q-6 0 -6 -6l-23 -185
q0 -6 5 -6h218q15 0 13 -16l-8 -68q-3 -16 -18 -16h-217q-5 0 -7 -6l-23 -191q0 -6 5 -6h326q16 0 14 -16l-9 -68q-2 -16 -17 -16h-429q-16 0 -14 16l82 668q3 16 18 16h429q15 0 13 -16z" />
    <glyph glyph-name="Igrave" unicode="&#xcc;" horiz-adv-x="254" 
d="M245 795q4 -8 -0.5 -13.5t-13.5 -5.5h-63q-12 0 -17 10l-50 96q-5 8 -1.5 13.5t13.5 5.5h76q12 0 17 -11zM67 0q-16 0 -14 16l82 668q3 16 18 16h81q16 0 14 -16l-82 -668q-2 -16 -18 -16h-81z" />
    <glyph glyph-name="Iacute" unicode="&#xcd;" horiz-adv-x="254" 
d="M163 776q-8 0 -11 5.5t2 13.5l62 95q8 11 20 11h76q10 0 12 -5.5t-4 -13.5l-74 -96q-8 -10 -20 -10h-63zM67 0q-16 0 -14 16l82 668q3 16 18 16h81q16 0 14 -16l-82 -668q-2 -16 -18 -16h-81z" />
    <glyph glyph-name="Icircumflex" unicode="&#xce;" horiz-adv-x="254" 
d="M80 772q-9 0 -11.5 6t4.5 13l83 98q7 10 19 10h84q10 0 17 -10l60 -97q4 -8 0.5 -14t-12.5 -6h-57q-11 0 -17 10l-35 64q-1 2 -3 2t-4 -2l-51 -64q-9 -10 -20 -10h-57zM67 0q-16 0 -14 16l82 668q3 16 18 16h81q16 0 14 -16l-82 -668q-2 -16 -18 -16h-81z" />
    <glyph glyph-name="Idieresis" unicode="&#xcf;" horiz-adv-x="254" 
d="M115 782q-27 0 -42 17.5t-11 44.5q3 28 22.5 45t46.5 17q26 0 40.5 -17t10.5 -45q-3 -28 -22 -45t-45 -17zM293 782q-27 0 -41.5 17t-11.5 45q4 28 22.5 45t45.5 17t41.5 -17t11.5 -45q-4 -28 -22.5 -45t-45.5 -17zM67 0q-16 0 -14 16l82 668q3 16 18 16h81q16 0 14 -16
l-82 -668q-2 -16 -18 -16h-81z" />
    <glyph glyph-name="Eth" unicode="&#xd0;" horiz-adv-x="654" 
d="M440 700q105 0 161 -55.5t45 -149.5l-36 -290q-11 -94 -81 -149.5t-175 -55.5h-233q-16 0 -13 16l37 300q0 6 -6 6h-33q-15 0 -13 16l6 48q2 16 17 16h33q5 0 7 6l34 276q2 16 17 16h233zM500 223l31 253q7 57 -20 90.5t-79 33.5h-134q-6 0 -7 -6l-23 -186q0 -6 5 -6h85
q16 0 13 -16l-6 -48q-2 -16 -17 -16h-84q-6 0 -7 -6l-26 -210q0 -6 5 -6h135q51 0 86.5 33.5t42.5 89.5z" />
    <glyph glyph-name="Ntilde" unicode="&#xd1;" horiz-adv-x="644" 
d="M458 781q-26 0 -60 25q-21 17 -38 17q-25 0 -41 -19q-11 -14 -22 -5l-24 20q-12 8 -3 21q35 60 92 60q24 0 59 -23q25 -19 44 -19q24 0 40 20q11 14 22 5l24 -18q11 -8 -2 -29q-39 -55 -91 -55zM67 0q-16 0 -14 16l82 668q3 16 18 16h77q14 0 19 -11l215 -458
q1 -4 3.5 -3t3.5 5l55 451q3 16 18 16h81q16 0 14 -16l-82 -668q-2 -16 -18 -16h-79q-13 0 -18 11l-215 461q-2 4 -4.5 3t-2.5 -5l-55 -454q-1 -16 -18 -16h-80z" />
    <glyph glyph-name="Ograve" unicode="&#xd2;" horiz-adv-x="602" 
d="M418 791q4 -8 -0.5 -13.5t-13.5 -5.5h-63q-12 0 -17 10l-50 96q-5 8 -1.5 13.5t13.5 5.5h76q12 0 17 -11zM280 -10q-110 0 -169.5 67.5t-46.5 178.5l28 228q13 109 89.5 176.5t186.5 67.5q112 0 172 -67t46 -177l-28 -228q-14 -111 -90.5 -178.5t-187.5 -67.5zM292 90
q61 0 103 38.5t50 103.5l28 233q8 64 -24 103.5t-93 39.5t-102 -39t-49 -104l-29 -233q-8 -64 24 -103t92 -39z" />
    <glyph glyph-name="Oacute" unicode="&#xd3;" horiz-adv-x="602" 
d="M336 772q-8 0 -11 5.5t2 13.5l62 95q8 11 20 11h77q9 0 11 -5.5t-4 -13.5l-74 -96q-7 -10 -20 -10h-63zM280 -10q-110 0 -169.5 67.5t-46.5 178.5l28 228q13 109 89.5 176.5t186.5 67.5q112 0 172 -67t46 -177l-28 -228q-14 -111 -90.5 -178.5t-187.5 -67.5zM292 90
q61 0 103 38.5t50 103.5l28 233q8 64 -24 103.5t-93 39.5t-102 -39t-49 -104l-29 -233q-8 -64 24 -103t92 -39z" />
    <glyph glyph-name="Ocircumflex" unicode="&#xd4;" horiz-adv-x="602" 
d="M253 768q-9 0 -11.5 6t4.5 13l83 98q9 10 20 10h83q10 0 17 -10l60 -97q5 -8 1 -14t-13 -6h-56q-12 0 -18 10l-34 64q-4 6 -8 0l-51 -64q-7 -10 -19 -10h-58zM280 -10q-110 0 -169.5 67.5t-46.5 178.5l28 228q13 109 89.5 176.5t186.5 67.5q112 0 172 -67t46 -177
l-28 -228q-14 -111 -90.5 -178.5t-187.5 -67.5zM292 90q61 0 103 38.5t50 103.5l28 233q8 64 -24 103.5t-93 39.5t-102 -39t-49 -104l-29 -233q-8 -64 24 -103t92 -39z" />
    <glyph glyph-name="Otilde" unicode="&#xd5;" horiz-adv-x="602" 
d="M442 777q-26 0 -60 25q-21 17 -38 17q-25 0 -41 -19q-11 -14 -22 -5l-24 20q-12 8 -3 21q35 60 92 60q24 0 59 -23q25 -19 44 -19q24 0 40 20q11 14 22 5l24 -18q11 -8 -2 -29q-39 -55 -91 -55zM280 -10q-110 0 -169.5 67.5t-46.5 178.5l28 228q13 109 89.5 176.5
t186.5 67.5q112 0 172 -67t46 -177l-28 -228q-14 -111 -90.5 -178.5t-187.5 -67.5zM292 90q61 0 103 38.5t50 103.5l28 233q8 64 -24 103.5t-93 39.5t-102 -39t-49 -104l-29 -233q-8 -64 24 -103t92 -39z" />
    <glyph glyph-name="Odieresis" unicode="&#xd6;" horiz-adv-x="602" 
d="M289 778q-27 0 -42 17t-12 45q4 28 23 45t46 17q26 0 40.5 -17t10.5 -45q-3 -27 -21.5 -44.5t-44.5 -17.5zM466 778q-27 0 -41.5 17t-10.5 45q3 28 21.5 45t45.5 17t41.5 -17t11.5 -45q-4 -28 -22.5 -45t-45.5 -17zM280 -10q-110 0 -169.5 67.5t-46.5 178.5l28 228
q13 109 89.5 176.5t186.5 67.5q112 0 172 -67t46 -177l-28 -228q-14 -111 -90.5 -178.5t-187.5 -67.5zM292 90q61 0 103 38.5t50 103.5l28 233q8 64 -24 103.5t-93 39.5t-102 -39t-49 -104l-29 -233q-8 -64 24 -103t92 -39z" />
    <glyph glyph-name="multiply" unicode="&#xd7;" horiz-adv-x="424" 
d="M418 441q9 -11 -3 -22l-110 -100q-5 -5 -1 -8l84 -99q9 -11 -3 -22l-52 -48q-12 -11 -22 0l-84 99q-1 1 -3 1t-4 -1l-111 -101q-11 -11 -21 0l-41 49q-8 12 3 22l111 101q3 3 1 8l-87 101q-10 11 3 22l52 48q13 11 21 0l87 -101q4 -4 8 0l109 100q12 10 21 0z" />
    <glyph glyph-name="Oslash" unicode="&#xd8;" horiz-adv-x="609" 
d="M539 657q-3 -5 0 -8q68 -70 53 -185l-28 -228q-13 -111 -89.5 -178.5t-187.5 -67.5q-71 0 -129 32q-5 3 -8 -2l-29 -49q-7 -12 -20 -12h-44q-19 0 -9 19l54 90q3 4 0 8q-43 63 -31 160l28 228q13 109 89.5 176.5t186.5 67.5q56 0 101 -18q4 -2 8 3l24 41q8 12 20 12h45
q19 0 9 -19zM183 232q-2 -14 -2 -22q0 -4 3 -4.5t5 3.5l231 380q4 6 -2 8q-25 11 -55 11q-61 0 -102.5 -39t-49.5 -104zM451 232l29 233q5 43 -7 72q-3 6 -7 0l-251 -410q-2 -5 1 -8q32 -29 83 -29q62 0 103.5 39t48.5 103z" />
    <glyph glyph-name="Ugrave" unicode="&#xd9;" horiz-adv-x="617" 
d="M427 796q3 -8 -1.5 -13.5t-12.5 -5.5h-63q-13 0 -18 10l-50 96q-9 19 12 19h77q12 0 17 -11zM288 -8q-109 0 -168.5 64.5t-46.5 170.5l57 457q2 16 17 16h82q15 0 13 -16l-56 -459q-8 -59 24 -96t90 -37q59 0 99.5 37t48.5 96l56 459q2 16 17 16h82q16 0 14 -16l-57 -457
q-13 -106 -87.5 -170.5t-184.5 -64.5z" />
    <glyph glyph-name="Uacute" unicode="&#xda;" horiz-adv-x="617" 
d="M345 777q-9 0 -12 5.5t2 13.5l62 95q8 11 20 11h77q21 0 7 -19l-74 -96q-6 -10 -19 -10h-63zM288 -8q-109 0 -168.5 64.5t-46.5 170.5l57 457q2 16 17 16h82q15 0 13 -16l-56 -459q-8 -59 24 -96t90 -37q59 0 99.5 37t48.5 96l56 459q2 16 17 16h82q16 0 14 -16l-57 -457
q-13 -106 -87.5 -170.5t-184.5 -64.5z" />
    <glyph glyph-name="Ucircumflex" unicode="&#xdb;" horiz-adv-x="617" 
d="M262 773q-10 0 -12.5 5.5t4.5 13.5l83 98q9 10 20 10h83q10 0 18 -10l59 -97q5 -7 1.5 -13.5t-13.5 -6.5h-56q-11 0 -17 10l-35 64q-4 6 -8 0l-50 -64q-9 -10 -20 -10h-57zM288 -8q-109 0 -168.5 64.5t-46.5 170.5l57 457q2 16 17 16h82q15 0 13 -16l-56 -459
q-8 -59 24 -96t90 -37q59 0 99.5 37t48.5 96l56 459q2 16 17 16h82q16 0 14 -16l-57 -457q-13 -106 -87.5 -170.5t-184.5 -64.5z" />
    <glyph glyph-name="Udieresis" unicode="&#xdc;" horiz-adv-x="617" 
d="M297 783q-27 0 -42 17t-12 45q4 28 23 45t46 17q26 0 40.5 -17t11.5 -45q-4 -28 -22.5 -45t-44.5 -17zM474 783q-26 0 -41 17t-11 45q3 28 22 45t46 17t41.5 -17t10.5 -45q-3 -28 -22 -45t-46 -17zM288 -8q-109 0 -168.5 64.5t-46.5 170.5l57 457q2 16 17 16h82
q15 0 13 -16l-56 -459q-8 -59 24 -96t90 -37q59 0 99.5 37t48.5 96l56 459q2 16 17 16h82q16 0 14 -16l-57 -457q-13 -106 -87.5 -170.5t-184.5 -64.5z" />
    <glyph glyph-name="Yacute" unicode="&#xdd;" horiz-adv-x="581" 
d="M325 764q-9 0 -12 5.5t2 13.5l62 95q8 11 20 11h77q9 0 11 -5.5t-4 -13.5l-74 -96q-6 -10 -19 -10h-63zM230 1q-16 0 -14 16l33 263q0 1 -0.5 3.5t-0.5 3.5l-148 394q-7 19 13 19h88q12 0 17 -12l99 -275q4 -8 8 0l168 275q7 12 20 12h89q20 0 8 -19l-246 -394
q-1 -3 -3 -7l-32 -263q-2 -16 -18 -16h-81z" />
    <glyph glyph-name="Thorn" unicode="&#xde;" horiz-adv-x="559" 
d="M374 555q92 0 141.5 -57.5t38.5 -149.5q-11 -90 -77.5 -146.5t-157.5 -56.5h-137q-6 0 -7 -6l-15 -123q-2 -16 -17 -16h-82q-16 0 -13 16l82 668q2 16 17 16h82q15 0 13 -16l-15 -123q0 -6 5 -6h142zM319 240q50 0 83 28t39 78q7 50 -20 79.5t-76 29.5h-125q-6 0 -7 -6
l-25 -203q0 -6 5 -6h126z" />
    <glyph glyph-name="germandbls" unicode="&#xdf;" horiz-adv-x="585" 
d="M57 1q-15 0 -13 16l58 476q13 101 81 158t173 57q110 0 167 -50.5t47 -139.5q-11 -96 -90 -137q-8 -3 -1 -8q35 -21 52 -66t10 -105q-12 -97 -83.5 -149.5t-199.5 -52.5h-42q-15 0 -13 16l8 67q2 16 17 16h58q63 0 100 30t44 84q14 114 -104 116h-55q-16 0 -13 16l7 60
q2 16 18 16h57q52 0 82.5 25.5t34.5 68.5q5 43 -20.5 68.5t-84.5 25.5q-51 0 -90.5 -28t-45.5 -77l-60 -488q-2 -16 -17 -16z" />
    <glyph glyph-name="agrave" unicode="&#xe0;" horiz-adv-x="534" 
d="M361 594q3 -8 -1 -13.5t-13 -5.5h-63q-12 0 -17 10l-50 96q-5 8 -1.5 13.5t13.5 5.5h76q12 0 17 -11zM402 495q2 16 18 16h81q16 0 14 -16l-59 -479q-2 -16 -18 -16h-81q-16 0 -14 16l3 24q1 4 -1.5 5t-4.5 -2q-48 -51 -116 -51t-111.5 37.5t-57.5 102.5q-11 57 -2 125
q8 70 31 122q30 66 82.5 103t122.5 37q66 0 104 -47q5 -8 7 2zM335 140q27 39 37 116q9 78 -10 119q-20 44 -67 44q-50 0 -83 -42q-34 -45 -43 -122q-9 -72 9 -114q20 -48 76 -48q48 0 81 47z" />
    <glyph glyph-name="aacute" unicode="&#xe1;" horiz-adv-x="534" 
d="M428 700q10 0 12 -5.5t-4 -13.5l-74 -96q-8 -10 -20 -10h-63q-8 0 -11 5.5t2 13.5l62 95q8 11 20 11h76zM402 495q2 16 18 16h81q16 0 14 -16l-59 -479q-2 -16 -18 -16h-81q-16 0 -14 16l3 24q1 4 -1.5 5t-4.5 -2q-48 -51 -116 -51t-111.5 37.5t-57.5 102.5
q-11 57 -2 125q8 70 31 122q30 66 82.5 103t122.5 37q66 0 104 -47q5 -8 7 2zM335 140q27 39 37 116q9 78 -10 119q-20 44 -67 44q-50 0 -83 -42q-34 -45 -43 -122q-9 -72 9 -114q20 -48 76 -48q48 0 81 47z" />
    <glyph glyph-name="acircumflex" unicode="&#xe2;" horiz-adv-x="534" 
d="M331 645q-1 2 -3 2t-4 -2l-51 -64q-9 -10 -20 -10h-57q-9 0 -11.5 5.5t4.5 13.5l83 98q7 10 19 10h84q10 0 17 -10l60 -97q4 -7 0.5 -13.5t-12.5 -6.5h-57q-11 0 -17 10zM402 495q2 16 18 16h81q16 0 14 -16l-59 -479q-2 -16 -18 -16h-81q-16 0 -14 16l3 24q1 4 -1.5 5
t-4.5 -2q-48 -51 -116 -51t-111.5 37.5t-57.5 102.5q-11 57 -2 125q8 70 31 122q30 66 82.5 103t122.5 37q66 0 104 -47q5 -8 7 2zM335 140q27 39 37 116q9 78 -10 119q-20 44 -67 44q-50 0 -83 -42q-34 -45 -43 -122q-9 -72 9 -114q20 -48 76 -48q48 0 81 47z" />
    <glyph glyph-name="atilde" unicode="&#xe3;" horiz-adv-x="534" 
d="M287 622q-25 0 -41 -19q-11 -14 -22 -5l-24 20q-12 8 -3 21q35 60 92 60q25 0 59 -23q25 -19 44 -19q24 0 39 20q12 14 23 5l24 -18q11 -8 3 -22q-41 -62 -96 -62q-26 0 -60 25q-21 17 -38 17zM402 495q2 16 18 16h81q16 0 14 -16l-59 -479q-2 -16 -18 -16h-81
q-16 0 -14 16l3 24q1 4 -1.5 5t-4.5 -2q-48 -51 -116 -51t-111.5 37.5t-57.5 102.5q-11 57 -2 125q8 70 31 122q30 66 82.5 103t122.5 37q66 0 104 -47q5 -8 7 2zM335 140q27 39 37 116q9 78 -10 119q-20 44 -67 44q-50 0 -83 -42q-34 -45 -43 -122q-9 -72 9 -114
q20 -48 76 -48q48 0 81 47z" />
    <glyph glyph-name="adieresis" unicode="&#xe4;" horiz-adv-x="534" 
d="M231 581q-27 0 -42 17t-11 45q3 28 22.5 45t46.5 17q26 0 40.5 -17t10.5 -45q-3 -28 -22 -45t-45 -17zM409 581q-27 0 -41.5 17t-11.5 45q4 28 22.5 45t45.5 17t41.5 -17t11.5 -45q-4 -28 -22.5 -45t-45.5 -17zM402 495q2 16 18 16h81q16 0 14 -16l-59 -479
q-2 -16 -18 -16h-81q-16 0 -14 16l3 24q1 4 -1.5 5t-4.5 -2q-48 -51 -116 -51t-111.5 37.5t-57.5 102.5q-11 57 -2 125q8 70 31 122q30 66 82.5 103t122.5 37q66 0 104 -47q5 -8 7 2zM335 140q27 39 37 116q9 78 -10 119q-20 44 -67 44q-50 0 -83 -42q-34 -45 -43 -122
q-9 -72 9 -114q20 -48 76 -48q48 0 81 47z" />
    <glyph glyph-name="aring" unicode="&#xe5;" horiz-adv-x="534" 
d="M317 563q-44 0 -70.5 31.5t-21.5 76.5q5 46 40 77t79 31t71 -31t21 -77q-5 -45 -39.5 -76.5t-79.5 -31.5zM337 725q-22 0 -39 -15.5t-20 -38.5q-2 -22 11 -37.5t35 -15.5q21 0 38.5 15.5t20.5 37.5q3 23 -11 38.5t-35 15.5zM402 495q2 16 18 16h81q16 0 14 -16l-59 -479
q-2 -16 -18 -16h-81q-16 0 -14 16l3 24q1 4 -1.5 5t-4.5 -2q-48 -51 -116 -51t-111.5 37.5t-57.5 102.5q-11 57 -2 125q8 70 31 122q30 66 82.5 103t122.5 37q66 0 104 -47q5 -8 7 2zM335 140q27 39 37 116q9 78 -10 119q-20 44 -67 44q-50 0 -83 -42q-34 -45 -43 -122
q-9 -72 9 -114q20 -48 76 -48q48 0 81 47z" />
    <glyph glyph-name="ae" unicode="&#xe6;" horiz-adv-x="812" 
d="M194 -8q-81 0 -127 36t-37 110q8 74 66 118t154 44h103q5 0 7 6l3 25q5 40 -16 64t-67 24q-70 0 -94 -47q-6 -14 -19 -13l-81 11q-16 2 -11 18q17 57 77 94t136 37q53 0 93 -23t55 -55q4 -5 8 0q23 31 67 54.5t92 23.5q67 0 118 -39.5t61 -105.5q8 -41 -4 -143
q-2 -17 -17 -17h-291q-6 0 -7 -6q0 -4 -2 -29q1 -40 30.5 -61t77.5 -21q69 0 110 50q10 15 22 5l42 -37q11 -9 2 -22q-32 -44 -85.5 -72.5t-116.5 -28.5q-53 0 -93.5 22t-56.5 56q-5 4 -7 2q-27 -36 -78.5 -58t-113.5 -22zM474 306q0 -6 5 -6h189q6 0 6 6q2 22 0 37
q-4 34 -26.5 55t-59.5 21t-64.5 -20.5t-40.5 -55.5q-6 -22 -9 -37zM220 80q46 0 82 24t41 69l5 35q0 6 -6 6h-80q-110 0 -119 -67q-4 -30 17.5 -48.5t59.5 -18.5z" />
    <glyph glyph-name="ccedilla" unicode="&#xe7;" horiz-adv-x="515" 
d="M365 163l2 5q2 5 8 10t12 4l79 -13q15 -3 11 -18q-5 -16 -7 -20q-22 -54 -70 -89.5t-110 -46.5q-3 0 -4 -2.5t1 -4.5q48 -53 27 -111q-13 -32 -41 -48t-54.5 -14t-50.5 7q-11 4 -8 19l9 31q4 15 19 12q43 -11 56 25q12 37 -39 85l-6 3q-55 11 -91.5 48t-47.5 93
q-11 46 -1 120q8 69 30 118q29 66 88 104.5t134 38.5q76 0 127.5 -39t62.5 -98q3 -18 2 -28q1 -15 -15 -18l-82 -13q-15 -3 -15 12l-2 13q-3 30 -27.5 50.5t-62.5 20.5t-65.5 -19.5t-40.5 -53.5q-14 -33 -21 -89q-7 -57 -2 -89q12 -76 89 -76q37 0 65.5 19.5t40.5 51.5z" />
    <glyph glyph-name="egrave" unicode="&#xe8;" horiz-adv-x="526" 
d="M356 602q4 -8 -0.5 -13.5t-13.5 -5.5h-63q-12 0 -17 10l-50 96q-5 8 -1.5 13.5t13.5 5.5h76q12 0 17 -11zM274 90q71 3 112 55q11 14 22 5l42 -38q10 -10 2 -22q-72 -98 -201 -98q-77 0 -124 37.5t-62 104.5q-13 57 -4 124q8 68 23 106q27 71 87 113t137 42
q182 0 187 -205q2 -38 -3 -82q-2 -16 -17 -16h-301q-6 0 -7 -6q-2 -29 1 -44q6 -36 33.5 -56t72.5 -20zM295 419q-74 0 -102 -70q-6 -12 -13 -42q-2 -6 4 -6h195q5 0 7 6q0 27 -1 36q-5 35 -28.5 55.5t-61.5 20.5z" />
    <glyph glyph-name="eacute" unicode="&#xe9;" horiz-adv-x="526" 
d="M424 708q9 0 11 -5.5t-4 -13.5l-74 -96q-7 -10 -20 -10h-63q-8 0 -11 5.5t2 13.5l62 95q8 11 20 11h77zM274 90q71 3 112 55q11 14 22 5l42 -38q10 -10 2 -22q-72 -98 -201 -98q-77 0 -124 37.5t-62 104.5q-13 57 -4 124q8 68 23 106q27 71 87 113t137 42q182 0 187 -205
q2 -38 -3 -82q-2 -16 -17 -16h-301q-6 0 -7 -6q-2 -29 1 -44q6 -36 33.5 -56t72.5 -20zM295 419q-74 0 -102 -70q-6 -12 -13 -42q-2 -6 4 -6h195q5 0 7 6q0 27 -1 36q-5 35 -28.5 55.5t-61.5 20.5z" />
    <glyph glyph-name="ecircumflex" unicode="&#xea;" horiz-adv-x="526" 
d="M327 653q-4 6 -8 0l-51 -64q-7 -10 -19 -10h-58q-9 0 -11.5 5.5t4.5 13.5l83 98q9 10 20 10h83q10 0 17 -10l60 -97q5 -7 1 -13.5t-13 -6.5h-56q-12 0 -18 10zM274 90q71 3 112 55q11 14 22 5l42 -38q10 -10 2 -22q-72 -98 -201 -98q-77 0 -124 37.5t-62 104.5
q-13 57 -4 124q8 68 23 106q27 71 87 113t137 42q182 0 187 -205q2 -38 -3 -82q-2 -16 -17 -16h-301q-6 0 -7 -6q-2 -29 1 -44q6 -36 33.5 -56t72.5 -20zM295 419q-74 0 -102 -70q-6 -12 -13 -42q-2 -6 4 -6h195q5 0 7 6q0 27 -1 36q-5 35 -28.5 55.5t-61.5 20.5z" />
    <glyph glyph-name="edieresis" unicode="&#xeb;" horiz-adv-x="526" 
d="M227 589q-27 0 -42 17t-12 45q4 28 23 45t46 17q26 0 40.5 -17t10.5 -45q-3 -27 -21.5 -44.5t-44.5 -17.5zM404 589q-27 0 -41.5 17t-10.5 45q3 28 21.5 45t45.5 17t41.5 -17t11.5 -45q-4 -28 -22.5 -45t-45.5 -17zM274 90q71 3 112 55q11 14 22 5l42 -38q10 -10 2 -22
q-72 -98 -201 -98q-77 0 -124 37.5t-62 104.5q-13 57 -4 124q8 68 23 106q27 71 87 113t137 42q182 0 187 -205q2 -38 -3 -82q-2 -16 -17 -16h-301q-6 0 -7 -6q-2 -29 1 -44q6 -36 33.5 -56t72.5 -20zM295 419q-74 0 -102 -70q-6 -12 -13 -42q-2 -6 4 -6h195q5 0 7 6
q0 27 -1 36q-5 35 -28.5 55.5t-61.5 20.5z" />
    <glyph glyph-name="igrave" unicode="&#xec;" horiz-adv-x="227" 
d="M204 605q4 -8 -0.5 -13.5t-13.5 -5.5h-63q-12 0 -17 10l-50 96q-5 8 -1.5 13.5t13.5 5.5h76q12 0 17 -11zM52 0q-15 0 -13 16l59 479q2 16 17 16h82q15 0 13 -16l-59 -479q-2 -16 -17 -16h-82z" />
    <glyph glyph-name="iacute" unicode="&#xed;" horiz-adv-x="227" 
d="M122 586q-8 0 -11 5.5t2 13.5l62 95q8 11 20 11h77q9 0 11 -5.5t-4 -13.5l-74 -96q-7 -10 -20 -10h-63zM52 0q-15 0 -13 16l59 479q2 16 17 16h82q15 0 13 -16l-59 -479q-2 -16 -17 -16h-82z" />
    <glyph glyph-name="icircumflex" unicode="&#xee;" horiz-adv-x="227" 
d="M39 582q-9 0 -11.5 6t4.5 13l83 98q9 10 20 10h83q10 0 17 -10l60 -97q5 -8 1.5 -14t-13.5 -6h-56q-12 0 -18 10l-34 64q-4 6 -8 0l-51 -64q-7 -10 -19 -10h-58zM52 0q-15 0 -13 16l59 479q2 16 17 16h82q15 0 13 -16l-59 -479q-2 -16 -17 -16h-82z" />
    <glyph glyph-name="idieresis" unicode="&#xef;" horiz-adv-x="267" 
d="M95 592q-27 0 -42 17t-11 45q3 28 22 45t46 17q26 0 40.5 -17t11.5 -45q-4 -28 -22.5 -45t-44.5 -17zM273 592q-27 0 -42 17t-11 45t22.5 45t45.5 17t41.5 -17t10.5 -45q-3 -28 -22 -45t-45 -17zM74 0q-16 0 -14 16l59 479q2 16 17 16h82q16 0 13 -16l-58 -479
q-3 -16 -18 -16h-81z" />
    <glyph glyph-name="eth" unicode="&#xf0;" horiz-adv-x="520" 
d="M482 362q4 -53 -5 -124q-9 -70 -26 -112q-29 -60 -87.5 -97t-130.5 -37t-121 36t-63 98q-9 41 -1 111q9 70 29 111q17 41 51 69.5t76 37.5q33 11 81 10t73 -17q5 -2 5 4q-12 43 -36 91q-3 5 -8 3l-93 -26q-15 -5 -17 11l-5 33q-3 14 13 19l63 18q8 2 4 8q-22 30 -59 71
q-6 8 -3 14t13 6h86q12 0 18 -9l42 -58q4 -4 8 -3l77 22q16 5 18 -12l4 -32q1 -15 -13 -19l-47 -13q-7 -2 -4 -7q58 -104 58 -207zM345 153q12 26 18 81q7 53 1 79q-5 33 -26.5 52.5t-56.5 19.5t-61.5 -19.5t-39.5 -52.5q-12 -27 -18 -79q-7 -54 -1 -81q5 -34 26.5 -53.5
t56.5 -19.5q34 0 61 20t40 53z" />
    <glyph glyph-name="ntilde" unicode="&#xf1;" horiz-adv-x="528" 
d="M287 622q-25 0 -41 -19q-11 -14 -22 -5l-24 20q-12 8 -3 21q35 60 92 60q25 0 59 -23q25 -19 44 -19q24 0 39 20q12 14 23 5l24 -18q11 -8 3 -22q-41 -62 -96 -62q-26 0 -60 25q-21 17 -38 17zM342 519q79 0 120.5 -48t31.5 -131l-40 -324q-2 -16 -17 -16h-82
q-16 0 -14 16l37 300q6 46 -16 74.5t-64 28.5q-41 0 -70.5 -28t-35.5 -74l-37 -301q-2 -16 -17 -16h-82q-16 0 -13 16l59 479q2 16 17 16h81q16 0 14 -16l-3 -27q-1 -4 1 -5t5 2q45 54 125 54z" />
    <glyph glyph-name="ograve" unicode="&#xf2;" horiz-adv-x="540" 
d="M364 602q3 -8 -1 -13.5t-13 -5.5h-63q-12 0 -17 10l-51 96q-4 8 -0.5 13.5t12.5 5.5h77q12 0 17 -11zM251 -8q-76 0 -126.5 40t-63.5 111q-10 47 -2 114q8 63 29 114q31 70 91 109t138 39q74 0 123 -39t63 -108q11 -50 3 -114q-8 -62 -30 -114q-31 -71 -90.5 -111.5
t-134.5 -40.5zM263 92q36 0 64.5 21t43.5 59q16 33 21 84q6 49 1 84q-7 38 -30.5 58.5t-60.5 20.5q-77 0 -110 -79q-14 -38 -20 -84q-6 -48 -1 -84q7 -38 31 -59t61 -21z" />
    <glyph glyph-name="oacute" unicode="&#xf3;" horiz-adv-x="540" 
d="M282 583q-9 0 -11.5 5.5t2.5 13.5l62 95q8 11 20 11h76q10 0 12 -5.5t-4 -13.5l-74 -96q-7 -10 -20 -10h-63zM251 -8q-76 0 -126.5 40t-63.5 111q-10 47 -2 114q8 63 29 114q31 70 91 109t138 39q74 0 123 -39t63 -108q11 -50 3 -114q-8 -62 -30 -114
q-31 -71 -90.5 -111.5t-134.5 -40.5zM263 92q36 0 64.5 21t43.5 59q16 33 21 84q6 49 1 84q-7 38 -30.5 58.5t-60.5 20.5q-77 0 -110 -79q-14 -38 -20 -84q-6 -48 -1 -84q7 -38 31 -59t61 -21z" />
    <glyph glyph-name="ocircumflex" unicode="&#xf4;" horiz-adv-x="540" 
d="M199 579q-9 0 -11.5 5.5t4.5 13.5l83 98q7 10 19 10h84q10 0 17 -10l60 -97q5 -7 1 -13.5t-13 -6.5h-57q-11 0 -17 10l-35 64q-1 2 -3.5 2t-3.5 -2l-51 -64q-9 -10 -20 -10h-57zM251 -8q-76 0 -126.5 40t-63.5 111q-10 47 -2 114q8 63 29 114q31 70 91 109t138 39
q74 0 123 -39t63 -108q11 -50 3 -114q-8 -62 -30 -114q-31 -71 -90.5 -111.5t-134.5 -40.5zM263 92q36 0 64.5 21t43.5 59q16 33 21 84q6 49 1 84q-7 38 -30.5 58.5t-60.5 20.5q-77 0 -110 -79q-14 -38 -20 -84q-6 -48 -1 -84q7 -38 31 -59t61 -21z" />
    <glyph glyph-name="otilde" unicode="&#xf5;" horiz-adv-x="540" 
d="M387 588q-24 0 -60 25q-21 17 -37 17q-25 0 -41 -19q-11 -14 -22 -5l-24 20q-12 8 -3 21q35 60 91 60q25 0 60 -23q25 -19 44 -19q24 0 39 20q12 14 23 5l24 -18q11 -8 -2 -29q-39 -55 -92 -55zM251 -8q-76 0 -126.5 40t-63.5 111q-10 47 -2 114q8 63 29 114
q31 70 91 109t138 39q74 0 123 -39t63 -108q11 -50 3 -114q-8 -62 -30 -114q-31 -71 -90.5 -111.5t-134.5 -40.5zM263 92q36 0 64.5 21t43.5 59q16 33 21 84q6 49 1 84q-7 38 -30.5 58.5t-60.5 20.5q-77 0 -110 -79q-14 -38 -20 -84q-6 -48 -1 -84q7 -38 31 -59t61 -21z" />
    <glyph glyph-name="odieresis" unicode="&#xf6;" horiz-adv-x="540" 
d="M234 589q-27 0 -42 17t-11 45q3 28 22.5 45t46.5 17q26 0 40.5 -17.5t10.5 -44.5q-3 -28 -22 -45t-45 -17zM412 589q-27 0 -41.5 17t-11.5 45q4 28 22.5 45t45.5 17t41.5 -17t11.5 -45q-4 -28 -22.5 -45t-45.5 -17zM251 -8q-76 0 -126.5 40t-63.5 111q-10 47 -2 114
q8 63 29 114q31 70 91 109t138 39q74 0 123 -39t63 -108q11 -50 3 -114q-8 -62 -30 -114q-31 -71 -90.5 -111.5t-134.5 -40.5zM263 92q36 0 64.5 21t43.5 59q16 33 21 84q6 49 1 84q-7 38 -30.5 58.5t-60.5 20.5q-77 0 -110 -79q-14 -38 -20 -84q-6 -48 -1 -84q7 -38 31 -59
t61 -21z" />
    <glyph glyph-name="divide" unicode="&#xf7;" horiz-adv-x="476" 
d="M270 425q-25 0 -40.5 19t-12.5 45q3 25 23.5 43.5t45.5 18.5t40.5 -18.5t12.5 -43.5q-3 -26 -23.5 -45t-45.5 -19zM60 266q-16 0 -14 16l9 68q2 16 17 16h382q16 0 14 -16l-9 -68q-2 -16 -17 -16h-382zM230 94q-26 0 -41.5 18.5t-12.5 44.5q4 26 24 44t45 18t41 -18.5
t13 -43.5q-4 -26 -24 -44.5t-45 -18.5z" />
    <glyph glyph-name="oslash" unicode="&#xf8;" horiz-adv-x="548" 
d="M509 372q12 -49 4 -114q-8 -64 -31 -114q-30 -71 -89.5 -111.5t-134.5 -40.5q-64 0 -110 29q-5 3 -8 -2l-40 -51q-11 -12 -22 -3l-32 27q-11 10 -2 22l45 58q4 4 1 8q-15 25 -22 63q-10 47 -2 114q8 63 29 114q31 70 91 109t138 39q51 0 93 -20q5 -2 8 3l35 44
q11 12 22 3l32 -27q12 -10 1 -22l-35 -47q-4 -4 -1 -8q23 -33 30 -73zM179 256q-3 -22 -3 -62q0 -2 1 -3.5t3 -0.5t4 3l164 211q5 5 -1 8q-15 7 -39 7q-76 0 -109 -79q-14 -32 -20 -84zM378 172q14 28 21 84q6 49 1 84q-2 8 -8 1l-177 -225q-3 -6 1 -8q22 -16 54 -16
q74 0 108 80z" />
    <glyph glyph-name="ugrave" unicode="&#xf9;" horiz-adv-x="525" 
d="M352 594q4 -8 -0.5 -13.5t-13.5 -5.5h-63q-12 0 -17 10l-50 96q-5 8 -1.5 13.5t13.5 5.5h76q12 0 18 -11zM394 495q3 16 18 16h80q16 0 14 -16l-59 -479q-2 -16 -17 -16h-81q-16 0 -13 16l3 26q0 4 -2 5t-5 -3q-45 -51 -124 -51q-74 0 -118.5 44t-34.5 125l41 333
q2 16 17 16h82q15 0 13 -16l-37 -300q-5 -47 15 -75t63 -28t73 28t36 75z" />
    <glyph glyph-name="uacute" unicode="&#xfa;" horiz-adv-x="525" 
d="M420 700q9 0 11 -5.5t-4 -13.5l-74 -96q-7 -10 -20 -10h-63q-8 0 -11 5.5t2 13.5l62 95q8 11 20 11h77zM394 495q3 16 18 16h80q16 0 14 -16l-59 -479q-2 -16 -17 -16h-81q-16 0 -13 16l3 26q0 4 -2 5t-5 -3q-45 -51 -124 -51q-74 0 -118.5 44t-34.5 125l41 333
q2 16 17 16h82q15 0 13 -16l-37 -300q-5 -47 15 -75t63 -28t73 28t36 75z" />
    <glyph glyph-name="ucircumflex" unicode="&#xfb;" horiz-adv-x="525" 
d="M323 645q-4 6 -8 0l-51 -64q-7 -10 -19 -10h-58q-9 0 -11.5 5.5t4.5 13.5l83 98q9 10 20 10h83q10 0 17 -10l60 -97q5 -7 1.5 -13.5t-13.5 -6.5h-56q-12 0 -18 10zM394 495q3 16 18 16h80q16 0 14 -16l-59 -479q-2 -16 -17 -16h-81q-16 0 -13 16l3 26q0 4 -2 5t-5 -3
q-45 -51 -124 -51q-74 0 -118.5 44t-34.5 125l41 333q2 16 17 16h82q15 0 13 -16l-37 -300q-5 -47 15 -75t63 -28t73 28t36 75z" />
    <glyph glyph-name="udieresis" unicode="&#xfc;" horiz-adv-x="525" 
d="M223 581q-27 0 -42 17t-12 45q4 28 23 45t46 17q26 0 40.5 -17t10.5 -45q-3 -28 -21.5 -45t-44.5 -17zM400 581q-27 0 -41.5 17t-10.5 45q3 28 22 45t45 17q27 0 41.5 -17t11.5 -45q-4 -28 -22.5 -45t-45.5 -17zM394 495q3 16 18 16h80q16 0 14 -16l-59 -479
q-2 -16 -17 -16h-81q-16 0 -13 16l3 26q0 4 -2 5t-5 -3q-45 -51 -124 -51q-74 0 -118.5 44t-34.5 125l41 333q2 16 17 16h82q15 0 13 -16l-37 -300q-5 -47 15 -75t63 -28t73 28t36 75z" />
    <glyph glyph-name="yacute" unicode="&#xfd;" horiz-adv-x="474" 
d="M249 583q-9 0 -11.5 5.5t2.5 13.5l62 95q8 11 20 11h76q10 0 12 -5.5t-4 -13.5l-74 -96q-8 -10 -20 -10h-63zM7 -199q-7 0 -5 16l8 64q2 16 8 16h6q58 0 85.5 19t51.5 80q1 3 1 8l-99 489q-3 18 15 18h88q14 0 15 -13l55 -331q2 -10 8 0l132 331q6 13 19 13h88
q19 0 10 -18l-234 -521q-32 -71 -59 -104.5t-70 -50t-117 -16.5h-6z" />
    <glyph glyph-name="thorn" unicode="&#xfe;" horiz-adv-x="525" 
d="M496 379q10 -53 1 -122q-8 -70 -33 -125q-29 -65 -82 -102.5t-121 -37.5q-60 0 -96 41q-5 7 -7 -3l-26 -214q-3 -16 -18 -16h-81q-16 0 -14 16l107 868q2 16 17 16h82q15 0 13 -16l-24 -201q-1 -4 1 -4.5t5 1.5q44 39 106 39q70 0 113 -37t57 -103zM343 141q29 43 38 114
q9 78 -14 122q-22 42 -72 42q-47 0 -78 -44q-12 -17 -21 -39q-1 -3 -1 -8l-18 -145q-2 -3 0 -8q3 -20 9 -35q22 -47 70 -47q56 0 87 48z" />
    <glyph glyph-name="ydieresis" unicode="&#xff;" horiz-adv-x="474" 
d="M201 589q-27 0 -42 17t-11 45q3 28 22.5 45t46.5 17q26 0 40.5 -17.5t10.5 -44.5q-3 -28 -22 -45t-45 -17zM379 589q-27 0 -41.5 17t-11.5 45q4 28 22.5 45t45.5 17t41.5 -17t11.5 -45q-4 -28 -22.5 -45t-45.5 -17zM7 -199q-7 0 -5 16l8 64q2 16 8 16h6q58 0 85.5 19
t51.5 80q1 3 1 8l-99 489q-3 18 15 18h88q14 0 15 -13l55 -331q2 -10 8 0l132 331q6 13 19 13h88q19 0 10 -18l-234 -521q-32 -71 -59 -104.5t-70 -50t-117 -16.5h-6z" />
    <glyph glyph-name="Amacron" unicode="&#x100;" horiz-adv-x="629" 
d="M521 852q16 0 13 -16l-6 -48q-2 -16 -17 -16h-245q-16 0 -14 16l6 48q2 16 17 16h246zM476 0q-13 0 -16 13l-17 103q0 5 -6 5h-254q-5 0 -8 -5l-42 -103q-6 -13 -20 -13h-88q-17 0 -10 18l290 669q6 13 19 13h113q13 0 16 -13l126 -669q3 -18 -14 -18h-89zM218 219
q-3 -7 4 -7h198q6 0 6 7l-59 340q-3 6 -7 0z" />
    <glyph glyph-name="amacron" unicode="&#x101;" horiz-adv-x="534" 
d="M453 663q16 0 13 -16l-5 -48q-3 -16 -18 -16h-245q-16 0 -14 16l6 48q2 16 18 16h245zM402 495q2 16 18 16h81q16 0 14 -16l-59 -479q-2 -16 -18 -16h-81q-16 0 -14 16l3 24q1 4 -1.5 5t-4.5 -2q-48 -51 -116 -51t-111.5 37.5t-57.5 102.5q-11 57 -2 125q8 70 31 122
q30 66 82.5 103t122.5 37q66 0 104 -47q5 -8 7 2zM335 140q27 39 37 116q9 78 -10 119q-20 44 -67 44q-50 0 -83 -42q-34 -45 -43 -122q-9 -72 9 -114q20 -48 76 -48q48 0 81 47z" />
    <glyph glyph-name="Abreve" unicode="&#x102;" horiz-adv-x="629" 
d="M384 741q-44 0 -73 28t-30 70q0 17 17 17h31q12 0 15 -15q2 -20 15 -32.5t32 -12.5t35.5 12.5t23.5 32.5q6 15 18 15h30q18 0 13 -16q-10 -43 -46.5 -71t-80.5 -28zM476 0q-13 0 -16 13l-17 103q0 5 -6 5h-254q-5 0 -8 -5l-42 -103q-6 -13 -20 -13h-88q-17 0 -10 18
l290 669q6 13 19 13h113q13 0 16 -13l126 -669q3 -18 -14 -18h-89zM218 219q-3 -7 4 -7h198q6 0 6 7l-59 340q-3 6 -7 0z" />
    <glyph glyph-name="abreve" unicode="&#x103;" horiz-adv-x="534" 
d="M316 552q-44 0 -73 28t-30 70q0 17 17 17h31q12 0 15 -15q2 -20 15 -32.5t32 -12.5t35.5 12.5t23.5 32.5q6 15 18 15h30q17 0 14 -16q-11 -43 -47 -71t-81 -28zM402 495q2 16 18 16h81q16 0 14 -16l-59 -479q-2 -16 -18 -16h-81q-16 0 -14 16l3 24q1 4 -1.5 5t-4.5 -2
q-48 -51 -116 -51t-111.5 37.5t-57.5 102.5q-11 57 -2 125q8 70 31 122q30 66 82.5 103t122.5 37q66 0 104 -47q5 -8 7 2zM335 140q27 39 37 116q9 78 -10 119q-20 44 -67 44q-50 0 -83 -42q-34 -45 -43 -122q-9 -72 9 -114q20 -48 76 -48q48 0 81 47z" />
    <glyph glyph-name="Aogonek" unicode="&#x104;" horiz-adv-x="644" 
d="M483 -96q2 -17 15.5 -23.5t33.5 -1.5q16 3 17 -12l1 -31q0 -15 -13 -19q-25 -5 -52 -7t-51 14t-29 48q-8 64 66 121q9 7 7 7h-2q-13 0 -16 13l-17 103q0 5 -6 5h-254q-5 0 -8 -5l-42 -103q-6 -13 -20 -13h-88q-17 0 -10 18l290 669q6 13 19 13h113q13 0 16 -13l126 -669
q3 -18 -8 -18h-8q-5 0 -10 -4q-74 -52 -70 -92zM218 219q-3 -7 4 -7h198q6 0 6 7l-59 340q-3 6 -7 0z" />
    <glyph glyph-name="aogonek" unicode="&#x105;" horiz-adv-x="582" 
d="M415 -121q16 3 17 -12l1 -31q0 -15 -14 -19q-25 -5 -52 -7t-50.5 14t-28.5 48q-8 64 65 121q9 7 7 7h-3q-16 0 -14 16l3 24q1 4 -1.5 5t-4.5 -2q-48 -51 -116 -51t-111.5 37.5t-57.5 102.5q-11 57 -2 125q8 70 31 122q30 66 82.5 103t122.5 37q66 0 104 -47q5 -8 7 2
l2 21q2 16 18 16h81q16 0 14 -16l-59 -479q-2 -16 -8 -16h-3q-3 0 -7 -2q-76 -52 -72 -94q1 -17 15 -23.5t34 -1.5zM335 140q27 39 37 116q9 78 -10 119q-20 44 -67 44q-50 0 -83 -42q-34 -45 -43 -122q-9 -72 9 -114q20 -48 76 -48q48 0 81 47z" />
    <glyph glyph-name="Cacute" unicode="&#x106;" horiz-adv-x="590" 
d="M333 772q-8 0 -11 5.5t2 13.5l62 95q8 11 20 11h77q9 0 11 -5.5t-4 -13.5l-74 -96q-8 -10 -20 -10h-63zM277 -8q-110 0 -168.5 64.5t-45.5 170.5l30 247q13 106 87.5 170t184.5 64t169 -62t46 -163q-2 -11 -16 -12l-83 -5q-15 -2 -15 5l1 6q8 59 -23.5 95t-90.5 36
t-99 -36t-48 -95l-31 -255q-7 -58 24.5 -94t90.5 -36q58 0 98 35.5t48 94.5q0 13 16 11l81 -4q4 0 6.5 -0.5l5 -1t3 -1.5t0.5 -2v-5q-13 -103 -87 -165t-184 -62z" />
    <glyph glyph-name="cacute" unicode="&#x107;" horiz-adv-x="515" 
d="M277 583q-8 0 -11 5.5t2 13.5l62 95q8 11 20 11h76q10 0 12 -5.5t-4 -13.5l-74 -96q-8 -10 -20 -10h-63zM246 -8q-74 0 -123.5 39.5t-62.5 106.5q-11 46 -1 120q8 69 30 118q29 66 88 104.5t134 38.5q76 0 127.5 -39t62.5 -98q3 -18 2 -28q1 -15 -15 -18l-82 -13
q-15 -3 -15 12l-2 13q-3 30 -27.5 50.5t-62.5 20.5t-65.5 -19.5t-40.5 -53.5q-14 -33 -21 -89q-7 -57 -2 -89q12 -76 89 -76q37 0 65.5 19.5t40.5 51.5l2 5q2 5 8 10t12 4l79 -13q15 -3 11 -18q-5 -16 -7 -20q-27 -64 -88 -101.5t-136 -37.5z" />
    <glyph glyph-name="Cdotaccent" unicode="&#x10a;" horiz-adv-x="590" 
d="M373 769q-25 0 -39 16.5t-10 41.5q3 25 20.5 41t42.5 16t38 -15.5t10 -41.5t-20 -42t-42 -16zM277 -8q-110 0 -168.5 64.5t-45.5 170.5l30 247q13 106 87.5 170t184.5 64t169 -62t46 -163q-2 -11 -16 -12l-83 -5q-15 -2 -15 5l1 6q8 59 -23.5 95t-90.5 36t-99 -36
t-48 -95l-31 -255q-7 -58 24.5 -94t90.5 -36q58 0 98 35.5t48 94.5q0 13 16 11l81 -4q4 0 6.5 -0.5l5 -1t3 -1.5t0.5 -2v-5q-13 -103 -87 -165t-184 -62z" />
    <glyph glyph-name="cdotaccent" unicode="&#x10b;" horiz-adv-x="515" 
d="M317 580q-25 0 -39 16.5t-11 41.5q4 25 21.5 41t42.5 16t38 -15.5t10 -41.5t-20 -42t-42 -16zM246 -8q-74 0 -123.5 39.5t-62.5 106.5q-11 46 -1 120q8 69 30 118q29 66 88 104.5t134 38.5q76 0 127.5 -39t62.5 -98q3 -18 2 -28q1 -15 -15 -18l-82 -13q-15 -3 -15 12
l-2 13q-3 30 -27.5 50.5t-62.5 20.5t-65.5 -19.5t-40.5 -53.5q-14 -33 -21 -89q-7 -57 -2 -89q12 -76 89 -76q37 0 65.5 19.5t40.5 51.5l2 5q2 5 8 10t12 4l79 -13q15 -3 11 -18q-5 -16 -7 -20q-27 -64 -88 -101.5t-136 -37.5z" />
    <glyph glyph-name="Ccaron" unicode="&#x10c;" horiz-adv-x="590" 
d="M325 762q-11 0 -17 10l-54 98q-4 8 0 13.5t13 5.5h56q11 0 17 -10l35 -64q1 -2 3 -2t4 2l51 64q9 10 20 10h54q9 0 11 -5.5t-4 -13.5l-78 -98q-7 -10 -19 -10h-92zM277 -8q-110 0 -168.5 64.5t-45.5 170.5l30 247q13 106 87.5 170t184.5 64t169 -62t46 -163
q-2 -11 -16 -12l-83 -5q-15 -2 -15 5l1 6q8 59 -23.5 95t-90.5 36t-99 -36t-48 -95l-31 -255q-7 -58 24.5 -94t90.5 -36q58 0 98 35.5t48 94.5q0 13 16 11l81 -4q4 0 6.5 -0.5l5 -1t3 -1.5t0.5 -2v-5q-13 -103 -87 -165t-184 -62z" />
    <glyph glyph-name="ccaron" unicode="&#x10d;" horiz-adv-x="515" 
d="M269 573q-11 0 -17 10l-54 98q-4 8 -0.5 13.5t13.5 5.5h55q12 0 18 -10l34 -64q4 -6 8 0l51 64q7 10 19 10h55q9 0 11 -5.5t-4 -13.5l-78 -98q-9 -10 -20 -10h-91zM246 -8q-74 0 -123.5 39.5t-62.5 106.5q-11 46 -1 120q8 69 30 118q29 66 88 104.5t134 38.5
q76 0 127.5 -39t62.5 -98q3 -18 2 -28q1 -15 -15 -18l-82 -13q-15 -3 -15 12l-2 13q-3 30 -27.5 50.5t-62.5 20.5t-65.5 -19.5t-40.5 -53.5q-14 -33 -21 -89q-7 -57 -2 -89q12 -76 89 -76q37 0 65.5 19.5t40.5 51.5l2 5q2 5 8 10t12 4l79 -13q15 -3 11 -18q-5 -16 -7 -20
q-27 -64 -88 -101.5t-136 -37.5z" />
    <glyph glyph-name="Dcaron" unicode="&#x10e;" horiz-adv-x="599" 
d="M322 755q-12 0 -18 10l-54 98q-4 8 0 13.5t13 5.5h56q11 0 17 -10l35 -65q1 -2 3 -2t4 2l51 65q9 10 20 10h54q10 0 12 -5.5t-5 -13.5l-78 -98q-7 -10 -19 -10h-91zM67 0q-16 0 -14 16l82 668q3 16 18 16h233q105 0 161 -56t44 -149l-35 -290q-12 -94 -82 -149.5
t-174 -55.5h-233zM177 106q-1 -6 5 -6h135q51 0 86 33.5t42 89.5l32 253q7 57 -20 90.5t-80 33.5h-134q-6 0 -6 -6z" />
    <glyph glyph-name="dcaron" unicode="&#x10f;" horiz-adv-x="664" 
d="M392 470q2 -3 4.5 -2.5t2.5 4.5l26 212q3 16 18 16h81q16 0 14 -16l-82 -668q-2 -16 -18 -16h-81q-16 0 -14 16l4 26q0 4 -2 5t-5 -3q-47 -52 -117 -52q-68 0 -111.5 37.5t-57.5 102.5q-11 57 -2 125q8 70 31 122q30 66 82.5 103t122.5 37q68 0 104 -49zM623 689
q8 11 20 11h76q10 0 12 -5.5t-4 -13.5l-74 -96q-7 -10 -20 -10h-63q-8 0 -11 5.5t2 13.5zM334 140q27 39 37 116q9 78 -10 119q-20 44 -67 44q-50 0 -83 -42q-34 -45 -43 -122q-9 -72 9 -114q20 -48 76 -48q48 0 81 47z" />
    <glyph glyph-name="Dcroat" unicode="&#x110;" horiz-adv-x="654" 
d="M440 700q105 0 161 -55.5t45 -149.5l-36 -290q-11 -94 -81 -149.5t-175 -55.5h-233q-16 0 -13 16l37 300q0 6 -6 6h-33q-15 0 -13 16l6 48q2 16 17 16h33q5 0 7 6l34 276q2 16 17 16h233zM500 223l31 253q7 57 -20 90.5t-79 33.5h-134q-6 0 -7 -6l-23 -186q0 -6 5 -6h85
q16 0 13 -16l-6 -48q-2 -16 -17 -16h-84q-6 0 -7 -6l-26 -210q0 -6 5 -6h135q51 0 86.5 33.5t42.5 89.5z" />
    <glyph glyph-name="dcroat" unicode="&#x111;" horiz-adv-x="582" 
d="M580 635q16 0 14 -16l-5 -40q-2 -16 -17 -16h-43q-5 0 -7 -6l-66 -541q-2 -16 -18 -16h-81q-16 0 -14 16l4 26q0 4 -2 5t-5 -3q-47 -52 -117 -52q-68 0 -111.5 37.5t-57.5 102.5q-11 57 -2 125q8 70 31 122q30 66 82.5 103t122.5 37q68 0 104 -49q2 -3 4.5 -2.5t2.5 4.5
l11 85q0 6 -5 6h-133q-16 0 -14 16l5 40q2 16 18 16h133q6 0 6 6l5 43q3 16 18 16h81q16 0 14 -16l-5 -43q-1 -6 5 -6h42zM334 140q27 39 37 116q9 78 -10 119q-20 44 -67 44q-50 0 -83 -42q-34 -45 -43 -122q-9 -72 9 -114q20 -48 76 -48q48 0 81 47z" />
    <glyph glyph-name="Emacron" unicode="&#x112;" horiz-adv-x="574" 
d="M508 864q15 0 13 -16l-6 -48q-2 -16 -17 -16h-246q-15 0 -13 16l6 48q2 16 17 16h246zM587 616q-2 -16 -18 -16h-326q-6 0 -6 -6l-23 -185q0 -6 5 -6h218q15 0 13 -16l-8 -68q-3 -16 -18 -16h-217q-5 0 -7 -6l-23 -191q0 -6 5 -6h326q16 0 14 -16l-9 -68q-2 -16 -17 -16
h-429q-16 0 -14 16l82 668q3 16 18 16h429q15 0 13 -16z" />
    <glyph glyph-name="emacron" unicode="&#x113;" horiz-adv-x="526" 
d="M448 671q16 0 14 -16l-6 -48q-2 -16 -18 -16h-245q-16 0 -14 16l6 48q2 16 18 16h245zM274 90q71 3 112 55q11 14 22 5l42 -38q10 -10 2 -22q-72 -98 -201 -98q-77 0 -124 37.5t-62 104.5q-13 57 -4 124q8 68 23 106q27 71 87 113t137 42q182 0 187 -205q2 -38 -3 -82
q-2 -16 -17 -16h-301q-6 0 -7 -6q-2 -29 1 -44q6 -36 33.5 -56t72.5 -20zM295 419q-74 0 -102 -70q-6 -12 -13 -42q-2 -6 4 -6h195q5 0 7 6q0 27 -1 36q-5 35 -28.5 55.5t-61.5 20.5z" />
    <glyph glyph-name="Edotaccent" unicode="&#x116;" horiz-adv-x="574" 
d="M373 773q-25 0 -38.5 16t-10.5 42q3 25 20.5 41t42.5 16t38.5 -16t10.5 -41q-3 -26 -20.5 -42t-42.5 -16zM587 616q-2 -16 -18 -16h-326q-6 0 -6 -6l-23 -185q0 -6 5 -6h218q15 0 13 -16l-8 -68q-3 -16 -18 -16h-217q-5 0 -7 -6l-23 -191q0 -6 5 -6h326q16 0 14 -16
l-9 -68q-2 -16 -17 -16h-429q-16 0 -14 16l82 668q3 16 18 16h429q15 0 13 -16z" />
    <glyph glyph-name="edotaccent" unicode="&#x117;" horiz-adv-x="526" 
d="M314 580q-25 0 -39 16.5t-10 41.5q3 25 20.5 41t42.5 16t38 -15.5t10 -41.5t-20 -42t-42 -16zM274 90q71 3 112 55q11 14 22 5l42 -38q10 -10 2 -22q-72 -98 -201 -98q-77 0 -124 37.5t-62 104.5q-13 57 -4 124q8 68 23 106q27 71 87 113t137 42q182 0 187 -205
q2 -38 -3 -82q-2 -16 -17 -16h-301q-6 0 -7 -6q-2 -29 1 -44q6 -36 33.5 -56t72.5 -20zM295 419q-74 0 -102 -70q-6 -12 -13 -42q-2 -6 4 -6h195q5 0 7 6q0 27 -1 36q-5 35 -28.5 55.5t-61.5 20.5z" />
    <glyph glyph-name="Eogonek" unicode="&#x118;" horiz-adv-x="574" 
d="M587 616q-2 -16 -18 -16h-326q-6 0 -6 -6l-23 -185q0 -6 5 -6h218q15 0 13 -16l-8 -68q-3 -16 -18 -16h-217q-5 0 -7 -6l-23 -191q0 -6 5 -6h326q16 0 14 -16l-9 -68q-2 -16 -17 -16h-173q-4 0 -7 -3q-59 -44 -56 -81q2 -17 16 -23.5t34 -1.5q16 3 17 -12l1 -31
q-2 -15 -14 -19q-25 -5 -52 -7t-51 14t-28 48q-8 56 50 109q3 2 2.5 4.5t-4.5 2.5h-164q-16 0 -14 16l82 668q3 16 18 16h429q15 0 13 -16z" />
    <glyph glyph-name="eogonek" unicode="&#x119;" horiz-adv-x="526" 
d="M274 90q71 3 112 55q11 14 22 5l42 -38q10 -10 2 -22q-58 -79 -156 -94q-3 -1 -7 -3q-64 -47 -61 -86q5 -36 49 -25q17 3 17 -12l1 -31q0 -15 -13 -19q-25 -5 -52 -7t-51 14t-28 48q-8 60 55 114q7 5 -1 7q-114 21 -140 138q-13 57 -4 124q8 68 23 106q27 71 87 113
t137 42q182 0 187 -205q2 -38 -3 -82q-2 -16 -17 -16h-301q-6 0 -7 -6q-2 -29 1 -44q6 -36 33.5 -56t72.5 -20zM295 419q-74 0 -102 -70q-6 -12 -13 -42q-2 -6 4 -6h195q5 0 7 6q0 27 -1 36q-5 35 -28.5 55.5t-61.5 20.5z" />
    <glyph glyph-name="Ecaron" unicode="&#x11a;" horiz-adv-x="574" 
d="M437 776q-9 -10 -20 -10h-91q-11 0 -17 10l-54 98q-4 8 -0.5 13.5t13.5 5.5h55q11 0 17 -10l35 -64q4 -6 8 0l50 64q9 10 20 10h54q10 0 12 -5.5t-4 -13.5zM587 616q-2 -16 -18 -16h-326q-6 0 -6 -6l-23 -185q0 -6 5 -6h218q15 0 13 -16l-8 -68q-3 -16 -18 -16h-217
q-5 0 -7 -6l-23 -191q0 -6 5 -6h326q16 0 14 -16l-9 -68q-2 -16 -17 -16h-429q-16 0 -14 16l82 668q3 16 18 16h429q15 0 13 -16z" />
    <glyph glyph-name="ecaron" unicode="&#x11b;" horiz-adv-x="526" 
d="M377 579q-9 -10 -20 -10h-91q-11 0 -17 10l-54 98q-4 8 -0.5 13.5t13.5 5.5h55q11 0 17 -10l35 -65q2 -6 8 0l50 65q9 10 20 10h54q10 0 12 -5.5t-4 -13.5zM274 90q71 3 112 55q11 14 22 5l42 -38q10 -10 2 -22q-72 -98 -201 -98q-77 0 -124 37.5t-62 104.5
q-13 57 -4 124q8 68 23 106q27 71 87 113t137 42q182 0 187 -205q2 -38 -3 -82q-2 -16 -17 -16h-301q-6 0 -7 -6q-2 -29 1 -44q6 -36 33.5 -56t72.5 -20zM295 419q-74 0 -102 -70q-6 -12 -13 -42q-2 -6 4 -6h195q5 0 7 6q0 27 -1 36q-5 35 -28.5 55.5t-61.5 20.5z" />
    <glyph glyph-name="Gbreve" unicode="&#x11e;" horiz-adv-x="588" 
d="M369 749q-44 0 -73 28t-30 70q0 17 18 17h31q13 0 14 -15q2 -20 15 -32.5t32 -12.5t35.5 12.5t23.5 32.5q6 15 18 15h30q17 0 14 -16q-11 -43 -47 -71t-81 -28zM277 -8q-109 0 -168 65t-46 172l30 242q13 107 87.5 172t184.5 65q108 0 167 -62.5t48 -158.5l-1 -4
q-2 -16 -17 -16h-81q-7 0 -11 2.5t-3 6.5l1 8q7 54 -24.5 89t-90.5 35t-99 -36.5t-48 -96.5l-31 -250q-7 -60 26.5 -96.5t93.5 -36.5q57 0 94.5 31.5t44.5 86.5l8 61q0 6 -5 6h-115q-16 0 -13 16l8 66q2 16 17 16h216q16 0 14 -16l-15 -124q-14 -115 -87.5 -179t-184.5 -64z
" />
    <glyph glyph-name="gbreve" unicode="&#x11f;" horiz-adv-x="533" 
d="M326 561q-44 0 -73 28t-30 70q0 17 17 17h31q12 0 15 -15q2 -20 15 -32.5t32 -12.5t35.5 12.5t23.5 32.5q6 15 18 15h30q18 0 13 -16q-10 -43 -46.5 -71t-80.5 -28zM405 495q2 16 18 16h81q16 0 14 -16l-57 -461q-9 -73 -41 -123.5t-80 -74t-101 -31t-114 -1.5
q-13 1 -11 18l12 74q2 16 19 14q96 -9 145 19.5t59 107.5l1 6q0 9 -7 3q-45 -43 -117 -43q-62 0 -110.5 33t-60.5 101q-7 43 2 121q11 84 31 127q27 61 79 97.5t116 36.5q74 0 113 -45q5 -7 7 3zM358 170q11 26 18 89q8 57 3 87q-3 33 -25 53t-58 20q-71 0 -103 -73
q-14 -27 -23 -88q-7 -64 -1 -87q6 -32 29 -52.5t59 -20.5q38 0 64 20t37 52z" />
    <glyph glyph-name="Gdotaccent" unicode="&#x120;" horiz-adv-x="588" 
d="M372 769q-25 0 -38.5 16t-10.5 42q3 25 20.5 41t42.5 16t38 -15.5t10 -41.5t-20 -42t-42 -16zM277 -8q-109 0 -168 65t-46 172l30 242q13 107 87.5 172t184.5 65q108 0 167 -62.5t48 -158.5l-1 -4q-2 -16 -17 -16h-81q-7 0 -11 2.5t-3 6.5l1 8q7 54 -24.5 89t-90.5 35
t-99 -36.5t-48 -96.5l-31 -250q-7 -60 26.5 -96.5t93.5 -36.5q57 0 94.5 31.5t44.5 86.5l8 61q0 6 -5 6h-115q-16 0 -13 16l8 66q2 16 17 16h216q16 0 14 -16l-15 -124q-14 -115 -87.5 -179t-184.5 -64z" />
    <glyph glyph-name="gdotaccent" unicode="&#x121;" horiz-adv-x="533" 
d="M328 581q-25 0 -38.5 16t-10.5 42q3 25 21 41t43 16q24 0 37.5 -16t10.5 -41q-3 -26 -20.5 -42t-42.5 -16zM405 495q2 16 18 16h81q16 0 14 -16l-57 -461q-9 -73 -41 -123.5t-80 -74t-101 -31t-114 -1.5q-13 1 -11 18l12 74q2 16 19 14q96 -9 145 19.5t59 107.5l1 6
q0 9 -7 3q-45 -43 -117 -43q-62 0 -110.5 33t-60.5 101q-7 43 2 121q11 84 31 127q27 61 79 97.5t116 36.5q74 0 113 -45q5 -7 7 3zM358 170q11 26 18 89q8 57 3 87q-3 33 -25 53t-58 20q-71 0 -103 -73q-14 -27 -23 -88q-7 -64 -1 -87q6 -32 29 -52.5t59 -20.5q38 0 64 20
t37 52z" />
    <glyph glyph-name="uni0122" unicode="&#x122;" horiz-adv-x="588" 
d="M277 -8q-109 0 -168 65t-46 172l30 242q13 107 87.5 172t184.5 65q108 0 167 -62.5t48 -158.5l-1 -4q-2 -16 -17 -16h-81q-7 0 -11 2.5t-3 6.5l1 8q7 54 -24.5 89t-90.5 35t-99 -36.5t-48 -96.5l-31 -250q-7 -60 26.5 -96.5t93.5 -36.5q57 0 94.5 31.5t44.5 86.5l8 61
q0 6 -5 6h-115q-16 0 -13 16l8 66q2 16 17 16h216q16 0 14 -16l-15 -124q-14 -115 -87.5 -179t-184.5 -64zM179 -188q-9 0 -12 5.5t2 13.5l62 95q8 11 20 11h77q9 0 11 -5.5t-4 -13.5l-74 -96q-6 -10 -19 -10h-63z" />
    <glyph glyph-name="uni0123" unicode="&#x123;" horiz-adv-x="533" 
d="M419 700q8 0 11 -5.5t-2 -13.5l-62 -95q-8 -11 -20 -11h-77q-9 0 -11 5.5t4 13.5l74 96q8 10 20 10h63zM405 495q2 16 18 16h81q16 0 14 -16l-57 -461q-9 -73 -41 -123.5t-80 -74t-101 -31t-114 -1.5q-13 1 -11 18l12 74q2 16 19 14q96 -9 145 19.5t59 107.5l1 6
q0 9 -7 3q-45 -43 -117 -43q-62 0 -110.5 33t-60.5 101q-7 43 2 121q11 84 31 127q27 61 79 97.5t116 36.5q74 0 113 -45q5 -7 7 3zM358 170q11 26 18 89q8 57 3 87q-3 33 -25 53t-58 20q-71 0 -103 -73q-14 -27 -23 -88q-7 -64 -1 -87q6 -32 29 -52.5t59 -20.5q38 0 64 20
t37 52z" />
    <glyph glyph-name="Hbar" unicode="&#x126;" horiz-adv-x="618" 
d="M647 586q16 0 14 -16l-6 -47q-2 -16 -18 -16h-35q-6 0 -7 -6l-60 -485q-2 -16 -17 -16h-81q-16 0 -14 16l34 281q2 6 -5 6h-245q-5 0 -7 -6l-34 -281q-2 -16 -18 -16h-81q-16 0 -14 16l60 485q0 6 -5 6h-36q-16 0 -14 16l6 47q2 16 18 16h36q6 0 6 6l11 92q3 16 18 16h81
q16 0 14 -16l-11 -92q-1 -6 5 -6h245q5 0 7 6l11 92q2 16 17 16h82q16 0 13 -16l-11 -92q0 -6 5 -6h36zM465 403q6 0 6 6l11 92q2 6 -5 6h-245q-6 0 -7 -6l-11 -92q0 -6 5 -6h246z" />
    <glyph glyph-name="hbar" unicode="&#x127;" horiz-adv-x="528" 
d="M342 519q79 0 120.5 -48t31.5 -131l-40 -324q-2 -16 -17 -16h-82q-16 0 -14 16l37 300q6 46 -16 74.5t-64 28.5q-41 0 -70.5 -28t-35.5 -74l-37 -301q-2 -16 -17 -16h-82q-16 0 -13 16l65 530q0 6 -5 6h-43q-16 0 -14 16l5 40q3 16 18 16h43q6 0 6 6l7 54q2 16 17 16h82
q15 0 13 -16l-6 -54q-1 -6 5 -6h133q15 0 13 -16l-5 -40q-2 -16 -17 -16h-133q-5 0 -7 -6l-9 -78q-1 -4 1 -5t5 2q45 54 125 54z" />
    <glyph glyph-name="Imacron" unicode="&#x12a;" horiz-adv-x="254" 
d="M82 784q-16 0 -14 16l6 48q2 16 18 16h245q16 0 14 -16l-6 -48q-3 -16 -18 -16h-245zM67 0q-16 0 -14 16l82 668q3 16 18 16h81q16 0 14 -16l-82 -668q-2 -16 -18 -16h-81z" />
    <glyph glyph-name="imacron" unicode="&#x12b;" horiz-adv-x="227" 
d="M41 594q-16 0 -14 16l6 48q2 16 18 16h245q16 0 14 -16l-6 -48q-2 -16 -18 -16h-245zM52 0q-15 0 -13 16l59 479q2 16 17 16h82q15 0 13 -16l-59 -479q-2 -16 -17 -16h-82z" />
    <glyph glyph-name="Iogonek" unicode="&#x12e;" horiz-adv-x="296" 
d="M166 -121q15 3 17 -12l1 -31q-2 -15 -14 -19q-25 -5 -52 -7t-51 14t-28 48q-10 64 65 121q5 5 1 7h-10q-16 0 -13 16l82 668q2 16 17 16h81q16 0 14 -16l-82 -672q-1 -12 -13 -19q-68 -49 -65 -89q2 -17 16 -23.5t34 -1.5z" />
    <glyph glyph-name="iogonek" unicode="&#x12f;" horiz-adv-x="257" 
d="M187 583q-25 0 -38.5 16t-10.5 42q3 25 20.5 41t42.5 16t38.5 -16t9.5 -41q-3 -26 -20 -42t-42 -16zM146 -121q16 3 17 -12l1 -31q0 -15 -13 -19q-25 -5 -52 -7t-51 14t-29 48q-8 64 66 121q5 5 1 7h-8q-16 0 -14 16l59 479q2 16 17 16h82q16 0 13 -16l-58 -479l-3 -16
h-1q-80 -53 -76 -96q2 -17 15.5 -23.5t33.5 -1.5z" />
    <glyph glyph-name="Idotaccent" unicode="&#x130;" horiz-adv-x="254" 
d="M203 773q-25 0 -39 16.5t-11 41.5q4 25 21.5 41t42.5 16t38 -15.5t10 -41.5t-20 -42t-42 -16zM67 0q-16 0 -14 16l82 668q3 16 18 16h81q16 0 14 -16l-82 -668q-2 -16 -18 -16h-81z" />
    <glyph glyph-name="dotlessi" unicode="&#x131;" horiz-adv-x="227" 
d="M52 0q-15 0 -13 16l59 479q2 16 17 16h82q15 0 13 -16l-59 -479q-2 -16 -17 -16h-82z" />
    <glyph glyph-name="ij" unicode="&#x133;" horiz-adv-x="474" 
d="M175 575q-32 0 -49.5 20.5t-13.5 52.5t26.5 52t54.5 20t49.5 -20t13.5 -52t-26.5 -52.5t-54.5 -20.5zM409 572q-32 0 -49.5 21t-13.5 52q4 30 28 51t53 21q30 0 49 -21t15 -51q-4 -31 -27 -52t-55 -21zM64 0q-16 0 -14 16l59 479q3 16 18 16h81q16 0 14 -16l-59 -479
q-2 -16 -17 -16h-82zM158 -205q-16 0 -13 16l8 66q2 16 18 15q53 0 78 21.5t31 69.5l63 512q2 16 18 16h81q16 0 14 -16l-63 -511q-13 -106 -64.5 -148t-170.5 -41z" />
    <glyph glyph-name="uni0136" unicode="&#x136;" horiz-adv-x="601" 
d="M67 0q-16 0 -14 16l82 668q3 16 18 16h81q16 0 14 -16l-36 -294q-1 -4 1.5 -4.5t4.5 2.5l287 303q7 9 20 9h93q9 0 11 -6t-5 -14l-252 -275q-4 -4 -1 -8l188 -378q4 -8 0.5 -13.5t-13.5 -5.5h-93q-12 0 -17 11l-152 304q-2 8 -9 1l-80 -85q-3 -5 -4 -7l-25 -208
q-2 -16 -18 -16h-81zM188 -180q-8 0 -11 5.5t2 13.5l62 95q8 11 20 11h77q9 0 11 -5.5t-4 -13.5l-74 -96q-8 -10 -20 -10h-63z" />
    <glyph glyph-name="uni0137" unicode="&#x137;" horiz-adv-x="506" 
d="M56 0q-16 0 -13 16l82 668q2 16 17 16h82q15 0 13 -16l-43 -355q-1 -4 1.5 -5t4.5 2l176 176q9 9 20 9h94q9 0 11.5 -6.5t-4.5 -13.5l-137 -146q-4 -3 -2 -8l104 -318q5 -19 -14 -19h-86q-13 0 -16 12l-74 250q-3 6 -8 1l-87 -91q-3 -4 -3 -7l-19 -149q-2 -16 -17 -16
h-82zM148 -180q-9 0 -12 5.5t2 13.5l62 95q8 11 20 11h77q9 0 11 -5.5t-4 -13.5l-74 -96q-6 -10 -19 -10h-63z" />
    <glyph glyph-name="Lacute" unicode="&#x139;" horiz-adv-x="554" 
d="M161 764q-9 0 -12 5.5t2 13.5l63 95q6 11 19 11h77q21 0 7 -19l-74 -96q-6 -10 -19 -10h-63zM67 0q-16 0 -14 16l82 668q3 16 18 16h81q16 0 14 -16l-71 -578q0 -6 5 -6h320q16 0 14 -16l-9 -68q-2 -16 -17 -16h-423z" />
    <glyph glyph-name="lacute" unicode="&#x13a;" horiz-adv-x="236" 
d="M153 764q-9 0 -12 5.5t3 13.5l62 95q8 11 20 11h76q10 0 12 -5.5t-4 -13.5l-74 -96q-8 -10 -20 -10h-63zM57 0q-16 0 -13 16l82 668q2 16 17 16h82q15 0 13 -16l-82 -668q-2 -16 -17 -16h-82z" />
    <glyph glyph-name="uni013B" unicode="&#x13b;" horiz-adv-x="554" 
d="M67 0q-16 0 -14 16l82 668q3 16 18 16h81q16 0 14 -16l-71 -578q0 -6 5 -6h320q16 0 14 -16l-9 -68q-2 -16 -17 -16h-423zM156 -180q-8 0 -11 5.5t2 13.5l62 95q8 11 20 11h77q9 0 11 -5.5t-4 -13.5l-74 -96q-8 -10 -20 -10h-63z" />
    <glyph glyph-name="uni013C" unicode="&#x13c;" horiz-adv-x="237" 
d="M57 0q-16 0 -13 16l82 668q2 16 17 16h82q15 0 13 -16l-82 -668q-2 -16 -17 -16h-82zM-22 -180q-9 0 -12 5.5t3 13.5l62 95q6 11 19 11h77q10 0 12 -5.5t-5 -13.5l-73 -96q-8 -10 -20 -10h-63z" />
    <glyph glyph-name="Lcaron" unicode="&#x13d;" horiz-adv-x="554" 
d="M152 750q-11 0 -17 10l-54 98q-4 8 -0.5 13.5t13.5 5.5h55q12 0 18 -10l34 -65q4 -6 8 0l51 65q7 10 19 10h55q9 0 11 -5.5t-4 -13.5l-78 -98q-9 -10 -20 -10h-91zM67 0q-16 0 -14 16l82 668q3 16 18 16h81q16 0 14 -16l-71 -578q0 -6 5 -6h320q16 0 14 -16l-9 -68
q-2 -16 -17 -16h-423z" />
    <glyph glyph-name="lcaron" unicode="&#x13e;" horiz-adv-x="236" 
d="M144 750q-11 0 -17 10l-54 98q-4 8 0 13.5t13 5.5h56q11 0 17 -10l35 -65q1 -2 3.5 -2t3.5 2l51 65q9 10 20 10h54q21 0 7 -19l-78 -98q-7 -10 -19 -10h-92zM57 0q-16 0 -13 16l82 668q2 16 17 16h82q15 0 13 -16l-82 -668q-2 -16 -17 -16h-82z" />
    <glyph glyph-name="Lslash" unicode="&#x141;" horiz-adv-x="554" 
d="M177 106q0 -6 5 -6h320q16 0 14 -16l-9 -68q-2 -16 -17 -16h-423q-16 0 -14 16l24 196q1 4 -1 4.5t-5 -1.5l-85 -64q-14 -11 -22 2l-29 43q-9 12 4 22l150 113q4 4 4 7l42 346q3 16 18 16h81q16 0 14 -16l-30 -247q-1 -4 1 -4.5t5 1.5l206 155q14 11 21 -2l31 -44
q8 -13 -6 -22l-270 -204q-4 -4 -4 -7z" />
    <glyph glyph-name="lslash" unicode="&#x142;" horiz-adv-x="236" 
d="M337 418q5 -14 -9 -22l-130 -70q-3 -1 -5 -7l-37 -303q-2 -16 -17 -16h-82q-16 0 -13 16l29 235q0 9 -7 4l-50 -27q-16 -9 -20 6l-19 47q-5 15 10 22l94 52q5 2 5 7l40 322q2 16 17 16h82q15 0 13 -16l-31 -252q0 -8 7 -4l82 45q15 8 20 -6z" />
    <glyph glyph-name="Nacute" unicode="&#x143;" horiz-adv-x="644" 
d="M352 776q-8 0 -11 5.5t2 13.5l62 95q8 11 20 11h77q9 0 11 -5.5t-4 -13.5l-74 -96q-7 -10 -20 -10h-63zM67 0q-16 0 -14 16l82 668q3 16 18 16h77q14 0 19 -11l215 -458q1 -4 3.5 -3t3.5 5l55 451q3 16 18 16h81q16 0 14 -16l-82 -668q-2 -16 -18 -16h-79q-13 0 -18 11
l-215 461q-2 4 -4.5 3t-2.5 -5l-55 -454q-1 -16 -18 -16h-80z" />
    <glyph glyph-name="nacute" unicode="&#x144;" horiz-adv-x="528" 
d="M428 700q10 0 12 -5.5t-4 -13.5l-74 -96q-8 -10 -20 -10h-63q-8 0 -11 5.5t2 13.5l62 95q8 11 20 11h76zM342 519q79 0 120.5 -48t31.5 -131l-40 -324q-2 -16 -17 -16h-82q-16 0 -14 16l37 300q6 46 -16 74.5t-64 28.5q-41 0 -70.5 -28t-35.5 -74l-37 -301
q-2 -16 -17 -16h-82q-16 0 -13 16l59 479q2 16 17 16h81q16 0 14 -16l-3 -27q-1 -4 1 -5t5 2q45 54 125 54z" />
    <glyph glyph-name="uni0145" unicode="&#x145;" horiz-adv-x="644" 
d="M67 0q-16 0 -14 16l82 668q3 16 18 16h77q14 0 19 -11l215 -458q1 -4 3.5 -3t3.5 5l55 451q3 16 18 16h81q16 0 14 -16l-82 -668q-2 -16 -18 -16h-79q-13 0 -18 11l-215 461q-2 4 -4.5 3t-2.5 -5l-55 -454q-1 -16 -18 -16h-80zM220 -180q-8 0 -11 5.5t2 13.5l62 95
q8 11 20 11h77q9 0 11 -5.5t-4 -13.5l-74 -96q-7 -10 -20 -10h-63z" />
    <glyph glyph-name="uni0146" unicode="&#x146;" horiz-adv-x="528" 
d="M342 519q79 0 120.5 -48t31.5 -131l-40 -324q-2 -16 -17 -16h-82q-16 0 -14 16l37 300q6 46 -16 74.5t-64 28.5q-41 0 -70.5 -28t-35.5 -74l-37 -301q-2 -16 -17 -16h-82q-16 0 -13 16l59 479q2 16 17 16h81q16 0 14 -16l-3 -27q-1 -4 1 -5t5 2q45 54 125 54zM153 -180
q-8 0 -11 5.5t2 13.5l62 95q8 11 20 11h77q9 0 11 -5.5t-4 -13.5l-74 -96q-8 -10 -19 -10h-64z" />
    <glyph glyph-name="Ncaron" unicode="&#x147;" horiz-adv-x="644" 
d="M344 766q-11 0 -17 10l-54 98q-4 8 0 13.5t13 5.5h55q12 0 18 -10l35 -64q1 -2 3.5 -2t3.5 2l51 64q9 10 19 10h55q9 0 11 -5.5t-4 -13.5l-78 -98q-9 -10 -20 -10h-91zM67 0q-16 0 -14 16l82 668q3 16 18 16h77q14 0 19 -11l215 -458q1 -4 3.5 -3t3.5 5l55 451
q3 16 18 16h81q16 0 14 -16l-82 -668q-2 -16 -18 -16h-79q-13 0 -18 11l-215 461q-2 4 -4.5 3t-2.5 -5l-55 -454q-1 -16 -18 -16h-80z" />
    <glyph glyph-name="ncaron" unicode="&#x148;" horiz-adv-x="528" 
d="M382 575q-9 -10 -20 -10h-91q-11 0 -17 10l-54 98q-4 8 -0.5 13.5t13.5 5.5h55q13 0 17 -10l35 -64q4 -6 8 0l51 64q7 10 19 10h55q9 0 11 -5.5t-4 -13.5zM342 519q79 0 120.5 -48t31.5 -131l-40 -324q-2 -16 -17 -16h-82q-16 0 -14 16l37 300q6 46 -16 74.5t-64 28.5
q-41 0 -70.5 -28t-35.5 -74l-37 -301q-2 -16 -17 -16h-82q-16 0 -13 16l59 479q2 16 17 16h81q16 0 14 -16l-3 -27q-1 -4 1 -5t5 2q45 54 125 54z" />
    <glyph glyph-name="Eng" unicode="&#x14a;" horiz-adv-x="649" 
d="M622 547q0 -4 1 -7q1 -4 0 -13l-62 -511q-14 -108 -62 -149.5t-164 -40.5q-16 0 -14 16l8 66q1 15 18 15q47 0 69 17.5t30 57.5q0 5 -1 7l-218 467q-2 4 -4.5 3t-2.5 -5l-55 -454q-1 -16 -18 -16h-80q-16 0 -14 16l82 668q3 16 18 16h77q14 0 19 -11l215 -458
q1 -4 3.5 -3t3.5 5l55 451q3 16 18 16h81q16 0 14 -16z" />
    <glyph glyph-name="eng" unicode="&#x14b;" horiz-adv-x="529" 
d="M479 217q-2 -6 1 -6h1l-25 -205q-13 -101 -57 -144.5t-155 -45.5q-17 0 -14 16l7 62q2 15 18 17q40 3 60 23t27 60q0 6 -1 6h-1l38 316q6 46 -16 74.5t-64 28.5q-41 0 -70.5 -28t-35.5 -74l-37 -301q-2 -16 -17 -16h-82q-16 0 -13 16l59 479q2 16 17 16h81q16 0 14 -16
l-3 -27q-1 -4 1.5 -5t4.5 3q47 53 125 53q79 0 120.5 -48t31.5 -131z" />
    <glyph glyph-name="Omacron" unicode="&#x14c;" horiz-adv-x="602" 
d="M255 780q-16 0 -14 16l6 48q2 16 18 16h245q16 0 14 -16l-6 -48q-2 -16 -18 -16h-245zM280 -10q-110 0 -169.5 67.5t-46.5 178.5l28 228q13 109 89.5 176.5t186.5 67.5q112 0 172 -67t46 -177l-28 -228q-14 -111 -90.5 -178.5t-187.5 -67.5zM292 90q61 0 103 38.5
t50 103.5l28 233q8 64 -24 103.5t-93 39.5t-102 -39t-49 -104l-29 -233q-8 -64 24 -103t92 -39z" />
    <glyph glyph-name="omacron" unicode="&#x14d;" horiz-adv-x="540" 
d="M201 591q-16 0 -14 16l6 48q2 16 17 16h246q16 0 13 -16l-5 -48q-3 -16 -18 -16h-245zM251 -8q-76 0 -126.5 40t-63.5 111q-10 47 -2 114q8 63 29 114q31 70 91 109t138 39q74 0 123 -39t63 -108q11 -50 3 -114q-8 -62 -30 -114q-31 -71 -90.5 -111.5t-134.5 -40.5z
M263 92q36 0 64.5 21t43.5 59q16 33 21 84q6 49 1 84q-7 38 -30.5 58.5t-60.5 20.5q-77 0 -110 -79q-14 -38 -20 -84q-6 -48 -1 -84q7 -38 31 -59t61 -21z" />
    <glyph glyph-name="Ohungarumlaut" unicode="&#x150;" horiz-adv-x="602" 
d="M262 770q-19 0 -9 19l56 94q7 12 20 12h70q9 0 11.5 -5.5t-2.5 -13.5l-61 -95q-8 -11 -20 -11h-65zM431 770q-9 0 -11.5 5.5t2.5 13.5l61 95q8 11 20 11h64q8 0 11 -5.5t-2 -13.5l-62 -95q-8 -11 -20 -11h-63zM280 -10q-110 0 -169.5 67.5t-46.5 178.5l28 228
q13 109 89.5 176.5t186.5 67.5q112 0 172 -67t46 -177l-28 -228q-14 -111 -90.5 -178.5t-187.5 -67.5zM292 90q61 0 103 38.5t50 103.5l28 233q8 64 -24 103.5t-93 39.5t-102 -39t-49 -104l-29 -233q-8 -64 24 -103t92 -39z" />
    <glyph glyph-name="ohungarumlaut" unicode="&#x151;" horiz-adv-x="540" 
d="M208 581q-19 0 -9 19l56 94q7 12 20 12h70q8 0 11 -5.5t-2 -13.5l-61 -95q-8 -11 -20 -11h-65zM377 581q-9 0 -12 5.5t3 13.5l61 95q6 11 19 11h65q8 0 11 -5.5t-2 -13.5l-62 -95q-8 -11 -20 -11h-63zM251 -8q-76 0 -126.5 40t-63.5 111q-10 47 -2 114q8 63 29 114
q31 70 91 109t138 39q74 0 123 -39t63 -108q11 -50 3 -114q-8 -62 -30 -114q-31 -71 -90.5 -111.5t-134.5 -40.5zM263 92q36 0 64.5 21t43.5 59q16 33 21 84q6 49 1 84q-7 38 -30.5 58.5t-60.5 20.5q-77 0 -110 -79q-14 -38 -20 -84q-6 -48 -1 -84q7 -38 31 -59t61 -21z" />
    <glyph glyph-name="OE" unicode="&#x152;" horiz-adv-x="899" 
d="M912 616q-2 -16 -18 -16h-302q-6 0 -7 -6l-23 -185q0 -6 5 -6h194q16 0 14 -16l-8 -68q-3 -16 -18 -16h-194q-6 0 -6 -6l-24 -191q0 -6 5 -6h303q16 0 13 -16l-8 -68q-2 -16 -17 -16h-406q-16 0 -13 16l2 23q1 4 -1 4.5t-5 -1.5q-71 -52 -154 -52q-90 0 -142 66.5
t-39 170.5l30 245q13 103 81 169.5t158 66.5q83 0 142 -51q5 -5 7 3l3 24q2 16 17 16h406q15 0 13 -16zM284 90q57 0 96.5 37.5t46.5 96.5l31 250q7 59 -23.5 96.5t-87.5 37.5q-55 0 -94.5 -37.5t-46.5 -96.5l-31 -250q-8 -59 22.5 -96.5t86.5 -37.5z" />
    <glyph glyph-name="oe" unicode="&#x153;" horiz-adv-x="841" 
d="M596 89q27 0 55 14.5t47 38.5q12 14 22 4l44 -40q10 -9 1 -22q-74 -92 -195 -92q-102 0 -155 76q-4 6 -8 0q-74 -76 -167 -76q-72 0 -120.5 39t-61.5 106q-9 45 1 120q10 80 28 119q29 66 87 104.5t130 38.5q95 0 149 -75q4 -6 8 0q72 75 165 75q74 0 124 -40t61 -104
q8 -37 -3 -142q-3 -17 -18 -17h-294q-6 0 -6 -6q-2 -29 1 -42q11 -79 105 -79zM353 168q11 24 20 89q8 65 2 87q-4 34 -26 54.5t-57 20.5q-34 0 -61 -20.5t-40 -54.5q-12 -24 -20 -87q-7 -52 -1 -89q4 -35 25.5 -55.5t56.5 -20.5q34 0 61.5 21t39.5 55zM615 419
q-36 0 -63 -20.5t-39 -55.5q-8 -17 -12 -41q-1 -6 5 -6h190q6 0 6 6q2 28 -1 41q-4 34 -27 55t-59 21z" />
    <glyph glyph-name="Racute" unicode="&#x154;" horiz-adv-x="595" 
d="M466 889q10 0 12 -5.5t-5 -13.5l-73 -96q-8 -10 -20 -10h-63q-9 0 -12 5.5t3 13.5l62 95q6 11 19 11h77zM436 0q-14 0 -17 12l-92 286q-1 4 -7 4h-113q-5 0 -7 -6l-34 -280q-2 -16 -18 -16h-81q-16 0 -14 16l83 669q2 16 17 16h263q90 0 138.5 -56.5t37.5 -147.5
q-9 -69 -49.5 -117.5t-102.5 -66.5q-6 -2 -4 -8l99 -286q5 -19 -14 -19h-85zM244 601q-7 0 -7 -6l-24 -197q-1 -6 5 -6h144q46 0 78.5 28.5t38.5 74.5q6 47 -19 76.5t-72 29.5h-144z" />
    <glyph glyph-name="racute" unicode="&#x155;" horiz-adv-x="365" 
d="M370 705q9 0 11 -5.5t-4 -13.5l-74 -96q-7 -10 -19 -10h-63q-9 0 -12 5.5t2 13.5l62 95q8 11 20 11h77zM335 517q30 0 50 -11q11 -6 6 -20l-25 -83q-5 -14 -20 -10q-21 7 -49 3q-41 -2 -71.5 -29.5t-36.5 -71.5l-34 -279q-2 -16 -17 -16h-82q-16 0 -13 16l59 479
q2 16 17 16h81q16 0 14 -16l-5 -39q0 -9 6 -2q47 63 120 63z" />
    <glyph glyph-name="uni0156" unicode="&#x156;" horiz-adv-x="595" 
d="M440 313q-6 -2 -4 -8l99 -286q5 -19 -14 -19h-85q-14 0 -17 12l-92 286q-1 4 -7 4h-113q-5 0 -7 -6l-34 -280q-2 -16 -18 -16h-81q-16 0 -14 16l83 669q2 16 17 16h263q90 0 138.5 -56.5t37.5 -147.5q-9 -69 -49.5 -117.5t-102.5 -66.5zM244 601q-7 0 -7 -6l-24 -197
q-1 -6 5 -6h144q46 0 78.5 28.5t38.5 74.5q6 47 -19 76.5t-72 29.5h-144zM179 -180q-9 0 -12 5.5t2 13.5l62 95q8 11 20 11h77q21 0 7 -19l-74 -96q-6 -10 -19 -10h-63z" />
    <glyph glyph-name="uni0157" unicode="&#x157;" horiz-adv-x="369" 
d="M335 517q30 0 50 -11q11 -6 6 -20l-25 -83q-5 -14 -20 -10q-21 7 -49 3q-41 -2 -71.5 -29.5t-36.5 -71.5l-34 -279q-2 -16 -17 -16h-82q-16 0 -13 16l59 479q2 16 17 16h81q16 0 14 -16l-5 -39q0 -9 6 -2q47 63 120 63zM-27 -180q-9 0 -11.5 5.5t2.5 13.5l62 95
q8 11 20 11h76q10 0 12 -5.5t-4 -13.5l-74 -96q-8 -10 -20 -10h-63z" />
    <glyph glyph-name="Rcaron" unicode="&#x158;" horiz-adv-x="595" 
d="M420 764q-9 -10 -20 -10h-91q-11 0 -17 10l-54 98q-4 8 -0.5 13.5t13.5 5.5h55q11 0 17 -10l35 -64q4 -6 8 0l50 64q9 10 20 10h54q10 0 12 -5.5t-4 -13.5zM436 0q-14 0 -17 12l-92 286q-1 4 -7 4h-113q-5 0 -7 -6l-34 -280q-2 -16 -18 -16h-81q-16 0 -14 16l83 669
q2 16 17 16h263q90 0 138.5 -56.5t37.5 -147.5q-9 -69 -49.5 -117.5t-102.5 -66.5q-6 -2 -4 -8l99 -286q5 -19 -14 -19h-85zM244 601q-7 0 -7 -6l-24 -197q-1 -6 5 -6h144q46 0 78.5 28.5t38.5 74.5q6 47 -19 76.5t-72 29.5h-144z" />
    <glyph glyph-name="rcaron" unicode="&#x159;" horiz-adv-x="365" 
d="M323 580q-7 -10 -19 -10h-91q-12 0 -18 10l-54 98q-4 8 0 13.5t13 5.5h56q11 0 17 -10l35 -64q2 -6 8 0l50 64q9 10 20 10h54q10 0 12 -5.5t-5 -13.5zM335 517q30 0 50 -11q11 -6 6 -20l-25 -83q-5 -14 -20 -10q-21 7 -49 3q-41 -2 -71.5 -29.5t-36.5 -71.5l-34 -279
q-2 -16 -17 -16h-82q-16 0 -13 16l59 479q2 16 17 16h81q16 0 14 -16l-5 -39q0 -9 6 -2q47 63 120 63z" />
    <glyph glyph-name="Sacute" unicode="&#x15a;" horiz-adv-x="572" 
d="M318 772q-9 0 -12 5.5t3 13.5l62 95q6 11 19 11h77q10 0 12 -5.5t-5 -13.5l-73 -96q-7 -10 -20 -10h-63zM269 -8q-112 0 -172 54.5t-49 146.5l3 21q2 16 17 16h80q14 0 13 -15l-2 -16q-5 -46 30 -76.5t101 -30.5q59 0 92 26t38 67q6 40 -24.5 63.5t-115.5 59.5
q-38 15 -60.5 25t-52 29t-44.5 39t-24 50t-4 67q10 88 78.5 139t172.5 51q110 0 171 -57t50 -149l-2 -13q-2 -16 -17 -16h-80q-7 0 -11 3.5t-3 8.5l2 11q6 47 -27.5 79.5t-99.5 32.5q-54 0 -86.5 -23t-37.5 -65q-5 -43 24.5 -65.5t118.5 -57.5q40 -16 59 -24.5t50.5 -28.5
t46 -39t24.5 -49.5t5 -67.5q-11 -89 -82 -142.5t-182 -53.5z" />
    <glyph glyph-name="sacute" unicode="&#x15b;" horiz-adv-x="479" 
d="M252 581q-9 0 -12 5.5t2 13.5l63 95q6 11 19 11h77q21 0 7 -19l-74 -96q-6 -10 -19 -10h-63zM225 -6q-92 0 -143 40t-43 102l1 5q2 16 17 16h78q7 0 11 -2t3 -5v-7q-4 -25 20.5 -43.5t65.5 -18.5q39 0 65 16.5t29 41.5q2 12 -2.5 21t-17.5 16t-23.5 11t-33.5 11.5
t-35 11.5q-35 11 -57 21t-47 27.5t-35 44t-6 61.5q9 71 67 112t145 41q89 0 138 -42.5t41 -109.5q-2 -12 -17 -12h-75q-15 0 -15 6l1 6q3 26 -19.5 43.5t-65.5 17.5q-38 0 -63 -14.5t-29 -40.5q-1 -7 0 -12.5t5 -10.5t7.5 -9t11 -8t13 -6.5t16.5 -6t17.5 -5.5t20 -6t20.5 -6
q37 -11 59.5 -21t49 -27.5t37 -44t6.5 -62.5q-9 -71 -68 -111.5t-150 -40.5z" />
    <glyph glyph-name="Scedilla" unicode="&#x15e;" horiz-adv-x="572" 
d="M533 188q-9 -78 -66.5 -129.5t-148.5 -63.5q-10 -2 -3 -7q46 -53 25 -111q-13 -32 -40.5 -48t-54.5 -14t-51 7q-11 4 -8 19l9 31q4 15 19 12q44 -11 56 25q13 37 -36 82q-3 3 -7 3q-93 11 -141 64t-38 135l3 21q2 16 17 16h80q14 0 13 -15l-2 -16q-5 -46 30 -76.5
t101 -30.5q59 0 92 26t38 67q6 40 -24.5 63.5t-115.5 59.5q-38 15 -60.5 25t-52 29t-44.5 39t-24 50t-4 67q10 88 78.5 139t172.5 51q110 0 171 -57t50 -149l-2 -13q-2 -16 -17 -16h-80q-7 0 -11 3.5t-3 8.5l2 11q6 47 -27.5 79.5t-99.5 32.5q-54 0 -86.5 -23t-37.5 -65
q-5 -43 24.5 -65.5t118.5 -57.5q40 -16 59 -24.5t50.5 -28.5t46 -39t24.5 -49.5t5 -67.5z" />
    <glyph glyph-name="scedilla" unicode="&#x15f;" horiz-adv-x="479" 
d="M443 146q-7 -60 -51.5 -99t-115.5 -50q-8 -2 -3 -7q48 -54 26 -111q-13 -32 -40.5 -48t-54 -14t-50.5 7q-11 4 -8 19l8 31q5 15 20 12q43 -11 56 25q11 37 -37 82q-3 3 -6 3q-74 8 -114.5 47t-33.5 93l1 5q2 16 17 16h78q7 0 11 -2t3 -5v-7q-4 -25 20.5 -43.5t65.5 -18.5
q39 0 65 16.5t29 41.5q2 12 -2.5 21t-17.5 16t-23.5 11t-33.5 11.5t-35 11.5q-35 11 -57 21t-47 27.5t-35 44t-6 61.5q9 71 67 112t145 41q89 0 138 -42.5t41 -109.5q-2 -12 -17 -12h-75q-15 0 -15 6l1 6q3 26 -19.5 43.5t-65.5 17.5q-38 0 -63 -14.5t-29 -40.5
q-1 -7 0 -12.5t5 -10.5t7.5 -9t11 -8t13 -6.5t16.5 -6t17.5 -5.5t20 -6t20.5 -6q37 -11 59.5 -21t49 -27.5t37 -44t6.5 -62.5z" />
    <glyph glyph-name="Scaron" unicode="&#x160;" horiz-adv-x="572" 
d="M310 762q-11 0 -17 10l-54 98q-4 8 -0.5 13.5t13.5 5.5h55q11 0 17 -10l35 -64q4 -6 8 0l50 64q9 10 20 10h54q10 0 12 -5.5t-4 -13.5l-78 -98q-9 -10 -20 -10h-91zM269 -8q-112 0 -172 54.5t-49 146.5l3 21q2 16 17 16h80q14 0 13 -15l-2 -16q-5 -46 30 -76.5t101 -30.5
q59 0 92 26t38 67q6 40 -24.5 63.5t-115.5 59.5q-38 15 -60.5 25t-52 29t-44.5 39t-24 50t-4 67q10 88 78.5 139t172.5 51q110 0 171 -57t50 -149l-2 -13q-2 -16 -17 -16h-80q-7 0 -11 3.5t-3 8.5l2 11q6 47 -27.5 79.5t-99.5 32.5q-54 0 -86.5 -23t-37.5 -65
q-5 -43 24.5 -65.5t118.5 -57.5q40 -16 59 -24.5t50.5 -28.5t46 -39t24.5 -49.5t5 -67.5q-11 -89 -82 -142.5t-182 -53.5z" />
    <glyph glyph-name="scaron" unicode="&#x161;" horiz-adv-x="479" 
d="M244 571q-11 0 -17 10l-54 98q-4 8 -0.5 13.5t13.5 5.5h55q11 0 17 -10l35 -64q2 -6 8 0l50 64q9 10 20 10h54q10 0 12 -5.5t-4 -13.5l-78 -98q-9 -10 -20 -10h-91zM225 -6q-92 0 -143 40t-43 102l1 5q2 16 17 16h78q7 0 11 -2t3 -5v-7q-4 -25 20.5 -43.5t65.5 -18.5
q39 0 65 16.5t29 41.5q2 12 -2.5 21t-17.5 16t-23.5 11t-33.5 11.5t-35 11.5q-35 11 -57 21t-47 27.5t-35 44t-6 61.5q9 71 67 112t145 41q89 0 138 -42.5t41 -109.5q-2 -12 -17 -12h-75q-15 0 -15 6l1 6q3 26 -19.5 43.5t-65.5 17.5q-38 0 -63 -14.5t-29 -40.5
q-1 -7 0 -12.5t5 -10.5t7.5 -9t11 -8t13 -6.5t16.5 -6t17.5 -5.5t20 -6t20.5 -6q37 -11 59.5 -21t49 -27.5t37 -44t6.5 -62.5q-9 -71 -68 -111.5t-150 -40.5z" />
    <glyph glyph-name="uni0162" unicode="&#x162;" horiz-adv-x="562" 
d="M394 599q-6 0 -7 -6l-71 -577q-2 -16 -7 -16q-3 0 -1 -4l2 -3q45 -53 23 -108q-13 -32 -40.5 -48t-54 -14t-50.5 7q-12 4 -9 19l9 31q4 15 20 12q43 -11 55 25q13 37 -34 80q-3 3 -7 3h-5q-16 0 -13 16l71 577q0 6 -6 6h-166q-16 0 -14 16l9 69q2 16 17 16h465
q15 0 13 -16l-8 -69q-2 -16 -18 -16h-173z" />
    <glyph glyph-name="uni0163" unicode="&#x163;" horiz-adv-x="363" 
d="M298 19q-2 -15 -17 -17q-8 0 -24 -0.5t-23 -0.5q-76 0 -110.5 27.5t-26.5 102.5l34 280q0 6 -5 6h-51q-15 0 -13 16l8 62q2 16 17 16h50q5 0 7 6l14 112q2 16 17 16h77q16 0 13 -16l-13 -112q-2 -6 5 -6h94q16 0 13 -16l-7 -62q-2 -16 -18 -16h-94q-6 0 -6 -6l-29 -236
q-5 -39 9 -56t49 -17h25q16 0 13 -16zM228 -38q11 0 19 -7q59 -57 35 -121q-13 -32 -40.5 -48t-54 -14t-50.5 7q-12 4 -9 19l9 31q5 15 20 12q43 -11 55 25q12 33 -30 77q-7 7 -5 13t13 6h38z" />
    <glyph glyph-name="Tcaron" unicode="&#x164;" horiz-adv-x="562" 
d="M416 760q-7 -10 -19 -10h-92q-11 0 -17 10l-54 98q-4 8 0 13.5t13 5.5h56q11 0 17 -10l35 -65q1 -2 3 -2t4 2l51 65q9 10 20 10h54q21 0 7 -19zM580 700q15 0 13 -16l-8 -69q-2 -16 -18 -16h-173q-6 0 -7 -6l-71 -577q-2 -16 -17 -16h-82q-16 0 -13 16l71 577q0 6 -6 6
h-166q-16 0 -14 16l9 69q2 16 17 16h465z" />
    <glyph glyph-name="tcaron" unicode="&#x165;" horiz-adv-x="363" 
d="M287 705q-7 -10 -19 -10h-91q-12 0 -18 10l-54 98q-4 8 0 13.5t13 5.5h56q11 0 17 -10l35 -65q1 -2 3.5 -2t3.5 2l51 65q9 10 20 10h54q21 0 7 -19zM357 433q-2 -16 -18 -16h-94q-6 0 -6 -6l-29 -236q-5 -39 9 -56t49 -17h25q16 0 13 -16l-8 -67q-2 -15 -17 -17
q-8 0 -24 -0.5t-23 -0.5q-76 0 -110.5 27.5t-26.5 102.5l34 280q0 6 -5 6h-51q-15 0 -13 16l8 62q2 16 17 16h50q5 0 7 6l14 112q2 16 17 16h77q16 0 13 -16l-13 -112q-2 -6 5 -6h94q16 0 13 -16z" />
    <glyph glyph-name="Tbar" unicode="&#x166;" horiz-adv-x="582" 
d="M585 615q-2 -16 -18 -16h-173q-6 0 -7 -6l-21 -174q-2 -6 5 -6h92q16 0 14 -16l-5 -40q-3 -16 -18 -16h-92q-6 0 -7 -6l-39 -319q-2 -16 -17 -16h-82q-16 0 -13 16l39 319q0 6 -5 6h-84q-15 0 -13 16l5 40q2 16 17 16h84q6 0 6 6l22 174q0 6 -6 6h-166q-16 0 -14 16l9 69
q2 16 17 16h465q15 0 13 -16z" />
    <glyph glyph-name="tbar" unicode="&#x167;" horiz-adv-x="582" 
d="M357 433q-2 -16 -18 -16h-94q-6 0 -6 -6l-7 -57q-2 -6 5 -6h90q16 0 13 -16l-4 -40q-3 -16 -18 -16h-90q-6 0 -7 -6l-11 -95q-5 -39 9 -56t49 -17h25q16 0 13 -16l-8 -67q-2 -15 -17 -17q-8 0 -24 -0.5t-23 -0.5q-76 0 -110.5 27.5t-26.5 102.5l17 139q0 6 -5 6h-48
q-16 0 -14 16l5 40q3 16 18 16h47q5 0 7 6l7 57q0 6 -5 6h-51q-15 0 -13 16l8 62q2 16 17 16h50q5 0 7 6l14 112q2 16 17 16h77q16 0 13 -16l-13 -112q-2 -6 5 -6h94q16 0 13 -16z" />
    <glyph glyph-name="Umacron" unicode="&#x16a;" horiz-adv-x="617" 
d="M263 785q-16 0 -13 16l6 48q2 16 17 16h245q16 0 14 -16l-6 -48q-2 -16 -17 -16h-246zM288 -8q-109 0 -168.5 64.5t-46.5 170.5l57 457q2 16 17 16h82q15 0 13 -16l-56 -459q-8 -59 24 -96t90 -37q59 0 99.5 37t48.5 96l56 459q2 16 17 16h82q16 0 14 -16l-57 -457
q-13 -106 -87.5 -170.5t-184.5 -64.5z" />
    <glyph glyph-name="umacron" unicode="&#x16b;" horiz-adv-x="525" 
d="M444 663q16 0 14 -16l-6 -48q-2 -16 -18 -16h-245q-16 0 -14 16l6 48q3 16 18 16h245zM394 495q3 16 18 16h80q16 0 14 -16l-59 -479q-2 -16 -17 -16h-81q-16 0 -13 16l3 26q0 4 -2 5t-5 -3q-45 -51 -124 -51q-74 0 -118.5 44t-34.5 125l41 333q2 16 17 16h82
q15 0 13 -16l-37 -300q-5 -47 15 -75t63 -28t73 28t36 75z" />
    <glyph glyph-name="Uring" unicode="&#x16e;" horiz-adv-x="617" 
d="M383 765q-44 0 -71 31.5t-21 76.5q5 46 39.5 77t79.5 31q44 0 70.5 -31t21.5 -77q-5 -45 -40 -76.5t-79 -31.5zM390 820q21 0 38.5 15.5t20.5 37.5q2 23 -11.5 38.5t-34.5 15.5q-22 0 -39 -15.5t-20 -38.5q-3 -22 10.5 -37.5t35.5 -15.5zM288 -8q-109 0 -168.5 64.5
t-46.5 170.5l57 457q2 16 17 16h82q15 0 13 -16l-56 -459q-8 -59 24 -96t90 -37q59 0 99.5 37t48.5 96l56 459q2 16 17 16h82q16 0 14 -16l-57 -457q-13 -106 -87.5 -170.5t-184.5 -64.5z" />
    <glyph glyph-name="uring" unicode="&#x16f;" horiz-adv-x="525" 
d="M309 563q-44 0 -71 31.5t-22 76.5q6 46 40.5 77t78.5 31t71 -31t22 -77q-6 -45 -40.5 -76.5t-78.5 -31.5zM329 725q-22 0 -39.5 -15.5t-19.5 -38.5q-3 -22 10 -37.5t35 -15.5t39.5 15.5t19.5 37.5q3 23 -10.5 38.5t-34.5 15.5zM394 495q3 16 18 16h80q16 0 14 -16
l-59 -479q-2 -16 -17 -16h-81q-16 0 -13 16l3 26q0 4 -2 5t-5 -3q-45 -51 -124 -51q-74 0 -118.5 44t-34.5 125l41 333q2 16 17 16h82q15 0 13 -16l-37 -300q-5 -47 15 -75t63 -28t73 28t36 75z" />
    <glyph glyph-name="Uhungarumlaut" unicode="&#x170;" horiz-adv-x="617" 
d="M271 775q-20 0 -10 19l57 94q6 12 19 12h70q9 0 12 -5.5t-2 -13.5l-62 -95q-6 -11 -19 -11h-65zM440 775q-9 0 -12 5.5t2 13.5l61 95q8 11 20 11h64q9 0 12 -5.5t-3 -13.5l-62 -95q-6 -11 -19 -11h-63zM288 -8q-109 0 -168.5 64.5t-46.5 170.5l57 457q2 16 17 16h82
q15 0 13 -16l-56 -459q-8 -59 24 -96t90 -37q59 0 99.5 37t48.5 96l56 459q2 16 17 16h82q16 0 14 -16l-57 -457q-13 -106 -87.5 -170.5t-184.5 -64.5z" />
    <glyph glyph-name="uhungarumlaut" unicode="&#x171;" horiz-adv-x="525" 
d="M333 698q9 0 12 -5.5t-3 -13.5l-61 -95q-8 -11 -20 -11h-65q-19 0 -9 19l56 94q7 12 20 12h70zM501 698q9 0 11.5 -5.5t-2.5 -13.5l-62 -95q-8 -11 -20 -11h-63q-8 0 -11 5.5t2 13.5l61 95q8 11 20 11h64zM394 495q3 16 18 16h80q16 0 14 -16l-59 -479q-2 -16 -17 -16
h-81q-16 0 -13 16l3 26q0 4 -2 5t-5 -3q-45 -51 -124 -51q-74 0 -118.5 44t-34.5 125l41 333q2 16 17 16h82q15 0 13 -16l-37 -300q-5 -47 15 -75t63 -28t73 28t36 75z" />
    <glyph glyph-name="Uogonek" unicode="&#x172;" horiz-adv-x="617" 
d="M504 684q2 16 17 16h82q16 0 14 -16l-57 -457q-12 -98 -76.5 -160.5t-162.5 -73.5q-4 0 -7 -3q-51 -41 -47 -74q5 -36 49 -25q17 3 17 -12l1 -31q0 -15 -13 -19q-25 -5 -52 -7t-51 14t-29 48q-8 53 47 105q3 2 2.5 4.5t-3.5 2.5q-86 16 -129.5 77.5t-32.5 153.5l57 457
q2 16 17 16h82q15 0 13 -16l-56 -459q-8 -59 24 -96t90 -37q59 0 99.5 37t48.5 96z" />
    <glyph glyph-name="uogonek" unicode="&#x173;" horiz-adv-x="528" 
d="M423 -121q16 3 17 -12l1 -31q-2 -15 -14 -19q-25 -5 -52 -7t-51 14t-28 48q-10 64 65 121q5 5 -1 7h-11q-16 0 -13 16l3 26q0 4 -2 5t-5 -3q-45 -51 -124 -51q-74 0 -118.5 44t-34.5 125l41 333q2 16 17 16h82q15 0 13 -16l-37 -300q-5 -47 15 -75t63 -28t73 28t36 75
l36 300q3 16 18 16h80q16 0 14 -16l-60 -491q-2 -6 -3 -7q-4 -4 -20 -16q-53 -43 -50 -77q2 -17 16 -23.5t34 -1.5z" />
    <glyph glyph-name="Wcircumflex" unicode="&#x174;" horiz-adv-x="841" 
d="M372 760q-10 0 -12.5 6t4.5 13l83 98q9 10 20 10h83q10 0 17 -10l60 -97q5 -8 1.5 -14t-13.5 -6h-56q-11 0 -17 10l-35 64q-4 6 -8 0l-50 -64q-9 -10 -20 -10h-57zM194 0q-14 0 -16 14l-92 668q-3 18 15 18h88q14 0 15 -14l54 -450q0 -3 1.5 -4t3.5 0.5t3 3.5l159 450
q4 14 18 14h87q15 0 16 -14l55 -450q0 -3 2 -4t3.5 0t2.5 4l163 450q4 14 18 14h84q17 0 10 -18l-247 -668q-4 -14 -19 -14h-84q-15 0 -15 14l-55 471q0 3 -1.5 4t-3.5 -0.5t-3 -3.5l-165 -471q-4 -14 -18 -14h-79z" />
    <glyph glyph-name="wcircumflex" unicode="&#x175;" horiz-adv-x="738" 
d="M290 571q-9 0 -11.5 5.5t4.5 13.5l83 98q7 10 19 10h84q10 0 17 -10l60 -97q4 -7 0.5 -13.5t-12.5 -6.5h-56q-12 0 -18 10l-35 64q-1 2 -3 2t-4 -2l-51 -64q-9 -10 -19 -10h-58zM161 0q-13 0 -16 13l-78 480q-2 18 16 18h85q14 0 14 -14l40 -328q0 -4 2 -4q4 -1 5 4
l123 328q5 14 19 14h75q14 0 16 -14l45 -329q0 -5 4 -4l3 4l124 329q5 14 19 14l84 -1q18 0 11 -18l-197 -479q-6 -13 -19 -13h-86q-13 0 -16 13l-46 299q-3 7 -7 3q-1 -1 -1 -3l-113 -298q-6 -14 -20 -14h-86z" />
    <glyph glyph-name="Ycircumflex" unicode="&#x176;" horiz-adv-x="581" 
d="M242 760q-10 0 -12.5 6t4.5 13l83 98q9 10 20 10h83q10 0 17 -10l60 -97q5 -8 1.5 -14t-13.5 -6h-56q-11 0 -17 10l-35 64q-4 6 -8 0l-50 -64q-9 -10 -20 -10h-57zM230 1q-16 0 -14 16l33 263q0 1 -0.5 3.5t-0.5 3.5l-148 394q-7 19 13 19h88q12 0 17 -12l99 -275
q4 -8 8 0l168 275q7 12 20 12h89q20 0 8 -19l-246 -394q-1 -3 -3 -7l-32 -263q-2 -16 -18 -16h-81z" />
    <glyph glyph-name="ycircumflex" unicode="&#x177;" horiz-adv-x="474" 
d="M166 579q-9 0 -11.5 5.5t4.5 13.5l83 98q7 10 19 10h84q10 0 17 -10l60 -97q4 -7 0.5 -13.5t-12.5 -6.5h-57q-11 0 -17 10l-35 64q-1 2 -3 2t-4 -2l-51 -64q-9 -10 -20 -10h-57zM7 -199q-7 0 -5 16l8 64q2 16 8 16h6q58 0 85.5 19t51.5 80q1 3 1 8l-99 489q-3 18 15 18
h88q14 0 15 -13l55 -331q2 -10 8 0l132 331q6 13 19 13h88q19 0 10 -18l-234 -521q-32 -71 -59 -104.5t-70 -50t-117 -16.5h-6z" />
    <glyph glyph-name="Ydieresis" unicode="&#x178;" horiz-adv-x="581" 
d="M277 770q-27 0 -42 17t-12 45q4 28 23 45t46 17q26 0 40.5 -17t11.5 -45q-4 -28 -22.5 -45t-44.5 -17zM454 770q-26 0 -41 17t-11 45q3 28 22 45t46 17t41.5 -17t10.5 -45q-3 -28 -22 -45t-46 -17zM230 1q-16 0 -14 16l33 263q0 1 -0.5 3.5t-0.5 3.5l-148 394
q-7 19 13 19h88q12 0 17 -12l99 -275q4 -8 8 0l168 275q7 12 20 12h89q20 0 8 -19l-246 -394q-1 -3 -3 -7l-32 -263q-2 -16 -18 -16h-81z" />
    <glyph glyph-name="Zacute" unicode="&#x179;" horiz-adv-x="537" 
d="M302 777q-9 0 -11.5 5.5t2.5 13.5l62 95q8 11 20 11h76q10 0 12 -5.5t-4 -13.5l-74 -96q-8 -10 -20 -10h-63zM32 0q-16 0 -14 16l10 78q1 10 8 20l384 479q5 7 -3 7h-311q-16 0 -14 16l8 68q3 16 18 16h429q15 0 13 -16l-9 -78q-2 -11 -9 -20l-383 -479q-7 -7 3 -7h311
q16 0 14 -16l-9 -68q-2 -16 -17 -16h-429z" />
    <glyph glyph-name="zacute" unicode="&#x17a;" horiz-adv-x="441" 
d="M231 587q-8 0 -11 5.5t2 13.5l62 95q8 11 20 11h76q10 0 12 -5.5t-4 -13.5l-74 -96q-8 -10 -20 -10h-63zM23 0q-16 0 -13 16l9 78q1 11 10 20l270 285q7 7 -3 7h-218q-16 0 -14 16l9 73q3 16 18 16h345q16 0 14 -16l-10 -78q-2 -13 -9 -20l-277 -285q-5 -7 3 -7h232
q16 0 14 -16l-9 -73q-2 -16 -18 -16h-353z" />
    <glyph glyph-name="Zdotaccent" unicode="&#x17b;" horiz-adv-x="537" 
d="M341 774q-25 0 -38.5 16t-10.5 42q3 25 21 41t43 16t38 -15.5t10 -41.5t-20.5 -42t-42.5 -16zM32 0q-16 0 -14 16l10 78q1 10 8 20l384 479q5 7 -3 7h-311q-16 0 -14 16l8 68q3 16 18 16h429q15 0 13 -16l-9 -78q-2 -11 -9 -20l-383 -479q-7 -7 3 -7h311q16 0 14 -16
l-9 -68q-2 -16 -17 -16h-429z" />
    <glyph glyph-name="zdotaccent" unicode="&#x17c;" horiz-adv-x="441" 
d="M271 584q-25 0 -39 16.5t-11 41.5q4 25 21.5 41t42.5 16t38 -15.5t10 -41.5t-20 -42t-42 -16zM23 0q-16 0 -13 16l9 78q1 11 10 20l270 285q7 7 -3 7h-218q-16 0 -14 16l9 73q3 16 18 16h345q16 0 14 -16l-10 -78q-2 -13 -9 -20l-277 -285q-5 -7 3 -7h232q16 0 14 -16
l-9 -73q-2 -16 -18 -16h-353z" />
    <glyph glyph-name="Zcaron" unicode="&#x17d;" horiz-adv-x="537" 
d="M294 767q-11 0 -17 10l-54 98q-4 8 -0.5 13.5t13.5 5.5h55q11 0 17 -10l35 -64q4 -6 8 0l50 64q9 10 20 10h54q10 0 12 -5.5t-4 -13.5l-78 -98q-9 -10 -20 -10h-91zM32 0q-16 0 -14 16l10 78q1 10 8 20l384 479q5 7 -3 7h-311q-16 0 -14 16l8 68q3 16 18 16h429
q15 0 13 -16l-9 -78q-2 -11 -9 -20l-383 -479q-7 -7 3 -7h311q16 0 14 -16l-9 -68q-2 -16 -17 -16h-429z" />
    <glyph glyph-name="zcaron" unicode="&#x17e;" horiz-adv-x="441" 
d="M223 577q-11 0 -17 10l-54 98q-4 8 -0.5 13.5t13.5 5.5h55q12 0 18 -10l34 -64q4 -6 8 0l51 64q7 10 19 10h55q9 0 11 -5.5t-4 -13.5l-78 -98q-9 -10 -20 -10h-91zM23 0q-16 0 -13 16l9 78q1 11 10 20l270 285q7 7 -3 7h-218q-16 0 -14 16l9 73q3 16 18 16h345
q16 0 14 -16l-10 -78q-2 -13 -9 -20l-277 -285q-5 -7 3 -7h232q16 0 14 -16l-9 -73q-2 -16 -18 -16h-353z" />
    <glyph glyph-name="florin" unicode="&#x192;" horiz-adv-x="534" 
d="M298 535q27 103 77 134.5t176 30.5q15 0 13 -16l-7 -62q-3 -16 -18 -16h-36q-42 0 -62 -17.5t-33 -63.5l-26 -92q-2 -6 5 -6h69q16 0 14 -16l-9 -71q-2 -16 -18 -16h-85q-5 0 -7 -5l-98 -354q-29 -103 -78.5 -134.5t-174.5 -30.5q-16 0 -14 16l8 62q2 16 17 16h36
q41 0 61.5 17.5t33.5 63.5l95 343q1 6 -5 6h-59q-16 0 -14 16l9 71q2 16 17 16h77q5 0 7 5z" />
    <glyph glyph-name="uni01CD" unicode="&#x1cd;" horiz-adv-x="629" 
d="M449 760q-7 -10 -19 -10h-92q-11 0 -17 10l-54 98q-4 8 0 13.5t13 5.5h56q11 0 17 -10l35 -65q1 -2 3.5 -2t3.5 2l51 65q9 10 20 10h54q21 0 7 -19zM476 0q-13 0 -16 13l-17 103q0 5 -6 5h-254q-5 0 -8 -5l-42 -103q-6 -13 -20 -13h-88q-17 0 -10 18l290 669q6 13 19 13
h113q13 0 16 -13l126 -669q3 -18 -14 -18h-89zM218 219q-3 -7 4 -7h198q6 0 6 7l-59 340q-3 6 -7 0z" />
    <glyph glyph-name="uni01CE" unicode="&#x1ce;" horiz-adv-x="534" 
d="M381 571q-7 -10 -19 -10h-91q-12 0 -18 10l-53 98q-4 8 -0.5 13.5t13.5 5.5h55q11 0 17 -10l35 -65q1 -2 3.5 -2t3.5 2l51 65q9 10 20 10h54q10 0 12 -5.5t-5 -13.5zM402 495q2 16 18 16h81q16 0 14 -16l-59 -479q-2 -16 -18 -16h-81q-16 0 -14 16l3 24q1 4 -1.5 5
t-4.5 -2q-48 -51 -116 -51t-111.5 37.5t-57.5 102.5q-11 57 -2 125q8 70 31 122q30 66 82.5 103t122.5 37q66 0 104 -47q5 -8 7 2zM335 140q27 39 37 116q9 78 -10 119q-20 44 -67 44q-50 0 -83 -42q-34 -45 -43 -122q-9 -72 9 -114q20 -48 76 -48q48 0 81 47z" />
    <glyph glyph-name="uni0218" unicode="&#x218;" horiz-adv-x="572" 
d="M269 -8q-112 0 -172 54.5t-49 146.5l3 21q2 16 17 16h80q14 0 13 -15l-2 -16q-5 -46 30 -76.5t101 -30.5q59 0 92 26t38 67q6 40 -24.5 63.5t-115.5 59.5q-38 15 -60.5 25t-52 29t-44.5 39t-24 50t-4 67q10 88 78.5 139t172.5 51q110 0 171 -57t50 -149l-2 -13
q-2 -16 -17 -16h-80q-7 0 -11 3.5t-3 8.5l2 11q6 47 -27.5 79.5t-99.5 32.5q-54 0 -86.5 -23t-37.5 -65q-5 -43 24.5 -65.5t118.5 -57.5q40 -16 59 -24.5t50.5 -28.5t46 -39t24.5 -49.5t5 -67.5q-11 -89 -82 -142.5t-182 -53.5zM168 -188q-9 0 -11.5 5.5t2.5 13.5l62 95
q8 11 20 11h76q10 0 12 -5.5t-4 -13.5l-74 -96q-8 -10 -20 -10h-63z" />
    <glyph glyph-name="uni0219" unicode="&#x219;" horiz-adv-x="479" 
d="M225 -6q-92 0 -143 40t-43 102l1 5q2 16 17 16h78q7 0 11 -2t3 -5v-7q-4 -25 20.5 -43.5t65.5 -18.5q39 0 65 16.5t29 41.5q2 12 -2.5 21t-17.5 16t-23.5 11t-33.5 11.5t-35 11.5q-35 11 -57 21t-47 27.5t-35 44t-6 61.5q9 71 67 112t145 41q89 0 138 -42.5t41 -109.5
q-2 -12 -17 -12h-75q-15 0 -15 6l1 6q3 26 -19.5 43.5t-65.5 17.5q-38 0 -63 -14.5t-29 -40.5q-1 -7 0 -12.5t5 -10.5t7.5 -9t11 -8t13 -6.5t16.5 -6t17.5 -5.5t20 -6t20.5 -6q37 -11 59.5 -21t49 -27.5t37 -44t6.5 -62.5q-9 -71 -68 -111.5t-150 -40.5zM128 -186
q-9 0 -12 5.5t2 13.5l62 95q8 11 20 11h77q9 0 11 -5.5t-4 -13.5l-74 -96q-8 -10 -19 -10h-63z" />
    <glyph glyph-name="uni021A" unicode="&#x21a;" horiz-adv-x="572" 
d="M98 684q2 16 17 16h465q15 0 13 -16l-8 -69q-2 -16 -18 -16h-173q-6 0 -7 -6l-71 -577q-2 -16 -17 -16h-82q-16 0 -13 16l71 577q0 6 -6 6h-166q-16 0 -14 16zM140 -180q-9 0 -12 5.5t3 13.5l62 95q6 11 19 11h77q10 0 12 -5.5t-5 -13.5l-73 -96q-7 -10 -20 -10h-63z" />
    <glyph glyph-name="uni021B" unicode="&#x21b;" horiz-adv-x="363" 
d="M357 433q-2 -16 -18 -16h-94q-6 0 -6 -6l-29 -236q-5 -39 9 -56t49 -17h25q16 0 13 -16l-8 -67q-2 -15 -17 -17q-8 0 -24 -0.5t-23 -0.5q-76 0 -110.5 27.5t-26.5 102.5l34 280q0 6 -5 6h-51q-15 0 -13 16l8 62q2 16 17 16h50q5 0 7 6l14 112q2 16 17 16h77q16 0 13 -16
l-13 -112q-2 -6 5 -6h94q16 0 13 -16zM110 -231q-8 0 -11 5.5t2 13.5l62 95q8 11 20 11h77q9 0 11 -5.5t-4 -13.5l-74 -96q-7 -10 -20 -10h-63z" />
    <glyph glyph-name="uni0228" unicode="&#x228;" horiz-adv-x="574" 
d="M587 616q-2 -16 -18 -16h-326q-6 0 -6 -6l-23 -185q0 -6 5 -6h218q15 0 13 -16l-8 -68q-3 -16 -18 -16h-217q-5 0 -7 -6l-23 -191q0 -6 5 -6h326q16 0 14 -16l-9 -68q-2 -16 -17 -16h-156q-4 0 -5.5 -2.5t0.5 -4.5q45 -53 23 -108q-13 -32 -40.5 -48t-54 -14t-50.5 7
q-13 5 -8 19l8 31q5 15 20 12q43 -11 56 25q11 37 -35 80q-3 3 -7 3h-180q-16 0 -14 16l82 668q3 16 18 16h429q15 0 13 -16z" />
    <glyph glyph-name="uni0229" unicode="&#x229;" horiz-adv-x="526" 
d="M274 90q71 3 112 55q11 14 22 5l42 -38q10 -10 2 -22q-56 -76 -151 -93q-9 -2 -3 -8q51 -53 28 -113q-13 -32 -40.5 -48t-54 -14t-50.5 7q-12 4 -9 19l9 31q5 15 20 12q43 -11 55 25q13 38 -38 84l-6 3q-60 9 -97.5 45t-49.5 94q-13 57 -4 124q8 68 23 106q27 71 87 113
t137 42q182 0 187 -205q2 -38 -3 -82q-2 -16 -17 -16h-301q-6 0 -7 -6q-2 -29 1 -44q6 -36 33.5 -56t72.5 -20zM295 419q-74 0 -102 -70q-6 -12 -13 -42q-2 -6 4 -6h195q5 0 7 6q0 27 -1 36q-5 35 -28.5 55.5t-61.5 20.5z" />
    <glyph glyph-name="circumflex" unicode="&#x2c6;" horiz-adv-x="291" 
d="M74 571q-10 0 -12 5.5t5 13.5l82 98q9 10 20 10h84q10 0 17 -10l60 -97q5 -7 1 -13.5t-14 -6.5h-56q-11 0 -17 10l-35 64q-2 6 -8 0l-50 -64q-9 -10 -20 -10h-57z" />
    <glyph glyph-name="caron" unicode="&#x2c7;" horiz-adv-x="330" 
d="M169 567q-12 0 -18 10l-54 98q-4 8 0 13.5t13 5.5h56q11 0 17 -10l35 -64q2 -6 8 0l50 64q9 10 20 10h54q10 0 12 -5.5t-5 -13.5l-78 -98q-7 -10 -19 -10h-91z" />
    <glyph glyph-name="uni02C9" unicode="&#x2c9;" horiz-adv-x="276" 
d="M68 583q-16 0 -14 16l6 48q2 16 18 16h245q16 0 13 -16l-5 -48q-3 -16 -18 -16h-245z" />
    <glyph glyph-name="breve" unicode="&#x2d8;" horiz-adv-x="276" 
d="M186 552q-44 0 -73 28t-30 70q0 17 17 17h31q12 0 15 -15q2 -20 15 -32.5t32 -12.5t35.5 12.5t23.5 32.5q6 15 18 15h30q17 0 14 -16q-11 -43 -47 -71t-81 -28z" />
    <glyph glyph-name="dotaccent" unicode="&#x2d9;" horiz-adv-x="154" 
d="M128 572q-25 0 -38.5 16t-10.5 42q3 25 21 41t43 16t38 -15.5t10 -41.5t-20.5 -42t-42.5 -16z" />
    <glyph glyph-name="ring" unicode="&#x2da;" horiz-adv-x="255" 
d="M178 563q-44 0 -71 31.5t-22 76.5q6 46 40.5 77t78.5 31t71 -31t22 -77q-6 -45 -40.5 -76.5t-78.5 -31.5zM185 618q21 0 38.5 15.5t19.5 37.5q3 23 -10.5 38.5t-34.5 15.5q-22 0 -39.5 -15.5t-19.5 -38.5q-3 -22 10 -37.5t36 -15.5z" />
    <glyph glyph-name="ogonek" unicode="&#x2db;" horiz-adv-x="154" 
d="M113 -164q0 -15 -14 -19q-25 -5 -52 -7t-50.5 14t-28.5 48q-8 64 65 121q10 7 20 7h38q11 0 12.5 -6t-8.5 -13q-53 -43 -50 -77q2 -17 16 -23.5t34 -1.5q16 3 17 -12z" />
    <glyph glyph-name="tilde" unicode="&#x2dc;" horiz-adv-x="340" 
d="M274 580q-26 0 -60 25q-21 17 -38 17q-25 0 -41 -19q-11 -14 -22 -5l-24 20q-12 8 -3 21q35 60 92 60q24 0 59 -23q27 -19 44 -19q24 0 40 20q12 14 23 5l24 -18q12 -9 -3 -29q-39 -55 -91 -55z" />
    <glyph glyph-name="hungarumlaut" unicode="&#x2dd;" horiz-adv-x="392" 
d="M96 583q-9 0 -12 5.5t3 13.5l61 95q6 11 19 11h76q10 0 12 -5.5t-5 -13.5l-73 -96q-7 -10 -20 -10h-61zM268 583q-8 0 -11 5.5t2 13.5l61 95q8 11 20 11h76q9 0 11 -5.5t-4 -13.5l-74 -96q-7 -10 -19 -10h-62z" />
    <glyph glyph-name="gravecomb" unicode="&#x300;" 
d="M43 594q4 -8 -0.5 -13.5t-13.5 -5.5h-63q-12 0 -17 10l-50 96q-5 8 -1.5 13.5t13.5 5.5h76q13 0 18 -11z" />
    <glyph glyph-name="acutecomb" unicode="&#x301;" 
d="M-136 575q-8 0 -11 5.5t2 13.5l62 95q8 11 20 11h77q9 0 11 -5.5t-4 -13.5l-74 -96q-7 -10 -20 -10h-63z" />
    <glyph glyph-name="uni0302" unicode="&#x302;" 
d="M-217 571q-10 0 -12 5.5t5 13.5l82 98q9 10 20 10h84q10 0 17 -10l60 -97q5 -7 1 -13.5t-14 -6.5h-56q-11 0 -17 10l-35 64q-2 6 -8 0l-50 -64q-9 -10 -20 -10h-57z" />
    <glyph glyph-name="tildecomb" unicode="&#x303;" 
d="M-54 580q-26 0 -60 25q-21 17 -37 17q-25 0 -41 -19q-11 -14 -22 -5l-24 20q-11 8 -4 21q37 60 92 60q26 0 60 -23q25 -19 44 -19q24 0 39 20q12 14 23 5l24 -18q12 -9 -3 -29q-38 -55 -91 -55z" />
    <glyph glyph-name="uni0304" unicode="&#x304;" 
d="M-208 583q-16 0 -14 16l6 48q2 16 18 16h245q16 0 13 -16l-5 -48q-3 -16 -18 -16h-245z" />
    <glyph glyph-name="uni0306" unicode="&#x306;" 
d="M-91 543q-44 0 -73 28t-30 70q0 17 17 17h31q12 0 15 -15q2 -20 15 -32.5t32 -12.5t35.5 12.5t23.5 32.5q6 15 18 15h30q17 0 14 -16q-11 -42 -47 -70.5t-81 -28.5z" />
    <glyph glyph-name="uni0307" unicode="&#x307;" 
d="M-5 572q-25 0 -38.5 16t-10.5 42q3 25 20.5 41t42.5 16t38.5 -16t10.5 -41q-4 -26 -21 -42t-42 -16z" />
    <glyph glyph-name="uni0308" unicode="&#x308;" 
d="M-186 581q-27 0 -42 17t-11 45q3 28 22 45t46 17q26 0 40.5 -17t11.5 -45q-4 -28 -22.5 -45t-44.5 -17zM-8 581q-27 0 -42 17t-11 45t22.5 45t45.5 17t41.5 -17t10.5 -45q-3 -28 -22 -45t-45 -17z" />
    <glyph glyph-name="uni030A" unicode="&#x30a;" 
d="M-53 563q-45 0 -71.5 31.5t-21.5 76.5q6 46 40.5 77t78.5 31t71 -31t22 -77q-6 -45 -40.5 -76.5t-78.5 -31.5zM-47 618q21 0 39 15.5t20 37.5q3 23 -10.5 38.5t-35.5 15.5t-39 -15.5t-20 -38.5q-2 -22 11 -37.5t35 -15.5z" />
    <glyph glyph-name="uni030B" unicode="&#x30b;" 
d="M-281 573q-20 0 -10 19l57 94q6 12 19 12h70q9 0 12 -5.5t-2 -13.5l-62 -95q-6 -11 -19 -11h-65zM-113 573q-8 0 -11 5.5t2 13.5l61 95q8 11 20 11h64q9 0 12 -5.5t-3 -13.5l-62 -95q-6 -11 -20 -11h-63z" />
    <glyph glyph-name="uni030C" unicode="&#x30c;" 
d="M-162 563q-11 0 -17 10l-54 98q-4 8 -0.5 13.5t13.5 5.5h55q11 0 17 -10l35 -65q4 -6 8 0l51 65q7 10 19 10h55q9 0 11 -5.5t-4 -13.5l-78 -98q-9 -10 -20 -10h-91z" />
    <glyph glyph-name="uni0312" unicode="&#x312;" 
d="M23 692q9 0 12 -5.5t-3 -13.5l-62 -95q-6 -11 -20 -11h-76q-10 0 -12 5.5t4 13.5l74 96q8 10 20 10h63z" />
    <glyph glyph-name="uni0313" unicode="&#x313;" 
d="M-105 575q-9 0 -12 5.5t2 13.5l62 95q8 11 20 11h77q9 0 11 -5.5t-4 -13.5l-74 -96q-7 -10 -19 -10h-63z" />
    <glyph glyph-name="uni0326" unicode="&#x326;" 
d="M-219 -180q-8 0 -11 5.5t2 13.5l62 95q8 11 20 11h76q10 0 12 -5.5t-4 -13.5l-74 -96q-8 -10 -20 -10h-63z" />
    <glyph glyph-name="uni0327" unicode="&#x327;" 
d="M-183 -183q-12 4 -9 19l9 31q5 15 20 12q43 -11 55 25q12 33 -30 77q-7 7 -5 13t13 6h38q11 0 18 -7q60 -57 36 -121q-13 -32 -40.5 -48t-54 -14t-50.5 7z" />
    <glyph glyph-name="uni0328" unicode="&#x328;" 
d="M-41 -164q0 -15 -14 -19q-25 -5 -52 -7t-50.5 14t-28.5 48q-8 64 65 121q10 7 20 7h38q11 0 12.5 -6t-8.5 -13q-53 -43 -50 -77q2 -17 16 -23.5t34 -1.5q16 3 17 -12z" />
    <glyph glyph-name="uni0335" unicode="&#x335;" 
d="M-274 619q2 16 17 16h300q16 0 13 -16l-5 -40q-2 -16 -17 -16h-300q-16 0 -13 16z" />
    <glyph glyph-name="uni0336" unicode="&#x336;" 
d="M-538 512q-16 0 -14 16l6 47q2 16 18 16h565q16 0 14 -16l-6 -47q-2 -16 -18 -16h-565z" />
    <glyph glyph-name="uni0337" unicode="&#x337;" 
d="M-412 -4q-14 -11 -21 2l-30 43q-9 12 5 22l490 371q15 10 22 -2l30 -44q8 -13 -6 -22z" />
    <glyph glyph-name="uni0338" unicode="&#x338;" 
d="M-464 -41q-9 0 -11.5 5.5t2.5 13.5l460 756q8 12 20 12h45q18 0 8 -19l-461 -756q-6 -12 -19 -12h-44z" />
    <glyph glyph-name="uni0394" unicode="&#x394;" horiz-adv-x="633" 
d="M22 0q-15 0 -13 16l9 74q2 11 6 19l311 579q6 12 19 12h58q13 0 16 -12l169 -580q3 -11 2 -19l-9 -73q-2 -16 -18 -16h-550zM132 107q-3 -7 4 -7h347q8 0 5 7l-121 435q-2 10 -8 0z" />
    <glyph glyph-name="uni03A9" unicode="&#x3a9;" horiz-adv-x="618" 
d="M50 0q-15 0 -13 16l8 68q2 16 18 16h48q9 0 4 7q-52 57 -40 155l25 202q13 109 89.5 176.5t186.5 67.5q111 0 171 -67t46 -177l-24 -202q-12 -98 -79 -155q-7 -7 2 -7h49q16 0 13 -16l-8 -68q-2 -16 -17 -16h-192q-16 0 -14 16l9 72q1 13 16 17q39 11 69.5 48.5
t36.5 89.5l27 223q8 64 -24 103.5t-93 39.5t-102.5 -39t-49.5 -104l-27 -223q-6 -52 14.5 -89.5t56.5 -49.5q13 -4 12 -17l-9 -71q-2 -16 -17 -16h-192z" />
    <glyph glyph-name="uni03BC" unicode="&#x3bc;" horiz-adv-x="533" 
d="M400 495q3 16 18 16h80q16 0 14 -16l-59 -479q-2 -16 -17 -16h-81q-16 0 -14 16l4 26q0 4 -2 5t-5 -3q-45 -51 -124 -51q-30 0 -54 7q-7 2 -7 -5l-22 -179q-3 -16 -18 -16h-81q-16 0 -14 16l84 679q2 16 17 16h81q16 0 14 -16l-37 -300q-5 -47 15 -75t63 -28
q44 0 73.5 28.5t34.5 74.5z" />
    <glyph glyph-name="pi" unicode="&#x3c0;" horiz-adv-x="636" 
d="M638 428q-2 -16 -17 -16h-56q-5 0 -7 -6l-28 -226q-6 -49 4.5 -64.5t37.5 -15.5q16 0 14 -16l-9 -68q-2 -16 -17 -16q-29 0 -46 0.5t-42 6.5t-38 18t-21 36t-3 59l36 286q0 6 -5 6h-178q-5 0 -7 -6l-47 -390q-3 -16 -18 -16h-81q-16 0 -14 16l48 390q0 6 -5 6h-61
q-16 0 -14 16l8 67q3 16 18 16h543q16 0 14 -16z" />
    <glyph glyph-name="Wgrave" unicode="&#x1e80;" horiz-adv-x="841" 
d="M537 783q3 -8 -1.5 -13.5t-12.5 -5.5h-64q-12 0 -17 10l-50 96q-9 19 12 19h77q12 0 17 -11zM194 0q-14 0 -16 14l-92 668q-3 18 15 18h88q14 0 15 -14l54 -450q0 -3 1.5 -4t3.5 0.5t3 3.5l159 450q4 14 18 14h87q15 0 16 -14l55 -450q0 -3 2 -4t3.5 0t2.5 4l163 450
q4 14 18 14h84q17 0 10 -18l-247 -668q-4 -14 -19 -14h-84q-15 0 -15 14l-55 471q0 3 -1.5 4t-3.5 -0.5t-3 -3.5l-165 -471q-4 -14 -18 -14h-79z" />
    <glyph glyph-name="wgrave" unicode="&#x1e81;" horiz-adv-x="738" 
d="M455 594q4 -8 -0.5 -13.5t-13.5 -5.5h-63q-12 0 -17 10l-50 96q-5 8 -1.5 13.5t13.5 5.5h76q12 0 17 -11zM161 0q-13 0 -16 13l-78 480q-2 18 16 18h85q14 0 14 -14l40 -328q0 -4 2 -4q4 -1 5 4l123 328q5 14 19 14h75q14 0 16 -14l45 -329q0 -5 4 -4l3 4l124 329
q5 14 19 14l84 -1q18 0 11 -18l-197 -479q-6 -13 -19 -13h-86q-13 0 -16 13l-46 299q-3 7 -7 3q-1 -1 -1 -3l-113 -298q-6 -14 -20 -14h-86z" />
    <glyph glyph-name="Wacute" unicode="&#x1e82;" horiz-adv-x="841" 
d="M455 764q-9 0 -12 5.5t2 13.5l62 95q8 11 20 11h77q9 0 11 -5.5t-4 -13.5l-74 -96q-6 -10 -19 -10h-63zM194 0q-14 0 -16 14l-92 668q-3 18 15 18h88q14 0 15 -14l54 -450q0 -3 1.5 -4t3.5 0.5t3 3.5l159 450q4 14 18 14h87q15 0 16 -14l55 -450q0 -3 2 -4t3.5 0t2.5 4
l163 450q4 14 18 14h84q17 0 10 -18l-247 -668q-4 -14 -19 -14h-84q-15 0 -15 14l-55 471q0 3 -1.5 4t-3.5 -0.5t-3 -3.5l-165 -471q-4 -14 -18 -14h-79z" />
    <glyph glyph-name="wacute" unicode="&#x1e83;" horiz-adv-x="738" 
d="M373 575q-8 0 -11 5.5t2 13.5l62 95q8 11 20 11h76q10 0 12 -5.5t-4 -13.5l-74 -96q-8 -10 -20 -10h-63zM161 0q-13 0 -16 13l-78 480q-2 18 16 18h85q14 0 14 -14l40 -328q0 -4 2 -4q4 -1 5 4l123 328q5 14 19 14h75q14 0 16 -14l45 -329q0 -5 4 -4l3 4l124 329
q5 14 19 14l84 -1q18 0 11 -18l-197 -479q-6 -13 -19 -13h-86q-13 0 -16 13l-46 299q-3 7 -7 3q-1 -1 -1 -3l-113 -298q-6 -14 -20 -14h-86z" />
    <glyph glyph-name="Wdieresis" unicode="&#x1e84;" horiz-adv-x="841" 
d="M407 770q-27 0 -42 17t-12 45q4 28 23 45t46 17q26 0 40.5 -17t11.5 -45q-4 -28 -22.5 -45t-44.5 -17zM584 770q-26 0 -41 17t-11 45q3 28 22 45t46 17t41.5 -17t10.5 -45q-3 -28 -22 -45t-46 -17zM194 0q-14 0 -16 14l-92 668q-3 18 15 18h88q14 0 15 -14l54 -450
q0 -3 1.5 -4t3.5 0.5t3 3.5l159 450q4 14 18 14h87q15 0 16 -14l55 -450q0 -3 2 -4t3.5 0t2.5 4l163 450q4 14 18 14h84q17 0 10 -18l-247 -668q-4 -14 -19 -14h-84q-15 0 -15 14l-55 471q0 3 -1.5 4t-3.5 -0.5t-3 -3.5l-165 -471q-4 -14 -18 -14h-79z" />
    <glyph glyph-name="wdieresis" unicode="&#x1e85;" horiz-adv-x="738" 
d="M325 581q-27 0 -42 17.5t-11 44.5q4 28 23 45t46 17q26 0 40.5 -17t10.5 -45q-3 -28 -22 -45t-45 -17zM503 581q-27 0 -41.5 17t-11.5 45q4 28 22.5 45t45.5 17t41.5 -17t11.5 -45q-4 -28 -22.5 -45t-45.5 -17zM161 0q-13 0 -16 13l-78 480q-2 18 16 18h85q14 0 14 -14
l40 -328q0 -4 2 -4q4 -1 5 4l123 328q5 14 19 14h75q14 0 16 -14l45 -329q0 -5 4 -4l3 4l124 329q5 14 19 14l84 -1q18 0 11 -18l-197 -479q-6 -13 -19 -13h-86q-13 0 -16 13l-46 299q-3 7 -7 3q-1 -1 -1 -3l-113 -298q-6 -14 -20 -14h-86z" />
    <glyph glyph-name="Ygrave" unicode="&#x1ef2;" horiz-adv-x="581" 
d="M407 783q3 -8 -1.5 -13.5t-12.5 -5.5h-63q-13 0 -18 10l-50 96q-9 19 12 19h77q12 0 17 -11zM230 1q-16 0 -14 16l33 263q0 1 -0.5 3.5t-0.5 3.5l-148 394q-7 19 13 19h88q12 0 17 -12l99 -275q4 -8 8 0l168 275q7 12 20 12h89q20 0 8 -19l-246 -394q-1 -3 -3 -7
l-32 -263q-2 -16 -18 -16h-81z" />
    <glyph glyph-name="ygrave" unicode="&#x1ef3;" horiz-adv-x="474" 
d="M331 602q3 -8 -1 -13.5t-13 -5.5h-63q-12 0 -17 10l-51 96q-4 8 -0.5 13.5t12.5 5.5h77q12 0 17 -11zM7 -199q-7 0 -5 16l8 64q2 16 8 16h6q58 0 85.5 19t51.5 80q1 3 1 8l-99 489q-3 18 15 18h88q14 0 15 -13l55 -331q2 -10 8 0l132 331q6 13 19 13h88q19 0 10 -18
l-234 -521q-32 -71 -59 -104.5t-70 -50t-117 -16.5h-6z" />
    <glyph glyph-name="endash" unicode="&#x2013;" horiz-adv-x="453" 
d="M56 233q-16 0 -14 16l9 68q2 16 17 16h360q16 0 13 -16l-8 -68q-2 -16 -17 -16h-360z" />
    <glyph glyph-name="emdash" unicode="&#x2014;" horiz-adv-x="648" 
d="M56 234q-16 0 -14 16l9 67q2 16 17 16h555q16 0 13 -16l-8 -67q-2 -16 -17 -16h-555z" />
    <glyph glyph-name="quoteleft" unicode="&#x2018;" horiz-adv-x="176" 
d="M59 482q-19 0 -10 19l97 187q5 12 19 12h59q18 0 11 -18l-75 -187q-6 -13 -19 -13h-82z" />
    <glyph glyph-name="quoteright" unicode="&#x2019;" horiz-adv-x="176" 
d="M223 700q19 0 10 -19l-97 -187q-5 -12 -19 -12h-59q-18 0 -11 18l75 187q6 13 19 13h82z" />
    <glyph glyph-name="quotesinglbase" unicode="&#x201a;" horiz-adv-x="582" 
d="M32 -91q-16 0 -11 17l61 216q5 15 19 15h70q17 0 10 -18l-82 -216q-5 -14 -19 -14h-48z" />
    <glyph glyph-name="quotedblleft" unicode="&#x201c;" horiz-adv-x="319" 
d="M59 482q-19 0 -10 18l88 187q7 13 20 13h55q19 0 11 -18l-68 -186q-4 -14 -18 -14h-78zM215 482q-17 0 -10 18l88 187q7 13 20 13h55q19 0 12 -18l-69 -186q-4 -14 -18 -14h-78z" />
    <glyph glyph-name="quotedblright" unicode="&#x201d;" horiz-adv-x="319" 
d="M210 700q18 0 11 -18l-88 -187q-7 -13 -20 -13h-56q-18 0 -11 18l68 186q4 14 19 14h77zM366 700q18 0 11 -18l-88 -187q-7 -13 -20 -13h-56q-18 0 -11 18l68 186q6 14 19 14h77z" />
    <glyph glyph-name="quotedblbase" unicode="&#x201e;" horiz-adv-x="334" 
d="M140 128q19 0 10 -18l-88 -187q-6 -13 -20 -13h-55q-19 0 -11 18l68 186q4 14 18 14h78zM296 128q19 0 10 -18l-88 -187q-5 -13 -20 -13h-55q-18 0 -11 18l68 186q4 14 18 14h78z" />
    <glyph glyph-name="dagger" unicode="&#x2020;" horiz-adv-x="428" 
d="M418 459q16 0 14 -16l-7 -57q-3 -16 -18 -16h-105q-6 0 -6 -6l-67 -548q-3 -16 -18 -16h-81q-16 0 -14 16l67 548q1 6 -5 6h-105q-16 0 -14 16l7 57q2 16 18 16h105q5 0 7 6l27 219q2 16 17 16h82q15 0 13 -16l-27 -219q0 -6 5 -6h105z" />
    <glyph glyph-name="daggerdbl" unicode="&#x2021;" horiz-adv-x="428" 
d="M425 386q-3 -16 -18 -16h-105q-6 0 -6 -6l-28 -228q-2 -6 5 -6h105q16 0 13 -16l-7 -57q-2 -16 -17 -16h-105q-6 0 -6 -6l-27 -219q-3 -16 -18 -16h-81q-16 0 -14 16l27 219q0 6 -5 6h-106q-16 0 -13 16l7 57q2 16 17 16h106q6 0 6 6l28 228q1 6 -5 6h-105q-16 0 -14 16
l7 57q2 16 18 16h105q5 0 7 6l27 219q2 16 17 16h82q15 0 13 -16l-27 -219q0 -6 5 -6h105q16 0 14 -16z" />
    <glyph glyph-name="bullet" unicode="&#x2022;" horiz-adv-x="305" 
d="M152 148q-51 0 -82 37t-25 88q7 52 47 88t91 36q49 0 79.5 -36t24.5 -88q-7 -51 -46.5 -88t-88.5 -37z" />
    <glyph glyph-name="ellipsis" unicode="&#x2026;" horiz-adv-x="803" 
d="M109 -1q-33 0 -52.5 22t-15.5 55q4 31 30.5 53.5t56.5 22.5q31 0 52.5 -22.5t17.5 -53.5q-4 -32 -29.5 -54.5t-59.5 -22.5zM382 -1q-34 0 -53 22t-15 55q4 31 30 53.5t57 22.5t52.5 -22.5t17.5 -53.5q-4 -32 -29.5 -54.5t-59.5 -22.5zM652 -1q-34 0 -53.5 22t-14.5 55
q4 31 30 53.5t57 22.5t52.5 -22.5t17.5 -53.5q-5 -32 -30 -54.5t-59 -22.5z" />
    <glyph glyph-name="perthousand" unicode="&#x2030;" horiz-adv-x="1126" 
d="M174 276q-63 0 -95.5 36.5t-24.5 98.5l20 163q8 62 49 98t104 36q62 0 94 -36.5t25 -97.5l-20 -163q-7 -62 -48.5 -98.5t-103.5 -36.5zM168 0q-20 0 -8 19l472 670q6 11 19 11h49q20 0 8 -19l-471 -670q-8 -11 -20 -11h-49zM182 342q28 0 47 17.5t23 46.5l21 171
q3 29 -11.5 47t-42.5 18t-47 -18t-23 -47l-21 -171q-3 -29 11.5 -46.5t42.5 -17.5zM634 -8q-62 0 -94 36.5t-25 98.5l20 163q7 61 48.5 97.5t103.5 36.5t94.5 -36.5t25.5 -97.5l-20 -163q-7 -62 -49 -98.5t-104 -36.5zM950 -8q-63 0 -95.5 36.5t-24.5 98.5l20 163
q8 62 49 98t104 36q62 0 94 -36.5t25 -97.5l-20 -163q-7 -62 -48.5 -98.5t-103.5 -36.5zM642 58q29 0 48 17.5t22 46.5l21 171q4 29 -11 47t-43 18t-46.5 -17.5t-22.5 -47.5l-21 -171q-4 -29 10.5 -46.5t42.5 -17.5zM958 58q28 0 47 17.5t23 46.5l21 171q3 29 -11.5 47
t-42.5 18t-47 -18t-23 -47l-21 -171q-3 -29 11.5 -46.5t42.5 -17.5z" />
    <glyph glyph-name="guilsinglleft" unicode="&#x2039;" horiz-adv-x="335" 
d="M247 126q5 -8 1.5 -13.5t-13.5 -5.5h-73q-13 0 -18 10l-80 153q-6 11 3 22l118 153q6 10 19 10h74q10 0 12 -5.5t-5 -13.5l-117 -151q-3 -5 -1 -8z" />
    <glyph glyph-name="guilsinglright" unicode="&#x203a;" horiz-adv-x="357" 
d="M87 107q-10 0 -12 5.5t4 13.5l118 151q3 5 1 8l-80 151q-5 8 -1.5 13.5t13.5 5.5h73q13 0 18 -10l80 -153q6 -11 -3 -22l-118 -153q-8 -10 -19 -10h-74z" />
    <glyph glyph-name="fraction" unicode="&#x2044;" horiz-adv-x="219" 
d="M-125 0q-9 0 -11 5.5t4 13.5l471 670q6 11 20 11h48q9 0 11.5 -5.5t-3.5 -13.5l-471 -670q-8 -11 -20 -11h-49z" />
    <glyph glyph-name="uni2074" unicode="&#x2074;" horiz-adv-x="346" 
d="M356 603q16 0 14 -16l-5 -37q-2 -16 -17 -16h-13q-6 0 -6 -6l-11 -86q-2 -16 -17 -16h-43q-16 0 -14 16l11 86q0 6 -5 6h-167q-16 0 -14 16l4 30q1 10 6 19l132 235q7 12 19 12h46q18 0 9 -19l-121 -217q-3 -7 4 -7h90q6 0 7 6l8 67q2 16 18 16h42q16 0 14 -16l-8 -67
q-2 -6 5 -6h12z" />
    <glyph glyph-name="uni2075" unicode="&#x2075;" horiz-adv-x="301" 
d="M327 620q9 -28 5 -64q-4 -34 -20 -64q-40 -74 -129 -74q-44 0 -73.5 22t-38.5 59q-3 15 -3 28q-1 8 4 12.5t12 4.5h46q14 0 14 -11l2 -11q7 -38 45 -38q33 0 50 29q12 18 15 42q3 25 -3 43q-12 28 -43 28q-34 0 -50 -22q-9 -12 -20 -12h-50q-16 0 -13 16l26 218
q3 16 18 16h216q16 0 14 -16l-4 -33q-3 -16 -18 -16h-152q-5 0 -7 -6l-11 -91q0 -7 7 -3q28 15 63 15q36 0 62 -18.5t36 -53.5z" />
    <glyph glyph-name="uni2076" unicode="&#x2076;" horiz-adv-x="309" 
d="M337 613q5 -23 1 -57q-3 -30 -15 -57q-18 -36 -54 -58.5t-80 -22.5q-43 0 -72 22t-39 59q-6 24 -2 58l22 179q7 51 45.5 81t96.5 30q55 0 86 -29t25 -77l-1 -6q-2 -16 -17 -16h-44q-15 0 -15 6l1 6q3 22 -9.5 36t-33.5 14q-24 0 -41 -15t-20 -40l-7 -54q-1 -4 1 -5t6 1
q28 22 64 22q37 0 65 -20.5t37 -56.5zM252 518q9 15 11 35q1 7 1 24q-1 8 -4 18q-10 29 -45 29t-52 -34q-9 -13 -13 -36q-2 -22 2 -34q7 -36 46 -36q37 0 54 34z" />
    <glyph glyph-name="uni2077" unicode="&#x2077;" horiz-adv-x="281" 
d="M116 426q-18 0 -10 18l161 329q2 7 -3 7h-112q-6 0 -7 -6l-3 -30q-2 -16 -18 -16h-30q-16 0 -13 16l11 86q3 16 18 16h232q15 0 13 -16l-5 -40q-2 -11 -6 -19l-163 -332q-7 -13 -20 -13h-45z" />
    <glyph glyph-name="uni2078" unicode="&#x2078;" horiz-adv-x="312" 
d="M332 601q6 -23 3 -56q-3 -29 -15 -51q-17 -34 -53 -55t-80 -21q-42 0 -72 20t-40 56q-8 28 -4 52q3 26 18 54q12 24 36 40q7 5 1 8q-18 18 -24 39q-10 23 -6 46q3 24 17 49q37 68 128 68q43 0 72.5 -18.5t39.5 -50.5q7 -22 4 -46q-3 -26 -17 -48q-11 -19 -34 -39
q-6 -3 -1 -8q19 -14 27 -39zM176 750q-6 -14 -7 -22t2 -22q9 -33 48 -33q44 0 57 33q7 14 7 22q1 10 -2 22q-8 34 -48 34q-38 0 -57 -34zM247 512q1 2 8 18q3 7 5 21q1 13 0 26q-7 39 -48 39q-38 0 -57 -39q-5 -12 -7 -26q-2 -12 1 -20q2 -15 3 -18q10 -29 44 -29
q35 0 51 28z" />
    <glyph glyph-name="uni2079" unicode="&#x2079;" horiz-adv-x="309" 
d="M348 766q6 -24 2 -58l-22 -179q-7 -51 -45.5 -81t-96.5 -30q-55 0 -86 29t-25 77l1 6q2 16 17 16h44q15 0 15 -6l-1 -6q-3 -22 9.5 -36t33.5 -14q24 0 41 15t20 40l7 54q1 4 -1 5t-6 -1q-30 -22 -64 -22q-37 0 -65 20.5t-37 56.5q-5 23 -1 57q3 30 15 57q18 36 54 58.5
t80 22.5q43 0 72 -22t39 -59zM263 675q10 15 12 36q4 20 -1 34q-7 36 -46 36q-37 0 -54 -34q-9 -15 -11 -35q-1 -7 -1 -24q1 -8 4 -18q10 -29 45 -29t52 34z" />
    <glyph glyph-name="franc" unicode="&#x20a3;" horiz-adv-x="617" 
d="M657 616q-3 -16 -18 -16h-325q-6 0 -6 -6l-23 -185q0 -6 5 -6h217q16 0 14 -16l-8 -68q-3 -16 -18 -16h-217q-6 0 -7 -6l-12 -96q0 -6 6 -6h126q15 0 13 -16l-5 -40q-2 -16 -17 -16h-126q-6 0 -7 -6l-12 -101q-3 -16 -18 -16h-81q-16 0 -14 16l13 101q0 6 -5 6h-50
q-16 0 -14 16l5 40q3 16 18 16h49q6 0 7 6l59 483q2 16 18 16h427q16 0 14 -16z" />
    <glyph glyph-name="Euro" unicode="&#x20ac;" horiz-adv-x="616" 
d="M342 92q41 0 71 22.5t42 61.5q5 16 19 13l79 -14q17 -3 11 -19q-23 -76 -85.5 -120t-148.5 -44q-98 0 -150 59t-40 156l6 48q0 6 -5 6h-59q-15 0 -13 16l4 31q2 16 17 16h58q6 0 7 6l5 40q0 6 -5 6h-58q-16 0 -14 16l4 31q2 16 17 16h59q6 0 6 6l6 49q12 97 78.5 155.5
t164.5 58.5q88 0 139.5 -45t54.5 -122q0 -16 -16 -18l-83 -11q-14 -1 -16 14q-2 38 -26.5 60t-65.5 22q-47 0 -79 -30.5t-38 -80.5l-6 -52q-2 -6 5 -6h200q19 0 12 -18l-14 -32q-6 -13 -19 -13h-187q-5 0 -7 -6l-5 -40q0 -6 6 -6h167q19 0 12 -18l-14 -32q-6 -13 -19 -13
h-154q-5 0 -7 -6l-6 -53q-6 -50 19 -80t71 -30z" />
    <glyph glyph-name="uni20BA" unicode="&#x20ba;" horiz-adv-x="625" 
d="M475 261q4 16 19 16h81q16 0 13 -16q-18 -103 -99.5 -176.5t-208.5 -81.5q-57 -3 -115 -3q-16 0 -14 16l32 261q1 3 -1 4.5t-5 0.5l-76 -22q-16 -5 -18 11l-6 36q-1 15 13 19l98 28q4 2 6 6l5 46q1 3 -1 4.5t-5 0.5l-76 -22q-16 -5 -18 11l-6 35q-3 14 13 19l98 28
q5 2 5 6l24 196q3 16 18 16h81q16 0 14 -16l-20 -161q0 -7 6 -5l135 38q15 4 18 -11l5 -35q3 -14 -13 -19l-155 -45q-6 -2 -6 -6l-6 -45q0 -7 7 -5l134 38q16 5 18 -11l6 -36q1 -15 -12 -19l-157 -45q-6 -2 -6 -6l-25 -205q-1 -3 1 -4.5t6 -0.5q79 6 130 50t63 110z" />
    <glyph glyph-name="uni20BD" unicode="&#x20bd;" horiz-adv-x="679" 
d="M457 292h-154q-5 0 -7 -6l-7 -57q0 -6 5 -6h196q16 0 14 -16l-5 -38q-2 -16 -18 -16h-195q-7 0 -7 -6l-16 -131q-2 -16 -18 -16h-81q-16 0 -14 16l16 131q2 6 -5 6h-75q-16 0 -14 16l5 38q2 16 17 16h76q6 0 7 6l7 57q0 6 -6 6h-75q-16 0 -14 16l8 62q2 16 17 16h76
q6 0 7 6l36 293q2 16 17 16h262q92 0 141.5 -57t38.5 -149q-11 -91 -77.5 -147t-157.5 -56zM341 601q-7 0 -7 -6l-25 -203q0 -6 5 -6h143q52 0 84.5 28t38.5 78q7 51 -19 80t-78 29h-142z" />
    <glyph glyph-name="uni2113" unicode="&#x2113;" horiz-adv-x="486" 
d="M351 105q13 10 22 -1l28 -42q8 -12 -2 -22q-49 -48 -138 -48q-70 0 -104 44t-24 122l6 49q0 8 -7 4q-16 -10 -25 -15q-14 -9 -19 7l-11 46q-3 13 9 21q36 22 60 38q5 2 5 8l22 187q8 75 58 138.5t124 65.5q59 2 91.5 -38t24.5 -103q-10 -80 -69 -147t-159 -135
q-4 -3 -4 -8l-12 -101q-11 -95 56 -95q37 0 68 25zM263 486l-10 -96q-1 -4 1 -4.5t5 1.5q115 90 126 170q4 31 -7 50.5t-35 17.5q-28 -3 -49.5 -38t-30.5 -101z" />
    <glyph glyph-name="trademark" unicode="&#x2122;" horiz-adv-x="645" 
d="M92 644q-16 0 -14 16l3 24q2 16 18 16h228q15 0 13 -16l-3 -24q-2 -16 -17 -16h-79q-6 0 -6 -6l-34 -273q-2 -16 -17 -16h-33q-15 0 -13 16l33 273q1 6 -5 6h-74zM607 690q7 10 19 10h35q16 0 14 -16l-39 -319q-3 -16 -18 -16h-33q-16 0 -13 16l27 221q0 4 -2 5t-5 -3
l-56 -72q-9 -10 -20 -10h-6q-11 0 -17 10l-40 72q-2 4 -4 3t-3 -5l-27 -221q-2 -16 -17 -16h-32q-16 0 -14 16l39 319q3 16 18 16h35q11 0 17 -10l55 -100q1 -2 3.5 -2t3.5 2z" />
    <glyph glyph-name="uni2126" unicode="&#x2126;" horiz-adv-x="618" 
d="M50 0q-15 0 -13 16l8 68q2 16 18 16h48q9 0 4 7q-52 57 -40 155l25 202q13 109 89.5 176.5t186.5 67.5q111 0 171 -67t46 -177l-24 -202q-12 -98 -79 -155q-7 -7 2 -7h49q16 0 13 -16l-8 -68q-2 -16 -17 -16h-192q-16 0 -14 16l9 72q1 13 16 17q39 11 69.5 48.5
t36.5 89.5l27 223q8 64 -24 103.5t-93 39.5t-102.5 -39t-49.5 -104l-27 -223q-6 -52 14.5 -89.5t56.5 -49.5q13 -4 12 -17l-9 -71q-2 -16 -17 -16h-192z" />
    <glyph glyph-name="estimated" unicode="&#x212e;" horiz-adv-x="823" 
d="M479 708q155 0 243.5 -102.5t68.5 -258.5q0 -4 -16 -4h-589q-6 0 -7 -6l-24 -194q0 -3 2 -7q38 -53 99.5 -82.5t138.5 -29.5q88 0 171 45.5t132 119.5q7 11 20 11h5q19 0 9 -19q-55 -86 -147.5 -137.5t-193.5 -51.5q-156 0 -244.5 101t-68.5 254q19 156 132 258.5
t269 102.5zM211 563q-4 -4 -4 -7l-22 -175q0 -6 6 -6h494q5 0 7 6l21 174q1 4 -2 7q-79 114 -236 114t-264 -113z" />
    <glyph glyph-name="oneeighth" unicode="&#x215b;" horiz-adv-x="771" 
d="M166 296q-2 -16 -17 -16h-44q-16 0 -13 16l40 330q1 3 -0.5 4.5t-4.5 0.5l-22 -3q-8 -2 -12 2t-3 12l4 26q1 12 14 18l24 10q9 4 19 4h49q16 0 14 -16zM561 689q8 11 20 11h48q9 0 11.5 -5.5t-3.5 -13.5l-471 -670q-6 -11 -20 -11h-49q-9 0 -11 5.5t4 13.5zM738 175
q7 -20 3 -56q-3 -29 -15 -51q-17 -34 -52.5 -55t-79.5 -21q-43 0 -72.5 20t-39.5 56q-7 25 -5 52q5 27 19 54q12 24 36 40q6 5 1 8q-17 17 -25 39q-8 21 -6 46q3 25 18 49q37 68 128 68q90 0 111 -69q7 -20 5 -46q-5 -26 -17 -48q-15 -23 -35 -39q-5 -2 -1 -8q21 -14 27 -39
zM583 324q-7 -12 -8 -22q0 -10 3 -22q7 -33 48 -33q43 0 56 33q7 14 8 22q1 10 -2 22q-8 34 -48 34t-57 -34zM654 86q1 3 3.5 9t4.5 9q2 7 4 21q1 9 1 26q-7 39 -48 39q-40 0 -57 -39q-5 -12 -7 -26q-2 -11 0 -20q1 -8 4 -18q10 -29 44 -29q33 0 51 28z" />
    <glyph glyph-name="threeeighths" unicode="&#x215c;" horiz-adv-x="862" 
d="M298 351q-40 -72 -127 -72q-44 0 -73.5 22.5t-38.5 61.5q-5 20 -3 40q2 16 17 16h44q14 0 14 -15q0 -10 2 -22q7 -37 46 -37q32 0 50 27q12 20 17 49q3 31 -6 52q-9 27 -42 27q-11 0 -20 -4q-14 -6 -21 4l-17 26q-8 13 4 23l96 82q4 2 3 4.5t-5 2.5h-131q-15 0 -13 16
l4 34q2 16 18 16h219q16 0 13 -16l-4 -38q-1 -12 -11 -20l-85 -77q-5 -5 2 -7q47 -10 65 -57q9 -32 4 -70q-4 -35 -21 -68zM652 689q8 11 20 11h48q9 0 11.5 -5.5t-2.5 -13.5l-472 -670q-6 -11 -19 -11h-50q-19 0 -7 19zM829 175q8 -24 3 -56q-3 -29 -15 -51
q-17 -34 -52.5 -55t-79.5 -21q-43 0 -72.5 20t-39.5 56q-8 28 -4 52q3 26 18 54q12 24 36 40q6 5 1 8q-17 17 -25 39q-9 23 -5 46q3 27 17 49q37 68 128 68q43 0 72 -18t40 -51q7 -22 4 -46q-3 -26 -17 -48q-12 -20 -35 -39q-5 -3 0 -8q20 -14 26 -39zM674 324
q-5 -10 -7 -22q-1 -8 2 -22q7 -33 48 -33q42 0 57 33q7 20 7 22q1 10 -2 22q-8 34 -48 34t-57 -34zM745 86q1 2 8 18q4 14 4 21q3 12 1 26q-7 39 -48 39q-38 0 -57 -39q-5 -12 -7 -26q-2 -11 0 -20q1 -8 4 -18q10 -29 44 -29q33 0 51 28z" />
    <glyph glyph-name="fiveeighths" unicode="&#x215d;" horiz-adv-x="846" 
d="M636 689q6 11 19 11h49q8 0 10.5 -5.5t-2.5 -13.5l-471 -670q-8 -11 -20 -11h-49q-20 0 -8 19zM294 347q-40 -74 -129 -74q-43 0 -72.5 22t-39.5 59q-3 15 -3 28q-1 8 4 12.5t12 4.5h46q14 0 14 -11l2 -11q7 -38 46 -38q31 0 50 29q11 19 15 42q2 26 -4 43q-12 28 -43 28
q-34 0 -50 -22q-9 -12 -20 -12h-50q-15 0 -13 16l27 218q2 16 17 16h216q16 0 14 -16l-4 -33q-2 -16 -18 -16h-152q-6 0 -6 -6l-12 -91q0 -8 7 -3q28 15 63 15q76 0 99 -72q8 -29 4 -64q-5 -38 -20 -64zM813 175q7 -20 3 -56q-3 -29 -15 -51q-17 -34 -53 -55t-80 -21
q-42 0 -72 20t-40 56q-6 23 -4 52q2 21 18 54q12 24 36 40q7 4 2 8q-19 17 -25 39q-8 21 -6 46q3 25 18 49q37 68 127 68q91 0 112 -69q7 -22 4 -46q-3 -25 -16 -48q-15 -23 -35 -39q-6 -3 -1 -8q20 -14 27 -39zM658 324q-7 -12 -8 -22q-1 -8 2 -22q9 -33 49 -33q43 0 56 33
q7 14 8 22q0 12 -3 22q-8 34 -48 34q-39 0 -56 -34zM728 86q6 10 8 18q3 7 5 21q1 13 0 26q-7 39 -47 39q-39 0 -58 -39q-5 -12 -7 -26q-1 -8 1 -20q2 -13 4 -18q8 -29 43 -29t51 28z" />
    <glyph glyph-name="seveneighths" unicode="&#x215e;" horiz-adv-x="791" 
d="M163 293q-7 -13 -20 -13h-45q-18 0 -10 18l161 329q2 7 -3 7h-112q-6 0 -6 -6l-4 -30q-2 -16 -18 -16h-30q-16 0 -13 16l11 86q3 16 18 16h232q15 0 13 -16l-5 -40q-2 -11 -6 -19zM580 689q8 11 20 11h49q8 0 10.5 -5.5t-2.5 -13.5l-471 -670q-8 -11 -20 -11h-50
q-19 0 -7 19zM758 175q6 -23 3 -56q-5 -31 -15 -51q-17 -34 -53 -55t-80 -21q-43 0 -72.5 20t-39.5 56q-8 28 -4 52q3 26 18 54q12 24 36 40q7 5 1 8q-18 18 -24 39q-10 23 -6 46q3 24 17 49q37 68 128 68q43 0 72.5 -18.5t39.5 -50.5q7 -22 4 -46q-3 -26 -17 -48
q-12 -20 -35 -39q-5 -3 0 -8q19 -14 27 -39zM602 324q-6 -14 -7 -22t2 -22q7 -33 48 -33q42 0 57 33q7 20 7 22q1 10 -2 22q-8 34 -48 34q-38 0 -57 -34zM673 86q1 2 8 18q4 14 5 21q1 13 0 26q-7 39 -48 39q-38 0 -57 -39q-5 -12 -7 -26q-2 -12 1 -20q2 -15 3 -18
q10 -29 44 -29q33 0 51 28z" />
    <glyph glyph-name="partialdiff" unicode="&#x2202;" horiz-adv-x="574" 
d="M486 621q39 -59 49 -151t-6 -167q-10 -63 -31 -116t-55 -98.5t-86 -71t-118 -25.5q-100 0 -153 59.5t-40 163.5q13 109 86.5 169t167.5 58q65 -1 115 -33q4 -2 6 -0.5t1 5.5q0 81 -29 130q-28 47 -83 51q-54 5 -116 -28q-16 -7 -20 7l-18 73q-3 15 11 21q84 42 164 37
q100 -4 155 -84zM257 92q117 0 153 181q0 5 -1 7q-15 32 -44.5 50.5t-67.5 17.5q-51 -1 -91 -37t-47 -92q-7 -55 20.5 -91t77.5 -36z" />
    <glyph glyph-name="uni2206" unicode="&#x2206;" horiz-adv-x="633" 
d="M22 0q-15 0 -13 16l9 73q2 11 6 19l311 580q6 12 19 12h58q13 0 16 -12l169 -581q2 -7 2 -19l-9 -72q-2 -16 -18 -16h-550zM132 107q-3 -7 4 -7h347q8 0 5 7l-121 435q-2 10 -8 0z" />
    <glyph glyph-name="product" unicode="&#x220f;" horiz-adv-x="619" 
d="M616 800q16 0 14 -16l-119 -968q-2 -16 -18 -16h-81q-16 0 -14 16l108 878q2 6 -5 6h-245q-6 0 -7 -6l-108 -878q-2 -16 -17 -16h-82q-15 0 -13 16l119 968q2 16 17 16h451z" />
    <glyph glyph-name="summation" unicode="&#x2211;" horiz-adv-x="583" 
d="M42 -200q-15 0 -13 16l9 73q2 14 7 20l273 400q3 5 0 8l-181 330q-5 11 -4 20l9 73q2 16 18 16h438q16 0 14 -16l-9 -68q-2 -16 -17 -16h-332q-8 0 -5 -7l186 -325q6 -11 -2 -22l-276 -395q-3 -7 3 -7h333q16 0 14 -16l-9 -68q-2 -16 -17 -16h-439z" />
    <glyph glyph-name="minus" unicode="&#x2212;" horiz-adv-x="476" 
d="M58 255q-15 0 -13 16l8 68q2 16 18 16h382q16 0 13 -16l-8 -68q-2 -16 -17 -16h-383z" />
    <glyph glyph-name="uni2215" unicode="&#x2215;" horiz-adv-x="497" 
d="M22 0q-8 0 -10.5 5.5t2.5 13.5l416 669q8 12 20 12h71q8 0 10.5 -5.5t-2.5 -13.5l-415 -669q-8 -12 -20 -12h-72z" />
    <glyph glyph-name="uni2219" unicode="&#x2219;" horiz-adv-x="305" 
d="M156 177q-51 0 -82.5 37t-24.5 88q6 52 46 88t91 36q49 0 80 -36t24 -88q-6 -51 -45.5 -88t-88.5 -37z" />
    <glyph glyph-name="radical" unicode="&#x221a;" horiz-adv-x="760" 
d="M134 -200q-14 0 -17 13l-87 367q-5 15 11 20l80 26q15 5 18 -10l50 -219q1 -7 5 -4l2 4l297 782q5 14 20 14h250q16 0 13 -16l-8 -68q-2 -16 -17 -16h-173q-4 0 -7 -5l-334 -874q-5 -14 -19 -14h-84z" />
    <glyph glyph-name="infinity" unicode="&#x221e;" horiz-adv-x="733" 
d="M572 495q74 0 116 -50.5t33 -125.5q-9 -76 -63.5 -126t-131.5 -50q-51 0 -86 23.5t-66 70.5q-2 6 -8 0q-86 -94 -170 -94q-70 0 -112 51.5t-33 126.5q9 74 63.5 124t127.5 50q89 0 147 -93q2 -6 9 1q87 92 174 92zM208 234q30 0 54.5 19.5t61.5 63.5q3 5 1 8
q-25 43 -44 61t-48 18q-37 0 -63 -23.5t-31 -59.5q-4 -37 16 -62t53 -25zM538 234q39 0 64.5 23.5t30.5 61.5t-14.5 61.5t-55.5 23.5q-32 0 -60 -19.5t-65 -62.5q-3 -4 0 -10q24 -42 45.5 -60t54.5 -18z" />
    <glyph glyph-name="integral" unicode="&#x222b;" horiz-adv-x="409" 
d="M1 -200q-17 0 -15 16l8 62q2 16 17 16h24q42 0 60 17.5t24 63.5l77 560q13 102 58 133t170 32q17 0 15 -16l-8 -62q-2 -16 -17 -16h-22q-43 0 -61 -17.5t-24 -63.5l-77 -560q-14 -102 -59 -133t-170 -32z" />
    <glyph glyph-name="approxequal" unicode="&#x2248;" horiz-adv-x="506" 
d="M363 335q-38 0 -86 29q-46 29 -76 29q-40 0 -69 -34q-11 -14 -22 -5l-39 31q-11 10 -5 21q22 39 61.5 63.5t81.5 24.5q38 0 80 -26q3 -2 9.5 -6t9 -6t8.5 -5.5t10 -5t9.5 -4t10.5 -3.5t11 -2t12 -1q30 0 60 34q10 13 22 4l47 -34q11 -8 3 -21q-23 -37 -60 -60t-78 -23z
M337 120q-37 0 -87 29q-46 29 -76 29q-39 0 -68 -34q-11 -14 -22 -5l-40 31q-11 9 -4 21q22 39 61.5 63.5t81.5 24.5q36 0 80 -26q49 -33 79 -33q31 0 61 34q9 12 22 4l47 -34q11 -8 3 -21q-23 -37 -60 -60t-78 -23z" />
    <glyph glyph-name="notequal" unicode="&#x2260;" horiz-adv-x="476" 
d="M472 381q-3 -16 -18 -16h-132q-5 0 -7 -5l-49 -86q-3 -7 4 -7h172q16 0 14 -16l-9 -68q-2 -16 -17 -16h-219q-5 0 -8 -4l-43 -77q-7 -12 -19 -12h-37q-20 0 -10 19l38 67q4 7 -4 7h-80q-16 0 -14 16l8 68q3 16 18 16h128q5 0 7 5l49 86q3 7 -4 7h-168q-16 0 -14 16l9 68
q2 16 17 16h216q5 0 7 5l46 81q7 12 19 12h37q19 0 10 -19l-41 -72q-3 -7 4 -7h84q16 0 14 -16z" />
    <glyph glyph-name="lessequal" unicode="&#x2264;" horiz-adv-x="476" 
d="M445 160q-2 -21 -20 -13l-361 179q-10 6 -9 18l9 75q1 12 14 18l405 179q8 4 13 0t4 -13l-10 -78q-1 -12 -14 -18l-293 -121q-9 -4 -1 -8l264 -122q10 -6 9 -18zM428 16q-2 -16 -18 -16h-382q-16 0 -13 16l8 68q2 16 17 16h383q15 0 13 -16z" />
    <glyph glyph-name="greaterequal" unicode="&#x2265;" horiz-adv-x="476" 
d="M48 147q-8 -4 -13 0t-4 13l10 78q1 12 14 18l293 122q2 1 3.5 2.5t0.5 3t-3 2.5l-263 121q-11 6 -10 18l10 78q1 9 7 13t13 0l361 -179q10 -6 9 -18l-9 -75q-1 -12 -14 -18zM27 0q-16 0 -13 16l8 68q2 16 17 16h383q15 0 13 -16l-8 -68q-2 -16 -18 -16h-382z" />
    <glyph glyph-name="lozenge" unicode="&#x25ca;" horiz-adv-x="508" 
d="M201 -51q-13 0 -17 12l-126 378q-3 11 3 22l220 378q7 12 20 12h52q13 0 17 -12l127 -378q3 -10 -2 -22l-219 -378q-7 -12 -20 -12h-55zM241 79q1 -3 3 -3t4 3l147 267q1 2 1 8l-81 267q-3 6 -8 0l-146 -267q-3 -5 -1 -8z" />
    <glyph glyph-name="i.loclTRK" horiz-adv-x="227" 
d="M162 583q-25 0 -39 16.5t-10 41.5q3 25 20.5 41t42.5 16t38 -15.5t10 -41.5t-20 -42t-42 -16zM52 0q-15 0 -13 16l59 479q2 16 17 16h82q15 0 13 -16l-59 -479q-2 -16 -17 -16h-82z" />
    <glyph glyph-name="a.alt" horiz-adv-x="506" 
d="M294 519q93 0 143 -47.5t41 -122.5l-41 -333q-2 -16 -17 -16h-81q-16 0 -14 16l3 25q1 4 -1 4.5t-6 -1.5q-57 -52 -145 -52q-73 0 -114 38t-32 113q10 78 68 121.5t154 43.5h103q5 0 7 6l2 23q5 39 -15 60.5t-65 21.5q-71 0 -92 -47q-6 -14 -19 -13l-86 11q-16 2 -13 13
q16 60 76.5 98t143.5 38zM218 84q47 0 84.5 26t42.5 66l5 46q2 6 -5 6h-80q-52 0 -84.5 -20t-36.5 -57q-4 -32 16.5 -49.5t57.5 -17.5z" />
    <glyph glyph-name="a.sc" horiz-adv-x="539" 
d="M400 0q-13 0 -16 13l-12 74q-1 5 -7 5h-207q-6 0 -8 -5l-30 -74q-6 -13 -19 -13h-81q-18 0 -10 18l243 546q6 13 19 13h99q14 0 15 -13l109 -546q3 -18 -15 -18h-80zM194 190q-3 -7 4 -7h149q6 0 6 7l-44 258q-2 10 -8 0z" />
    <glyph glyph-name="aacute.sc" horiz-adv-x="539" 
d="M437 766q10 0 12 -5.5t-4 -13.5l-74 -96q-7 -10 -20 -10h-63q-8 0 -11 5.5t2 13.5l62 95q8 11 20 11h76zM400 0q-13 0 -16 13l-12 74q-1 5 -7 5h-207q-6 0 -8 -5l-30 -74q-6 -13 -19 -13h-81q-18 0 -10 18l243 546q6 13 19 13h99q14 0 15 -13l109 -546q3 -18 -15 -18h-80
zM194 190q-3 -7 4 -7h149q6 0 6 7l-44 258q-2 10 -8 0z" />
    <glyph glyph-name="abreve.sc" horiz-adv-x="539" 
d="M324 609q-44 0 -73 28t-30 70q0 17 17 17h31q12 0 15 -15q2 -20 15 -32.5t32 -12.5t35.5 12.5t23.5 32.5q6 15 18 15h30q17 0 14 -16q-11 -42 -47 -70.5t-81 -28.5zM400 0q-13 0 -16 13l-12 74q-1 5 -7 5h-207q-6 0 -8 -5l-30 -74q-6 -13 -19 -13h-81q-18 0 -10 18
l243 546q6 13 19 13h99q14 0 15 -13l109 -546q3 -18 -15 -18h-80zM194 190q-3 -7 4 -7h149q6 0 6 7l-44 258q-2 10 -8 0z" />
    <glyph glyph-name="uni01CE.sc" horiz-adv-x="539" 
d="M391 637q-9 -10 -20 -10h-91q-11 0 -17 10l-54 98q-4 8 -0.5 13.5t13.5 5.5h55q11 0 17 -10l35 -65q2 -6 8 0l50 65q9 10 20 10h54q10 0 12 -5.5t-4 -13.5zM400 0q-13 0 -16 13l-12 74q-1 5 -7 5h-207q-6 0 -8 -5l-30 -74q-6 -13 -19 -13h-81q-18 0 -10 18l243 546
q6 13 19 13h99q14 0 15 -13l109 -546q3 -18 -15 -18h-80zM194 190q-3 -7 4 -7h149q6 0 6 7l-44 258q-2 10 -8 0z" />
    <glyph glyph-name="acircumflex.sc" horiz-adv-x="539" 
d="M340 711q-1 2 -3.5 2t-3.5 -2l-51 -64q-9 -10 -19 -10h-58q-9 0 -11.5 5.5t4.5 13.5l83 98q7 10 19 10h84q10 0 17 -10l60 -97q5 -7 1 -13.5t-13 -6.5h-57q-11 0 -17 10zM400 0q-13 0 -16 13l-12 74q-1 5 -7 5h-207q-6 0 -8 -5l-30 -74q-6 -13 -19 -13h-81q-18 0 -10 18
l243 546q6 13 19 13h99q14 0 15 -13l109 -546q3 -18 -15 -18h-80zM194 190q-3 -7 4 -7h149q6 0 6 7l-44 258q-2 10 -8 0z" />
    <glyph glyph-name="adieresis.sc" horiz-adv-x="539" 
d="M240 647q-27 0 -42 17.5t-11 44.5q4 28 23 45t46 17q26 0 40.5 -17t10.5 -45q-3 -28 -22 -45t-45 -17zM418 647q-27 0 -41.5 17t-11.5 45q4 28 22.5 45t45.5 17t41.5 -17t11.5 -45q-4 -28 -22.5 -45t-45.5 -17zM400 0q-13 0 -16 13l-12 74q-1 5 -7 5h-207q-6 0 -8 -5
l-30 -74q-6 -13 -19 -13h-81q-18 0 -10 18l243 546q6 13 19 13h99q14 0 15 -13l109 -546q3 -18 -15 -18h-80zM194 190q-3 -7 4 -7h149q6 0 6 7l-44 258q-2 10 -8 0z" />
    <glyph glyph-name="agrave.sc" horiz-adv-x="539" 
d="M370 660q4 -8 -0.5 -13.5t-13.5 -5.5h-63q-12 0 -17 10l-50 96q-5 8 -1.5 13.5t13.5 5.5h76q12 0 17 -11zM400 0q-13 0 -16 13l-12 74q-1 5 -7 5h-207q-6 0 -8 -5l-30 -74q-6 -13 -19 -13h-81q-18 0 -10 18l243 546q6 13 19 13h99q14 0 15 -13l109 -546q3 -18 -15 -18
h-80zM194 190q-3 -7 4 -7h149q6 0 6 7l-44 258q-2 10 -8 0z" />
    <glyph glyph-name="amacron.sc" horiz-adv-x="539" 
d="M462 729q16 0 14 -16l-6 -48q-3 -16 -18 -16h-245q-16 0 -14 16l6 48q2 16 18 16h245zM400 0q-13 0 -16 13l-12 74q-1 5 -7 5h-207q-6 0 -8 -5l-30 -74q-6 -13 -19 -13h-81q-18 0 -10 18l243 546q6 13 19 13h99q14 0 15 -13l109 -546q3 -18 -15 -18h-80zM194 190
q-3 -7 4 -7h149q6 0 6 7l-44 258q-2 10 -8 0z" />
    <glyph glyph-name="aogonek.sc" horiz-adv-x="553" 
d="M470 -121q16 3 17 -12l1 -31q0 -15 -13 -19q-25 -5 -52 -7t-51 14t-29 48q-8 64 65 121q6 5 1 7h-9q-13 0 -16 13l-12 74q-1 5 -7 5h-207q-6 0 -8 -5l-30 -74q-6 -13 -19 -13h-81q-18 0 -10 18l243 546q6 13 19 13h99q14 0 15 -13l109 -546l3 -18h-1q-80 -53 -76 -96
q1 -17 15 -23.5t34 -1.5zM194 190q-3 -7 4 -7h149q6 0 6 7l-44 258q-2 10 -8 0z" />
    <glyph glyph-name="aring.sc" horiz-adv-x="539" 
d="M327 629q-45 0 -71.5 31.5t-21.5 76.5q6 46 40.5 77t78.5 31t71 -31t22 -77q-6 -45 -40.5 -76.5t-78.5 -31.5zM346 791q-22 0 -39 -15.5t-20 -38.5q-2 -22 11 -37.5t35 -15.5q21 0 38.5 15.5t20.5 37.5q3 23 -10.5 38.5t-35.5 15.5zM400 0q-13 0 -16 13l-12 74q-1 5 -7 5
h-207q-6 0 -8 -5l-30 -74q-6 -13 -19 -13h-81q-18 0 -10 18l243 546q6 13 19 13h99q14 0 15 -13l109 -546q3 -18 -15 -18h-80zM194 190q-3 -7 4 -7h149q6 0 6 7l-44 258q-2 10 -8 0z" />
    <glyph glyph-name="atilde.sc" horiz-adv-x="539" 
d="M296 688q-25 0 -41 -19q-11 -14 -22 -5l-24 20q-12 8 -3 21q35 60 92 60q24 0 59 -23q25 -19 44 -19q24 0 39 20q12 14 23 5l24 -18q11 -8 3 -22q-41 -62 -96 -62q-26 0 -60 25q-21 17 -38 17zM400 0q-13 0 -16 13l-12 74q-1 5 -7 5h-207q-6 0 -8 -5l-30 -74
q-6 -13 -19 -13h-81q-18 0 -10 18l243 546q6 13 19 13h99q14 0 15 -13l109 -546q3 -18 -15 -18h-80zM194 190q-3 -7 4 -7h149q6 0 6 7l-44 258q-2 10 -8 0z" />
    <glyph glyph-name="ae.sc" horiz-adv-x="796" 
d="M805 493q-3 -16 -18 -16h-259q-6 0 -7 -6l-15 -124q0 -6 5 -6h165q16 0 14 -16l-8 -67q-3 -16 -18 -16h-165q-6 0 -6 -6l-16 -130q-1 -6 5 -6h259q16 0 13 -16l-8 -68q-2 -16 -18 -16h-362q-16 0 -14 16l9 70q0 6 -5 6h-167q-6 0 -7 -4l-49 -77q-7 -11 -20 -11h-91
q-8 0 -10.5 5.5t2.5 13.5l346 547q7 11 20 11h419q16 0 14 -16zM245 190q-3 -7 3 -7h119q6 0 6 6l30 240q1 5 -1.5 5.5t-5.5 -3.5z" />
    <glyph glyph-name="b.sc" horiz-adv-x="517" 
d="M415 302q-8 -4 0 -8q71 -40 61 -133q-10 -80 -69 -120.5t-147 -40.5h-211q-15 0 -13 16l67 545q2 16 17 16h204q94 0 139.5 -38.5t35.5 -120.5q-10 -83 -84 -116zM211 477q-5 0 -7 -6l-15 -125q-1 -6 5 -6h109q34 0 57.5 19t27.5 49q4 32 -15 50.5t-54 18.5h-108z
M280 101q35 0 58 19.5t27 53.5q4 32 -15 52t-53 20h-115q-6 0 -6 -6l-16 -133q-2 -6 5 -6h115z" />
    <glyph glyph-name="c.sc" horiz-adv-x="504" 
d="M235 -7q-97 0 -148.5 59t-39.5 157l20 161q12 97 77.5 155.5t162.5 58.5q96 0 147.5 -56t40.5 -149q-2 -10 -16 -11l-83 -5q-5 0 -8.5 0.5t-5.5 1.5t-1 3v5q7 50 -16.5 79.5t-69.5 31.5q-46 1 -77.5 -29.5t-37.5 -81.5l-21 -170q-6 -50 18 -80t70 -30q45 0 76 30t38 80
q0 12 16 10l81 -4q15 -1 15 -5v-4q-12 -94 -77 -150.5t-161 -56.5z" />
    <glyph glyph-name="cacute.sc" horiz-adv-x="504" 
d="M276 648q-9 0 -12 5.5t2 13.5l62 95q8 11 20 11h77q9 0 11 -5.5t-4 -13.5l-74 -96q-8 -10 -19 -10h-63zM235 -7q-97 0 -148.5 59t-39.5 157l20 161q12 97 77.5 155.5t162.5 58.5q96 0 147.5 -56t40.5 -149q-2 -10 -16 -11l-83 -5q-5 0 -8.5 0.5t-5.5 1.5t-1 3v5
q7 50 -16.5 79.5t-69.5 31.5q-46 1 -77.5 -29.5t-37.5 -81.5l-21 -170q-6 -50 18 -80t70 -30q45 0 76 30t38 80q0 12 16 10l81 -4q15 -1 15 -5v-4q-12 -94 -77 -150.5t-161 -56.5z" />
    <glyph glyph-name="ccaron.sc" horiz-adv-x="504" 
d="M267 634q-11 0 -17 10l-54 98q-4 8 -0.5 13.5t13.5 5.5h55q11 0 17 -10l35 -65q4 -6 8 0l50 65q9 10 20 10h54q10 0 12 -5.5t-4 -13.5l-78 -98q-9 -10 -20 -10h-91zM235 -7q-97 0 -148.5 59t-39.5 157l20 161q12 97 77.5 155.5t162.5 58.5q96 0 147.5 -56t40.5 -149
q-2 -10 -16 -11l-83 -5q-5 0 -8.5 0.5t-5.5 1.5t-1 3v5q7 50 -16.5 79.5t-69.5 31.5q-46 1 -77.5 -29.5t-37.5 -81.5l-21 -170q-6 -50 18 -80t70 -30q45 0 76 30t38 80q0 12 16 10l81 -4q15 -1 15 -5v-4q-12 -94 -77 -150.5t-161 -56.5z" />
    <glyph glyph-name="ccedilla.sc" horiz-adv-x="504" 
d="M494 374q0 -4 -15 -6l-83 -5q-5 0 -8.5 0.5t-5.5 1.5t-1 3v5q7 50 -16.5 79.5t-69.5 31.5q-46 1 -77.5 -29.5t-37.5 -81.5l-21 -170q-6 -50 18 -80t70 -30q45 0 76 30t38 80q0 12 16 10l81 -4q15 -1 15 -5v-4q-10 -86 -66 -141t-140 -64q-8 -2 -3 -8q45 -53 25 -109
q-13 -32 -41 -48t-54.5 -14t-50.5 7q-11 4 -8 19l8 31q6 15 20 12q43 -11 56 25q14 38 -43 88l-6 3q-67 18 -100 73t-23 135l20 161q12 97 77.5 155.5t162.5 58.5q96 0 147.5 -56t40.5 -149z" />
    <glyph glyph-name="cdotaccent.sc" horiz-adv-x="504" 
d="M315 645q-25 0 -38.5 16t-10.5 42q3 25 20.5 41t42.5 16t38 -15.5t10 -41.5t-20 -42t-42 -16zM235 -7q-97 0 -148.5 59t-39.5 157l20 161q12 97 77.5 155.5t162.5 58.5q96 0 147.5 -56t40.5 -149q-2 -10 -16 -11l-83 -5q-5 0 -8.5 0.5t-5.5 1.5t-1 3v5q7 50 -16.5 79.5
t-69.5 31.5q-46 1 -77.5 -29.5t-37.5 -81.5l-21 -170q-6 -50 18 -80t70 -30q45 0 76 30t38 80q0 12 16 10l81 -4q15 -1 15 -5v-4q-12 -94 -77 -150.5t-161 -56.5z" />
    <glyph glyph-name="d.sc" horiz-adv-x="513" 
d="M49 0q-15 0 -13 16l67 545q2 16 17 16h201q93 0 143.5 -48t40.5 -127l-28 -227q-10 -79 -72 -127t-155 -48h-201zM159 106q0 -6 6 -6h102q39 0 66.5 25.5t33.5 67.5l24 191q5 42 -16.5 67.5t-61.5 25.5h-102q-5 0 -7 -6z" />
    <glyph glyph-name="eth.sc" horiz-adv-x="557" 
d="M365 577q93 0 143.5 -48t40.5 -127l-28 -227q-10 -79 -72 -127t-155 -48h-201q-16 0 -13 16l29 236q0 6 -6 6h-22q-16 0 -13 16l5 46q2 16 18 16h22q5 0 7 6l26 219q3 16 18 16h201zM411 193l23 191q5 42 -16.5 67.5t-61.5 25.5h-101q-7 0 -7 -6l-16 -129q0 -6 5 -6h60
q16 0 14 -16l-6 -46q-2 -16 -17 -16h-60q-6 0 -7 -6l-18 -146q0 -6 5 -6h103q38 0 66 25.5t34 67.5z" />
    <glyph glyph-name="dcaron.sc" horiz-adv-x="513" 
d="M262 631q-11 0 -17 10l-54 98q-4 8 -0.5 13.5t13.5 5.5h55q11 0 17 -10l35 -65q2 -6 8 0l50 65q9 10 20 10h54q10 0 12 -5.5t-4 -13.5l-78 -98q-9 -10 -20 -10h-91zM49 0q-15 0 -13 16l67 545q2 16 17 16h201q93 0 143.5 -48t40.5 -127l-28 -227q-10 -79 -72 -127
t-155 -48h-201zM159 106q0 -6 6 -6h102q39 0 66.5 25.5t33.5 67.5l24 191q5 42 -16.5 67.5t-61.5 25.5h-102q-5 0 -7 -6z" />
    <glyph glyph-name="dcroat.sc" horiz-adv-x="557" 
d="M365 577q93 0 143.5 -48t40.5 -127l-28 -227q-10 -79 -72 -127t-155 -48h-201q-16 0 -13 16l29 236q0 6 -6 6h-22q-16 0 -13 16l5 46q2 16 18 16h22q5 0 7 6l26 219q3 16 18 16h201zM411 193l23 191q5 42 -16.5 67.5t-61.5 25.5h-101q-7 0 -7 -6l-16 -129q0 -6 5 -6h60
q16 0 14 -16l-6 -46q-2 -16 -17 -16h-60q-6 0 -7 -6l-18 -146q0 -6 5 -6h103q38 0 66 25.5t34 67.5z" />
    <glyph glyph-name="e.sc" horiz-adv-x="487" 
d="M495 492q-2 -16 -18 -16h-266q-5 0 -7 -6l-15 -123q0 -6 5 -6h174q16 0 13 -16l-8 -67q-2 -16 -17 -16h-174q-6 0 -7 -6l-16 -130q0 -6 6 -6h266q16 0 14 -16l-8 -68q-3 -16 -18 -16h-370q-15 0 -13 16l67 545q2 16 17 16h370q16 0 13 -16z" />
    <glyph glyph-name="eacute.sc" horiz-adv-x="487" 
d="M421 776q10 0 12 -5.5t-4 -13.5l-74 -96q-7 -10 -20 -10h-63q-9 0 -11.5 5.5t2.5 13.5l62 95q8 11 20 11h76zM495 492q-2 -16 -18 -16h-266q-5 0 -7 -6l-15 -123q0 -6 5 -6h174q16 0 13 -16l-8 -67q-2 -16 -17 -16h-174q-6 0 -7 -6l-16 -130q0 -6 6 -6h266q16 0 14 -16
l-8 -68q-3 -16 -18 -16h-370q-15 0 -13 16l67 545q2 16 17 16h370q16 0 13 -16z" />
    <glyph glyph-name="ecaron.sc" horiz-adv-x="487" 
d="M374 647q-7 -10 -19 -10h-92q-11 0 -17 10l-54 98q-4 8 0 13.5t13 5.5h56q11 0 17 -10l35 -65q1 -2 3 -2t4 2l51 65q9 10 20 10h54q21 0 7 -19zM495 492q-2 -16 -18 -16h-266q-5 0 -7 -6l-15 -123q0 -6 5 -6h174q16 0 13 -16l-8 -67q-2 -16 -17 -16h-174q-6 0 -7 -6
l-16 -130q0 -6 6 -6h266q16 0 14 -16l-8 -68q-3 -16 -18 -16h-370q-15 0 -13 16l67 545q2 16 17 16h370q16 0 13 -16z" />
    <glyph glyph-name="uni0229.sc" horiz-adv-x="487" 
d="M495 492q-2 -16 -18 -16h-266q-5 0 -7 -6l-15 -123q0 -6 5 -6h174q16 0 13 -16l-8 -67q-2 -16 -17 -16h-174q-6 0 -7 -6l-16 -130q0 -6 6 -6h266q16 0 14 -16l-8 -68q-3 -16 -18 -16h-141q-3 0 -4.5 -2.5t0.5 -4.5q45 -53 23 -108q-13 -32 -40.5 -48t-54 -14t-50.5 7
q-12 4 -9 19l9 31q5 15 20 12q43 -11 55 25q13 37 -34 80q-3 3 -7 3h-137q-15 0 -13 16l67 545q2 16 17 16h370q16 0 13 -16z" />
    <glyph glyph-name="ecircumflex.sc" horiz-adv-x="487" 
d="M324 721q-2 6 -8 0l-50 -64q-9 -10 -20 -10h-57q-10 0 -12 5.5t5 13.5l83 98q7 10 19 10h84q10 0 17 -10l60 -97q5 -7 1 -13.5t-13 -6.5h-57q-11 0 -17 10zM495 492q-2 -16 -18 -16h-266q-5 0 -7 -6l-15 -123q0 -6 5 -6h174q16 0 13 -16l-8 -67q-2 -16 -17 -16h-174
q-6 0 -7 -6l-16 -130q0 -6 6 -6h266q16 0 14 -16l-8 -68q-3 -16 -18 -16h-370q-15 0 -13 16l67 545q2 16 17 16h370q16 0 13 -16z" />
    <glyph glyph-name="edieresis.sc" horiz-adv-x="487" 
d="M224 657q-27 0 -42 17t-11 45q3 27 22 44.5t46 17.5q26 0 41 -17t11 -45t-22.5 -45t-44.5 -17zM402 657q-27 0 -41.5 17t-11.5 45q4 28 22.5 45t45.5 17t41.5 -17t10.5 -45q-3 -28 -21.5 -45t-45.5 -17zM495 492q-2 -16 -18 -16h-266q-5 0 -7 -6l-15 -123q0 -6 5 -6h174
q16 0 13 -16l-8 -67q-2 -16 -17 -16h-174q-6 0 -7 -6l-16 -130q0 -6 6 -6h266q16 0 14 -16l-8 -68q-3 -16 -18 -16h-370q-15 0 -13 16l67 545q2 16 17 16h370q16 0 13 -16z" />
    <glyph glyph-name="edotaccent.sc" horiz-adv-x="487" 
d="M311 648q-25 0 -38.5 16t-10.5 42q3 25 21 41t43 16q24 0 37.5 -16t10.5 -41q-3 -26 -20.5 -42t-42.5 -16zM495 492q-2 -16 -18 -16h-266q-5 0 -7 -6l-15 -123q0 -6 5 -6h174q16 0 13 -16l-8 -67q-2 -16 -17 -16h-174q-6 0 -7 -6l-16 -130q0 -6 6 -6h266q16 0 14 -16
l-8 -68q-3 -16 -18 -16h-370q-15 0 -13 16l67 545q2 16 17 16h370q16 0 13 -16z" />
    <glyph glyph-name="egrave.sc" horiz-adv-x="487" 
d="M354 670q3 -8 -1 -13.5t-13 -5.5h-63q-12 0 -17 10l-51 96q-4 8 -0.5 13.5t12.5 5.5h77q12 0 17 -11zM495 492q-2 -16 -18 -16h-266q-5 0 -7 -6l-15 -123q0 -6 5 -6h174q16 0 13 -16l-8 -67q-2 -16 -17 -16h-174q-6 0 -7 -6l-16 -130q0 -6 6 -6h266q16 0 14 -16l-8 -68
q-3 -16 -18 -16h-370q-15 0 -13 16l67 545q2 16 17 16h370q16 0 13 -16z" />
    <glyph glyph-name="emacron.sc" horiz-adv-x="487" 
d="M446 739q16 0 13 -16l-6 -48q-2 -16 -17 -16h-245q-16 0 -14 16l6 48q2 16 17 16h246zM495 492q-2 -16 -18 -16h-266q-5 0 -7 -6l-15 -123q0 -6 5 -6h174q16 0 13 -16l-8 -67q-2 -16 -17 -16h-174q-6 0 -7 -6l-16 -130q0 -6 6 -6h266q16 0 14 -16l-8 -68q-3 -16 -18 -16
h-370q-15 0 -13 16l67 545q2 16 17 16h370q16 0 13 -16z" />
    <glyph glyph-name="eogonek.sc" horiz-adv-x="487" 
d="M495 492q-2 -16 -18 -16h-266q-5 0 -7 -6l-15 -123q0 -6 5 -6h174q16 0 13 -16l-8 -67q-2 -16 -17 -16h-174q-6 0 -7 -6l-16 -130q0 -6 6 -6h266q16 0 14 -16l-8 -68q-3 -16 -18 -16h-157q-4 0 -8 -3q-58 -45 -55 -81q2 -17 16 -23.5t34 -1.5q16 3 16 -12l2 -31
q-2 -15 -14 -19q-25 -5 -52 -7t-51 14t-28 48q-8 56 50 109q3 2 2.5 4.5t-4.5 2.5h-121q-15 0 -13 16l67 545q2 16 17 16h370q16 0 13 -16z" />
    <glyph glyph-name="f.sc" horiz-adv-x="465" 
d="M494 493q-2 -16 -17 -16h-266q-5 0 -7 -6l-15 -124q0 -6 5 -6h174q16 0 13 -16l-8 -67q-2 -16 -17 -16h-174q-6 0 -7 -6l-27 -220q-2 -16 -17 -16h-82q-15 0 -13 16l67 545q2 16 17 16h369q16 0 13 -16z" />
    <glyph glyph-name="g.sc" horiz-adv-x="558" 
d="M263 -7q-107 0 -163.5 58.5t-43.5 160.5l19 154q13 101 83.5 159.5t177.5 58.5q104 0 160 -57.5t44 -155.5q-2 -11 -17 -11h-80q-15 0 -15 5l1 5q7 55 -21.5 84.5t-84.5 29.5t-93 -31t-44 -91l-19 -153q-7 -56 23 -86t85 -30q56 0 91.5 30t42.5 86q0 5 -5 5h-94
q-15 0 -13 16l7 59q2 16 18 16h195q15 0 13 -16l-9 -77q-13 -102 -83 -160.5t-175 -58.5z" />
    <glyph glyph-name="gbreve.sc" horiz-adv-x="558" 
d="M339 616q-45 0 -74 28t-30 70q0 17 18 17h31q12 0 14 -15q2 -20 15 -32.5t32 -12.5q20 0 36 12.5t23 32.5q6 15 18 15h31q16 0 13 -16q-11 -42 -47 -70.5t-80 -28.5zM263 -7q-107 0 -163.5 58.5t-43.5 160.5l19 154q13 101 83.5 159.5t177.5 58.5q104 0 160 -57.5
t44 -155.5q-2 -11 -17 -11h-80q-15 0 -15 5l1 5q7 55 -21.5 84.5t-84.5 29.5t-93 -31t-44 -91l-19 -153q-7 -56 23 -86t85 -30q56 0 91.5 30t42.5 86q0 5 -5 5h-94q-15 0 -13 16l7 59q2 16 18 16h195q15 0 13 -16l-9 -77q-13 -102 -83 -160.5t-175 -58.5z" />
    <glyph glyph-name="uni0123.sc" horiz-adv-x="558" 
d="M263 -7q-107 0 -163.5 58.5t-43.5 160.5l19 154q13 101 83.5 159.5t177.5 58.5q104 0 160 -57.5t44 -155.5q-2 -11 -17 -11h-80q-15 0 -15 5l1 5q7 55 -21.5 84.5t-84.5 29.5t-93 -31t-44 -91l-19 -153q-7 -56 23 -86t85 -30q56 0 91.5 30t42.5 86q0 5 -5 5h-94
q-15 0 -13 16l7 59q2 16 18 16h195q15 0 13 -16l-9 -77q-13 -102 -83 -160.5t-175 -58.5zM164 -187q-8 0 -11 5.5t2 13.5l62 95q8 11 20 11h76q10 0 12 -5.5t-4 -13.5l-74 -96q-7 -10 -20 -10h-63z" />
    <glyph glyph-name="gdotaccent.sc" horiz-adv-x="558" 
d="M342 645q-25 0 -38.5 16t-10.5 42q3 25 20.5 41t42.5 16t38.5 -16t9.5 -41q-3 -26 -20 -42t-42 -16zM263 -7q-107 0 -163.5 58.5t-43.5 160.5l19 154q13 101 83.5 159.5t177.5 58.5q104 0 160 -57.5t44 -155.5q-2 -11 -17 -11h-80q-15 0 -15 5l1 5q7 55 -21.5 84.5
t-84.5 29.5t-93 -31t-44 -91l-19 -153q-7 -56 23 -86t85 -30q56 0 91.5 30t42.5 86q0 5 -5 5h-94q-15 0 -13 16l7 59q2 16 18 16h195q15 0 13 -16l-9 -77q-13 -102 -83 -160.5t-175 -58.5z" />
    <glyph glyph-name="h.sc" horiz-adv-x="523" 
d="M413 561q2 16 18 16h81q16 0 14 -16l-67 -545q-2 -16 -18 -16h-81q-16 0 -14 16l27 219q1 6 -5 6h-186q-6 0 -7 -6l-27 -219q-2 -16 -17 -16h-82q-15 0 -13 16l67 545q2 16 17 16h82q16 0 13 -16l-26 -214q0 -6 5 -6h186q6 0 7 6z" />
    <glyph glyph-name="hbar.sc" horiz-adv-x="523" 
d="M590 498q16 0 13 -16l-5 -47q-3 -16 -18 -16h-66q-6 0 -6 -6l-49 -397q-2 -16 -18 -16h-81q-16 0 -14 16l27 219q1 6 -5 6h-186q-6 0 -7 -6l-27 -219q-2 -16 -17 -16h-82q-15 0 -13 16l49 397q0 6 -5 6h-65q-16 0 -14 16l6 47q2 16 17 16h65q5 0 7 6l7 57q2 16 17 16h82
q16 0 13 -16l-7 -57q0 -6 5 -6h187q6 0 6 6l7 57q2 16 18 16h81q16 0 14 -16l-7 -57q-1 -6 5 -6h66zM380 341q6 0 7 6l8 66q1 6 -5 6h-186q-6 0 -7 -6l-8 -66q0 -6 5 -6h186z" />
    <glyph glyph-name="i.sc" horiz-adv-x="219" 
d="M49 0q-15 0 -13 16l67 545q2 16 17 16h82q16 0 13 -16l-67 -545q-2 -16 -17 -16h-82z" />
    <glyph glyph-name="iacute.sc" horiz-adv-x="219" 
d="M130 651q-8 0 -11 5.5t2 13.5l62 95q8 11 20 11h77q9 0 11 -5.5t-4 -13.5l-74 -96q-7 -10 -20 -10h-63zM49 0q-15 0 -13 16l67 545q2 16 17 16h82q16 0 13 -16l-67 -545q-2 -16 -17 -16h-82z" />
    <glyph glyph-name="icircumflex.sc" horiz-adv-x="219" 
d="M47 647q-9 0 -11.5 5.5t4.5 13.5l83 98q9 10 20 10h83q10 0 17 -10l60 -97q5 -7 1.5 -13.5t-13.5 -6.5h-56q-12 0 -18 10l-34 64q-4 6 -8 0l-51 -64q-7 -10 -19 -10h-58zM49 0q-15 0 -13 16l67 545q2 16 17 16h82q16 0 13 -16l-67 -545q-2 -16 -17 -16h-82z" />
    <glyph glyph-name="idieresis.sc" horiz-adv-x="219" 
d="M83 657q-27 0 -42 17t-12 45q4 28 23 45t46 17q26 0 40.5 -17t10.5 -45q-3 -28 -21.5 -45t-44.5 -17zM260 657q-27 0 -41.5 17t-10.5 45q3 28 21.5 45t45.5 17t41.5 -17t11.5 -45q-4 -28 -22.5 -45t-45.5 -17zM49 0q-15 0 -13 16l67 545q2 16 17 16h82q16 0 13 -16
l-67 -545q-2 -16 -17 -16h-82z" />
    <glyph glyph-name="i.sc.loclTRK" horiz-adv-x="219" 
d="M170 648q-25 0 -39 16.5t-10 41.5q3 25 20.5 41t42.5 16t38 -15.5t10 -41.5t-20 -42t-42 -16zM49 0q-15 0 -13 16l67 545q2 16 17 16h82q16 0 13 -16l-67 -545q-2 -16 -17 -16h-82z" />
    <glyph glyph-name="igrave.sc" horiz-adv-x="219" 
d="M212 670q4 -8 -0.5 -13.5t-13.5 -5.5h-63q-12 0 -17 10l-50 96q-5 8 -1.5 13.5t13.5 5.5h76q12 0 17 -11zM49 0q-15 0 -13 16l67 545q2 16 17 16h82q16 0 13 -16l-67 -545q-2 -16 -17 -16h-82z" />
    <glyph glyph-name="ij.sc" horiz-adv-x="709" 
d="M49 0q-15 0 -13 16l67 545q2 16 17 16h82q16 0 13 -16l-67 -545q-2 -16 -17 -16h-82zM425 -7q-95 0 -145.5 58.5t-38.5 155.5l2 18q2 16 17 16h82q16 0 13 -16l-2 -17q-6 -52 17 -83.5t67 -31.5t75 31.5t37 83.5l44 353q2 16 17 16h82q15 0 13 -16l-43 -354
q-12 -96 -77.5 -155t-159.5 -59z" />
    <glyph glyph-name="imacron.sc" horiz-adv-x="219" 
d="M49 659q-16 0 -14 16l6 48q2 16 18 16h245q16 0 14 -16l-6 -48q-2 -16 -18 -16h-245zM49 0q-15 0 -13 16l67 545q2 16 17 16h82q16 0 13 -16l-67 -545q-2 -16 -17 -16h-82z" />
    <glyph glyph-name="iogonek.sc" horiz-adv-x="231" 
d="M121 -121q16 3 17 -12l1 -31q0 -15 -14 -19q-25 -5 -52 -7t-50.5 14t-28.5 48q-8 64 65 121q6 5 0 7h-10q-15 0 -13 16l67 545q2 16 17 16h82q16 0 13 -16l-69 -561q-2 -2 -9 -7q-69 -49 -65 -89q1 -17 15 -23.5t34 -1.5z" />
    <glyph glyph-name="j.sc" horiz-adv-x="490" 
d="M206 -7q-95 0 -145.5 58.5t-38.5 155.5l2 18q2 16 17 16h82q15 0 13 -16l-2 -17q-6 -52 17 -83.5t67 -31.5t75 31.5t37 83.5l43 353q3 16 18 16h81q16 0 14 -16l-43 -354q-12 -96 -77.5 -155t-159.5 -59z" />
    <glyph glyph-name="k.sc" horiz-adv-x="518" 
d="M49 0q-15 0 -13 16l67 545q2 16 17 16h82q16 0 13 -16l-28 -228q0 -4 2.5 -4.5t4.5 2.5l222 237q9 9 21 9h88q9 0 11 -6.5t-5 -13.5l-204 -222q-3 -3 -1 -8l153 -308q4 -8 0 -13.5t-13 -5.5h-92q-12 0 -17 10l-117 235q-4 7 -9 0l-60 -66q-3 -5 -3 -7l-20 -156
q-2 -16 -17 -16h-82z" />
    <glyph glyph-name="uni0137.sc" horiz-adv-x="518" 
d="M49 0q-15 0 -13 16l67 545q2 16 17 16h82q16 0 13 -16l-28 -228q0 -4 2.5 -4.5t4.5 2.5l222 237q9 9 21 9h88q9 0 11 -6.5t-5 -13.5l-204 -222q-3 -3 -1 -8l153 -308q4 -8 0 -13.5t-13 -5.5h-92q-12 0 -17 10l-117 235q-4 7 -9 0l-60 -66q-3 -5 -3 -7l-20 -156
q-2 -16 -17 -16h-82zM146 -180q-9 0 -12 5.5t2 13.5l63 95q6 11 19 11h77q21 0 7 -19l-74 -96q-6 -10 -19 -10h-63z" />
    <glyph glyph-name="l.sc" horiz-adv-x="474" 
d="M49 0q-15 0 -13 16l67 545q2 16 17 16h82q16 0 13 -16l-56 -455q0 -6 6 -6h264q16 0 14 -16l-8 -68q-3 -16 -18 -16h-368z" />
    <glyph glyph-name="lacute.sc" horiz-adv-x="474" 
d="M128 641q-8 0 -11 5.5t2 13.5l62 95q8 11 20 11h76q10 0 12 -5.5t-4 -13.5l-74 -96q-7 -10 -20 -10h-63zM49 0q-15 0 -13 16l67 545q2 16 17 16h82q16 0 13 -16l-56 -455q0 -6 6 -6h264q16 0 14 -16l-8 -68q-3 -16 -18 -16h-368z" />
    <glyph glyph-name="lcaron.sc" horiz-adv-x="474" 
d="M120 627q-12 0 -18 10l-53 98q-4 8 -0.5 13.5t13.5 5.5h55q11 0 17 -10l35 -65q1 -2 3 -2t4 2l51 65q9 10 20 10h54q10 0 12 -5.5t-5 -13.5l-77 -98q-9 -10 -20 -10h-91zM49 0q-15 0 -13 16l67 545q2 16 17 16h82q16 0 13 -16l-56 -455q0 -6 6 -6h264q16 0 14 -16l-8 -68
q-3 -16 -18 -16h-368z" />
    <glyph glyph-name="uni013C.sc" horiz-adv-x="474" 
d="M49 0q-15 0 -13 16l67 545q2 16 17 16h82q16 0 13 -16l-56 -455q0 -6 6 -6h264q16 0 14 -16l-8 -68q-3 -16 -18 -16h-368zM116 -180q-9 0 -12 5.5t2 13.5l62 95q8 11 20 11h77q9 0 11 -5.5t-4 -13.5l-74 -96q-6 -10 -19 -10h-63z" />
    <glyph glyph-name="lslash.sc" horiz-adv-x="513" 
d="M159 106q0 -6 6 -6h264q16 0 14 -16l-8 -68q-3 -16 -18 -16h-368q-15 0 -13 16l17 136q0 8 -7 3l-34 -25q-13 -10 -21 2l-25 35q-9 12 6 22l91 69q3 3 3 7l37 296q2 16 17 16h82q16 0 13 -16l-24 -197q0 -7 7 -3l206 155q13 10 21 -2l24 -37q8 -12 -5 -22l-262 -198
q-5 -5 -5 -8z" />
    <glyph glyph-name="m.sc" horiz-adv-x="594" 
d="M49 0q-15 0 -13 16l67 545q2 16 17 16h82q13 0 18 -11l98 -203q3 -6 8 0l148 203q8 11 21 11h81q16 0 14 -16l-67 -545q-2 -16 -18 -16h-81q-16 0 -14 16l48 388q1 4 -1.5 5t-5.5 -3l-114 -159q-8 -11 -21 -11h-19q-13 0 -18 11l-76 159q-1 4 -3.5 3t-3.5 -5l-48 -388
q-2 -16 -17 -16h-82z" />
    <glyph glyph-name="n.sc" horiz-adv-x="554" 
d="M49 0q-15 0 -13 16l67 545q2 16 17 16h85q13 0 17 -11l165 -368q1 -4 3.5 -3t3.5 5l43 361q3 16 18 16h81q16 0 14 -16l-67 -545q-2 -16 -17 -16h-85q-13 0 -17 11l-165 372q-2 4 -4 3.5t-3 -5.5l-44 -365q-1 -16 -17 -16h-82z" />
    <glyph glyph-name="nacute.sc" horiz-adv-x="554" 
d="M291 651q-8 0 -11 5.5t2 13.5l62 95q8 11 20 11h77q9 0 11 -5.5t-4 -13.5l-74 -96q-8 -10 -20 -10h-63zM49 0q-15 0 -13 16l67 545q2 16 17 16h85q13 0 17 -11l165 -368q1 -4 3.5 -3t3.5 5l43 361q3 16 18 16h81q16 0 14 -16l-67 -545q-2 -16 -17 -16h-85q-13 0 -17 11
l-165 372q-2 4 -4 3.5t-3 -5.5l-44 -365q-1 -16 -17 -16h-82z" />
    <glyph glyph-name="ncaron.sc" horiz-adv-x="554" 
d="M283 637q-11 0 -17 10l-54 98q-4 8 -0.5 13.5t13.5 5.5h55q11 0 17 -10l35 -65q3 -5 8 0l50 65q9 10 20 10h54q10 0 12 -5.5t-4 -13.5l-78 -98q-9 -10 -20 -10h-91zM49 0q-15 0 -13 16l67 545q2 16 17 16h85q13 0 17 -11l165 -368q1 -4 3.5 -3t3.5 5l43 361q3 16 18 16
h81q16 0 14 -16l-67 -545q-2 -16 -17 -16h-85q-13 0 -17 11l-165 372q-2 4 -4 3.5t-3 -5.5l-44 -365q-1 -16 -17 -16h-82z" />
    <glyph glyph-name="uni0146.sc" horiz-adv-x="554" 
d="M49 0q-15 0 -13 16l67 545q2 16 17 16h85q13 0 17 -11l165 -368q1 -4 3.5 -3t3.5 5l43 361q3 16 18 16h81q16 0 14 -16l-67 -545q-2 -16 -17 -16h-85q-13 0 -17 11l-165 372q-2 4 -4 3.5t-3 -5.5l-44 -365q-1 -16 -17 -16h-82zM160 -180q-8 0 -11 5.5t2 13.5l62 95
q8 11 20 11h76q10 0 12 -5.5t-4 -13.5l-74 -96q-7 -10 -20 -10h-63z" />
    <glyph glyph-name="eng.sc" horiz-adv-x="554" 
d="M536 577q16 0 14 -16l-68 -551l-1 -10h-1q-14 -88 -57.5 -120.5t-150.5 -31.5q-15 0 -13 16l8 66q1 15 18 15q39 -1 57 11.5t25 41.5q1 2 -1 8l-167 377q-2 4 -4 3.5t-3 -5.5l-44 -365q-1 -16 -17 -16h-82q-15 0 -13 16l67 545q2 16 17 16h85q13 0 17 -11l164 -365
q1 -4 3.5 -3t3.5 5l28 229v5q2 3 2 8l14 116q3 16 18 16h81z" />
    <glyph glyph-name="ntilde.sc" horiz-adv-x="554" 
d="M397 656q-26 0 -60 25q-21 17 -38 17q-25 0 -41 -19q-11 -14 -22 -5l-24 20q-12 8 -3 21q35 60 92 60q25 0 59 -23q27 -19 44 -19q24 0 40 20q11 14 23 5l24 -18q10 -9 -3 -29q-39 -55 -91 -55zM49 0q-15 0 -13 16l67 545q2 16 17 16h85q13 0 17 -11l165 -368
q1 -4 3.5 -3t3.5 5l43 361q3 16 18 16h81q16 0 14 -16l-67 -545q-2 -16 -17 -16h-85q-13 0 -17 11l-165 372q-2 4 -4 3.5t-3 -5.5l-44 -365q-1 -16 -17 -16h-82z" />
    <glyph glyph-name="o.sc" horiz-adv-x="528" 
d="M243 -9q-101 0 -154.5 62.5t-40.5 167.5l17 135q13 104 81.5 166t169.5 62q100 0 154 -62.5t41 -165.5l-16 -135q-13 -105 -82.5 -167.5t-169.5 -62.5zM256 91q50 0 84.5 34.5t41.5 92.5l17 139q7 58 -19 92.5t-76 34.5t-84.5 -34.5t-41.5 -92.5l-17 -139
q-7 -58 19 -92.5t76 -34.5z" />
    <glyph glyph-name="oacute.sc" horiz-adv-x="528" 
d="M284 648q-8 0 -11 5.5t2 13.5l62 95q8 11 20 11h76q10 0 12 -5.5t-4 -13.5l-74 -96q-7 -10 -20 -10h-63zM243 -9q-101 0 -154.5 62.5t-40.5 167.5l17 135q13 104 81.5 166t169.5 62q100 0 154 -62.5t41 -165.5l-16 -135q-13 -105 -82.5 -167.5t-169.5 -62.5zM256 91
q50 0 84.5 34.5t41.5 92.5l17 139q7 58 -19 92.5t-76 34.5t-84.5 -34.5t-41.5 -92.5l-17 -139q-7 -58 19 -92.5t76 -34.5z" />
    <glyph glyph-name="ocircumflex.sc" horiz-adv-x="528" 
d="M201 644q-9 0 -11.5 6t4.5 13l83 98q7 10 19 10h84q10 0 17 -10l60 -97q5 -8 1 -14t-13 -6h-56q-12 0 -18 10l-35 64q-1 2 -3.5 2t-3.5 -2l-51 -64q-9 -10 -19 -10h-58zM243 -9q-101 0 -154.5 62.5t-40.5 167.5l17 135q13 104 81.5 166t169.5 62q100 0 154 -62.5
t41 -165.5l-16 -135q-13 -105 -82.5 -167.5t-169.5 -62.5zM256 91q50 0 84.5 34.5t41.5 92.5l17 139q7 58 -19 92.5t-76 34.5t-84.5 -34.5t-41.5 -92.5l-17 -139q-7 -58 19 -92.5t76 -34.5z" />
    <glyph glyph-name="odieresis.sc" horiz-adv-x="528" 
d="M236 654q-27 0 -42 17.5t-11 44.5q4 28 23 45t46 17q26 0 40.5 -17t10.5 -45q-3 -28 -22 -45t-45 -17zM414 654q-27 0 -41.5 17t-11.5 45q4 28 22.5 45t45.5 17t41.5 -17t11.5 -45q-4 -28 -22.5 -45t-45.5 -17zM243 -9q-101 0 -154.5 62.5t-40.5 167.5l17 135
q13 104 81.5 166t169.5 62q100 0 154 -62.5t41 -165.5l-16 -135q-13 -105 -82.5 -167.5t-169.5 -62.5zM256 91q50 0 84.5 34.5t41.5 92.5l17 139q7 58 -19 92.5t-76 34.5t-84.5 -34.5t-41.5 -92.5l-17 -139q-7 -58 19 -92.5t76 -34.5z" />
    <glyph glyph-name="ograve.sc" horiz-adv-x="528" 
d="M366 667q4 -8 -0.5 -13.5t-13.5 -5.5h-63q-12 0 -17 10l-50 96q-5 8 -1.5 13.5t13.5 5.5h76q12 0 17 -11zM243 -9q-101 0 -154.5 62.5t-40.5 167.5l17 135q13 104 81.5 166t169.5 62q100 0 154 -62.5t41 -165.5l-16 -135q-13 -105 -82.5 -167.5t-169.5 -62.5zM256 91
q50 0 84.5 34.5t41.5 92.5l17 139q7 58 -19 92.5t-76 34.5t-84.5 -34.5t-41.5 -92.5l-17 -139q-7 -58 19 -92.5t76 -34.5z" />
    <glyph glyph-name="ohungarumlaut.sc" horiz-adv-x="528" 
d="M210 646q-19 0 -9 19l56 94q7 12 20 12h70q9 0 11.5 -5.5t-2.5 -13.5l-61 -95q-8 -11 -20 -11h-65zM379 646q-9 0 -11.5 5.5t2.5 13.5l61 95q8 11 20 11h64q8 0 11 -5.5t-2 -13.5l-62 -95q-8 -11 -20 -11h-63zM243 -9q-101 0 -154.5 62.5t-40.5 167.5l17 135
q13 104 81.5 166t169.5 62q100 0 154 -62.5t41 -165.5l-16 -135q-13 -105 -82.5 -167.5t-169.5 -62.5zM256 91q50 0 84.5 34.5t41.5 92.5l17 139q7 58 -19 92.5t-76 34.5t-84.5 -34.5t-41.5 -92.5l-17 -139q-7 -58 19 -92.5t76 -34.5z" />
    <glyph glyph-name="omacron.sc" horiz-adv-x="528" 
d="M203 656q-16 0 -14 16l6 48q2 16 18 16h245q16 0 14 -16l-6 -48q-3 -16 -18 -16h-245zM243 -9q-101 0 -154.5 62.5t-40.5 167.5l17 135q13 104 81.5 166t169.5 62q100 0 154 -62.5t41 -165.5l-16 -135q-13 -105 -82.5 -167.5t-169.5 -62.5zM256 91q50 0 84.5 34.5
t41.5 92.5l17 139q7 58 -19 92.5t-76 34.5t-84.5 -34.5t-41.5 -92.5l-17 -139q-7 -58 19 -92.5t76 -34.5z" />
    <glyph glyph-name="oslash.sc" horiz-adv-x="528" 
d="M571 697q18 0 8 -19l-99 -162q-1 -4 1 -8q42 -61 30 -152l-16 -135q-13 -105 -82.5 -167.5t-169.5 -62.5q-40 0 -71 10q-5 2 -7 -4l-47 -75q-6 -12 -19 -12h-44q-20 0 -8 19l60 99q3 5 -1 8q-71 64 -58 185l17 135q13 104 81.5 166t169.5 62q58 0 108 -24q4 -4 8 2
l74 123q8 12 20 12h45zM161 218q-6 -44 8 -75q1 -3 3.5 -3t4.5 4l190 312q3 5 -1 8q-25 20 -62 20q-50 0 -84.5 -34.5t-41.5 -92.5zM399 357v13q1 4 -1.5 5t-4.5 -3l-165 -271q-6 -6 2 -8q16 -2 26 -2q50 0 84.5 34.5t41.5 92.5z" />
    <glyph glyph-name="otilde.sc" horiz-adv-x="528" 
d="M390 653q-26 0 -60 25q-21 17 -38 17q-25 0 -41 -19q-11 -14 -22 -5l-24 20q-12 8 -3 21q35 60 92 60q24 0 59 -23q25 -19 44 -19q24 0 39 20q12 14 23 5l24 -18q11 -8 -2 -29q-39 -55 -91 -55zM243 -9q-101 0 -154.5 62.5t-40.5 167.5l17 135q13 104 81.5 166t169.5 62
q100 0 154 -62.5t41 -165.5l-16 -135q-13 -105 -82.5 -167.5t-169.5 -62.5zM256 91q50 0 84.5 34.5t41.5 92.5l17 139q7 58 -19 92.5t-76 34.5t-84.5 -34.5t-41.5 -92.5l-17 -139q-7 -58 19 -92.5t76 -34.5z" />
    <glyph glyph-name="oe.sc" horiz-adv-x="772" 
d="M780 493q-2 -16 -17 -16h-252q-5 0 -7 -6l-15 -124q-1 -6 5 -6h159q16 0 14 -16l-9 -67q-2 -16 -17 -16h-159q-6 0 -7 -6l-16 -130q0 -6 5 -6h252q16 0 14 -16l-8 -68q-3 -16 -18 -16h-355q-16 0 -13 16l1 11q1 4 -1 5t-6 -1q-57 -40 -127 -40q-77 0 -123 58t-34 150
l22 178q11 91 70.5 149t136.5 58q69 0 119 -39q5 -5 7 4l2 12q2 16 17 16h355q16 0 14 -16zM243 91q46 0 77.5 28.5t37.5 75.5l22 184q6 48 -18.5 76.5t-70.5 28.5q-43 0 -74 -29t-37 -76l-22 -184q-6 -47 18 -75.5t67 -28.5z" />
    <glyph glyph-name="p.sc" horiz-adv-x="495" 
d="M343 578q81 0 125.5 -49.5t34.5 -129.5q-10 -78 -67.5 -126t-142.5 -48h-118q-6 0 -6 -6l-25 -203q-3 -16 -18 -16h-81q-16 0 -14 16l67 546q2 16 18 16h227zM300 318q36 0 61 21.5t29 57.5q4 37 -15.5 59t-54.5 22h-114q-6 0 -6 -6l-19 -148q0 -6 5 -6h114z" />
    <glyph glyph-name="thorn.sc" horiz-adv-x="480" 
d="M315 462q82 0 126 -48t34 -127q-10 -78 -67 -125t-141 -47h-105q-7 0 -7 -6l-11 -93q-3 -16 -18 -16h-81q-16 0 -14 16l67 545q2 16 17 16h82q16 0 14 -16l-12 -93q0 -6 5 -6h111zM279 208q32 0 55.5 21.5t27.5 55.5q4 35 -13.5 56.5t-50.5 21.5h-106q-6 0 -7 -6
l-17 -143q0 -6 5 -6h106z" />
    <glyph glyph-name="q.sc" horiz-adv-x="493" 
d="M299 584q95 0 145 -60.5t38 -162.5l-19 -154q-10 -79 -56.5 -134t-117.5 -73q-5 -2 -6 -6l-7 -58q-2 -16 -17 -16h-82q-15 0 -13 16l7 58q0 5 -4 6q-68 17 -101.5 72t-23.5 135l19 154q13 102 78 162.5t160 60.5zM351 210l19 158q7 53 -16 84.5t-68 31.5
q-44 0 -74.5 -31.5t-37.5 -84.5l-19 -158q-7 -54 16 -85.5t67 -31.5q45 0 75.5 31.5t37.5 85.5z" />
    <glyph glyph-name="r.sc" horiz-adv-x="501" 
d="M352 0q-12 0 -17 12l-74 215q-1 4 -7 4h-73q-5 0 -7 -6l-26 -209q-2 -16 -17 -16h-82q-15 0 -13 16l67 546q2 16 17 16h225q79 0 121.5 -48t33.5 -126q-7 -59 -40.5 -101t-85.5 -60q-6 -2 -4 -8l81 -216q4 -8 0 -13.5t-13 -5.5h-86zM211 478q-5 0 -7 -6l-17 -145
q-1 -6 5 -6h106q36 0 61 21.5t29 56.5t-15.5 57t-54.5 22h-107z" />
    <glyph glyph-name="racute.sc" horiz-adv-x="501" 
d="M408 766q10 0 12 -5.5t-4 -13.5l-74 -96q-8 -10 -20 -10h-63q-9 0 -11.5 5.5t2.5 13.5l62 95q8 11 20 11h76zM352 0q-12 0 -17 12l-74 215q-1 4 -7 4h-73q-5 0 -7 -6l-26 -209q-2 -16 -17 -16h-82q-15 0 -13 16l67 546q2 16 17 16h225q79 0 121.5 -48t33.5 -126
q-7 -59 -40.5 -101t-85.5 -60q-6 -2 -4 -8l81 -216q4 -8 0 -13.5t-13 -5.5h-86zM211 478q-5 0 -7 -6l-17 -145q-1 -6 5 -6h106q36 0 61 21.5t29 56.5t-15.5 57t-54.5 22h-107z" />
    <glyph glyph-name="rcaron.sc" horiz-adv-x="501" 
d="M361 637q-7 -10 -19 -10h-91q-12 0 -18 10l-54 98q-4 8 0 13.5t13 5.5h56q11 0 17 -10l35 -65q1 -2 3.5 -2t3.5 2l51 65q9 10 20 10h54q10 0 12 -5.5t-5 -13.5zM352 0q-12 0 -17 12l-74 215q-1 4 -7 4h-73q-5 0 -7 -6l-26 -209q-2 -16 -17 -16h-82q-15 0 -13 16l67 546
q2 16 17 16h225q79 0 121.5 -48t33.5 -126q-7 -59 -40.5 -101t-85.5 -60q-6 -2 -4 -8l81 -216q4 -8 0 -13.5t-13 -5.5h-86zM211 478q-5 0 -7 -6l-17 -145q-1 -6 5 -6h106q36 0 61 21.5t29 56.5t-15.5 57t-54.5 22h-107z" />
    <glyph glyph-name="uni0157.sc" horiz-adv-x="501" 
d="M374 243q-6 -2 -4 -8l81 -216q4 -8 0 -13.5t-13 -5.5h-86q-12 0 -17 12l-74 215q-1 4 -7 4h-73q-5 0 -7 -6l-26 -209q-2 -16 -17 -16h-82q-15 0 -13 16l67 546q2 16 17 16h225q79 0 121.5 -48t33.5 -126q-7 -59 -40.5 -101t-85.5 -60zM211 478q-5 0 -7 -6l-17 -145
q-1 -6 5 -6h106q36 0 61 21.5t29 56.5t-15.5 57t-54.5 22h-107zM133 -180q-9 0 -11.5 5.5t2.5 13.5l62 95q8 11 20 11h76q10 0 12 -5.5t-4 -13.5l-74 -96q-8 -10 -20 -10h-63z" />
    <glyph glyph-name="s.sc" horiz-adv-x="492" 
d="M225 -7q-98 0 -148.5 44.5t-40.5 124.5l2 11q2 16 17 16h80q7 0 11 -2t3 -6l-1 -9q-4 -34 21 -56.5t76 -22.5q46 0 72 18.5t30 48.5q3 27 -20.5 44t-83.5 41q-39 12 -55.5 18t-47 21t-43.5 30.5t-22 42t-5 59.5q9 79 68.5 123.5t158.5 44.5q100 0 149.5 -47t38.5 -131v-1
q-2 -16 -17 -16h-81q-7 0 -11 2t-3 5v7q5 35 -18.5 58t-74.5 23q-44 0 -70 -17.5t-30 -47.5q-2 -15 2.5 -25.5t22 -20.5t28 -14.5t44.5 -16.5q98 -30 131 -54q62 -43 53 -123q-10 -80 -72 -126t-164 -46z" />
    <glyph glyph-name="sacute.sc" horiz-adv-x="492" 
d="M263 648q-9 0 -12 5.5t3 13.5l62 95q6 11 19 11h77q10 0 12 -5.5t-5 -13.5l-73 -96q-8 -10 -20 -10h-63zM225 -7q-98 0 -148.5 44.5t-40.5 124.5l2 11q2 16 17 16h80q7 0 11 -2t3 -6l-1 -9q-4 -34 21 -56.5t76 -22.5q46 0 72 18.5t30 48.5q3 27 -20.5 44t-83.5 41
q-39 12 -55.5 18t-47 21t-43.5 30.5t-22 42t-5 59.5q9 79 68.5 123.5t158.5 44.5q100 0 149.5 -47t38.5 -131v-1q-2 -16 -17 -16h-81q-7 0 -11 2t-3 5v7q5 35 -18.5 58t-74.5 23q-44 0 -70 -17.5t-30 -47.5q-2 -15 2.5 -25.5t22 -20.5t28 -14.5t44.5 -16.5q98 -30 131 -54
q62 -43 53 -123q-10 -80 -72 -126t-164 -46z" />
    <glyph glyph-name="scaron.sc" horiz-adv-x="492" 
d="M254 634q-11 0 -17 10l-54 98q-4 8 0 13.5t13 5.5h56q11 0 17 -10l34 -65q4 -6 8 0l51 65q9 10 20 10h54q9 0 11 -5.5t-4 -13.5l-78 -98q-7 -10 -19 -10h-92zM225 -7q-98 0 -148.5 44.5t-40.5 124.5l2 11q2 16 17 16h80q7 0 11 -2t3 -6l-1 -9q-4 -34 21 -56.5t76 -22.5
q46 0 72 18.5t30 48.5q3 27 -20.5 44t-83.5 41q-39 12 -55.5 18t-47 21t-43.5 30.5t-22 42t-5 59.5q9 79 68.5 123.5t158.5 44.5q100 0 149.5 -47t38.5 -131v-1q-2 -16 -17 -16h-81q-7 0 -11 2t-3 5v7q5 35 -18.5 58t-74.5 23q-44 0 -70 -17.5t-30 -47.5q-2 -15 2.5 -25.5
t22 -20.5t28 -14.5t44.5 -16.5q98 -30 131 -54q62 -43 53 -123q-10 -80 -72 -126t-164 -46z" />
    <glyph glyph-name="scedilla.sc" horiz-adv-x="492" 
d="M461 165q-9 -69 -57 -113t-128 -56q-8 -2 -3 -7q48 -54 26 -111q-13 -32 -40.5 -48t-54 -14t-50.5 7q-13 4 -8 19l8 31q5 15 20 12q43 -11 56 25q12 38 -37 82q-3 3 -6 3q-80 8 -120 51.5t-31 115.5l2 11q2 16 17 16h80q7 0 11 -2t3 -6l-1 -9q-4 -34 21 -56.5t76 -22.5
q46 0 72 18.5t30 48.5q3 27 -20.5 44t-83.5 41q-39 12 -55.5 18t-47 21t-43.5 30.5t-22 42t-5 59.5q9 79 68.5 123.5t158.5 44.5q100 0 149.5 -47t38.5 -131v-1q-2 -16 -17 -16h-81q-7 0 -11 2t-3 5v7q5 35 -18.5 58t-74.5 23q-44 0 -70 -17.5t-30 -47.5q-2 -15 2.5 -25.5
t22 -20.5t28 -14.5t44.5 -16.5q98 -30 131 -54q62 -43 53 -123z" />
    <glyph glyph-name="uni0219.sc" horiz-adv-x="492" 
d="M225 -7q-98 0 -148.5 44.5t-40.5 124.5l2 11q2 16 17 16h80q7 0 11 -2t3 -6l-1 -9q-4 -34 21 -56.5t76 -22.5q46 0 72 18.5t30 48.5q3 27 -20.5 44t-83.5 41q-39 12 -55.5 18t-47 21t-43.5 30.5t-22 42t-5 59.5q9 79 68.5 123.5t158.5 44.5q100 0 149.5 -47t38.5 -131v-1
q-2 -16 -17 -16h-81q-7 0 -11 2t-3 5v7q5 35 -18.5 58t-74.5 23q-44 0 -70 -17.5t-30 -47.5q-2 -15 2.5 -25.5t22 -20.5t28 -14.5t44.5 -16.5q98 -30 131 -54q62 -43 53 -123q-10 -80 -72 -126t-164 -46zM127 -187q-8 0 -11 5.5t2 13.5l62 95q8 11 20 11h77q9 0 11 -5.5
t-4 -13.5l-74 -96q-8 -10 -20 -10h-63z" />
    <glyph glyph-name="t.sc" horiz-adv-x="495" 
d="M507 577q16 0 14 -16l-9 -69q-2 -16 -17 -16h-148q-7 0 -7 -6l-56 -454q-2 -16 -17 -16h-82q-16 0 -13 16l55 454q2 6 -5 6h-143q-16 0 -14 16l9 69q2 16 17 16h416z" />
    <glyph glyph-name="tbar.sc" horiz-adv-x="495" 
d="M512 492q-2 -16 -17 -16h-148q-7 0 -7 -6l-13 -104q0 -6 5 -6h91q16 0 14 -16l-5 -40q-2 -16 -17 -16h-92q-6 0 -6 -6l-33 -266q-2 -16 -17 -16h-82q-16 0 -13 16l32 266q2 6 -5 6h-84q-16 0 -14 16l5 40q2 16 18 16h84q6 0 7 6l12 104q1 6 -5 6h-143q-16 0 -14 16l9 69
q2 16 17 16h416q16 0 14 -16z" />
    <glyph glyph-name="tcaron.sc" horiz-adv-x="495" 
d="M369 637q-7 -10 -19 -10h-92q-11 0 -17 10l-54 98q-4 8 0 13.5t13 5.5h56q11 0 17 -10l34 -65q4 -6 8 0l51 65q9 10 20 10h54q9 0 11 -5.5t-4 -13.5zM507 577q16 0 14 -16l-9 -69q-2 -16 -17 -16h-148q-7 0 -7 -6l-56 -454q-2 -16 -17 -16h-82q-16 0 -13 16l55 454
q2 6 -5 6h-143q-16 0 -14 16l9 69q2 16 17 16h416z" />
    <glyph glyph-name="uni0163.sc" horiz-adv-x="495" 
d="M347 476q-7 0 -7 -6l-56 -454q-2 -16 -8 -16q-3 0 -1 -4l2 -3q45 -53 23 -108q-13 -32 -40.5 -48t-54 -14t-50.5 7q-12 4 -9 19l9 31q4 15 20 12q43 -11 55 25q13 37 -34 80q-3 3 -7 3h-4q-16 0 -13 16l55 454q2 6 -5 6h-143q-16 0 -14 16l9 69q2 16 17 16h416
q16 0 14 -16l-9 -69q-2 -16 -17 -16h-148z" />
    <glyph glyph-name="uni021B.sc" horiz-adv-x="495" 
d="M74 561q2 16 17 16h416q16 0 14 -16l-9 -69q-2 -16 -17 -16h-148q-7 0 -7 -6l-56 -454q-2 -16 -17 -16h-82q-16 0 -13 16l55 454q2 6 -5 6h-143q-16 0 -14 16zM138 -180q-9 0 -12 5.5t3 13.5l62 95q6 11 20 11h76q10 0 12 -5.5t-4 -13.5l-74 -96q-8 -10 -20 -10h-63z" />
    <glyph glyph-name="u.sc" horiz-adv-x="524" 
d="M243 -7q-97 0 -148.5 58.5t-39.5 155.5l43 354q2 16 17 16h82q16 0 14 -16l-44 -355q-7 -52 17 -82.5t71 -30.5q45 0 76 31t38 82l43 355q2 16 18 16h81q16 0 14 -16l-44 -354q-12 -97 -77 -155.5t-161 -58.5z" />
    <glyph glyph-name="uacute.sc" horiz-adv-x="524" 
d="M284 651q-9 0 -12 5.5t2 13.5l62 95q8 11 20 11h77q9 0 11 -5.5t-4 -13.5l-74 -96q-6 -10 -19 -10h-63zM243 -7q-97 0 -148.5 58.5t-39.5 155.5l43 354q2 16 17 16h82q16 0 14 -16l-44 -355q-7 -52 17 -82.5t71 -30.5q45 0 76 31t38 82l43 355q2 16 18 16h81q16 0 14 -16
l-44 -354q-12 -97 -77 -155.5t-161 -58.5z" />
    <glyph glyph-name="ucircumflex.sc" horiz-adv-x="524" 
d="M201 647q-10 0 -12.5 5.5t4.5 13.5l83 98q9 10 20 10h83q10 0 17 -10l60 -97q5 -7 1.5 -13.5t-13.5 -6.5h-56q-11 0 -17 10l-35 64q-4 6 -8 0l-50 -64q-9 -10 -20 -10h-57zM243 -7q-97 0 -148.5 58.5t-39.5 155.5l43 354q2 16 17 16h82q16 0 14 -16l-44 -355
q-7 -52 17 -82.5t71 -30.5q45 0 76 31t38 82l43 355q2 16 18 16h81q16 0 14 -16l-44 -354q-12 -97 -77 -155.5t-161 -58.5z" />
    <glyph glyph-name="udieresis.sc" horiz-adv-x="524" 
d="M236 657q-27 0 -42 17t-12 45q4 28 23 45t46 17q26 0 40.5 -17t11.5 -45q-4 -28 -22.5 -45t-44.5 -17zM413 657q-27 0 -41.5 17t-10.5 45q3 28 22 45t46 17q26 0 41 -17t11 -45q-3 -28 -22 -45t-46 -17zM243 -7q-97 0 -148.5 58.5t-39.5 155.5l43 354q2 16 17 16h82
q16 0 14 -16l-44 -355q-7 -52 17 -82.5t71 -30.5q45 0 76 31t38 82l43 355q2 16 18 16h81q16 0 14 -16l-44 -354q-12 -97 -77 -155.5t-161 -58.5z" />
    <glyph glyph-name="ugrave.sc" horiz-adv-x="524" 
d="M366 670q3 -8 -1.5 -13.5t-12.5 -5.5h-64q-12 0 -17 10l-50 96q-9 19 12 19h77q12 0 17 -11zM243 -7q-97 0 -148.5 58.5t-39.5 155.5l43 354q2 16 17 16h82q16 0 14 -16l-44 -355q-7 -52 17 -82.5t71 -30.5q45 0 76 31t38 82l43 355q2 16 18 16h81q16 0 14 -16l-44 -354
q-12 -97 -77 -155.5t-161 -58.5z" />
    <glyph glyph-name="uhungarumlaut.sc" horiz-adv-x="524" 
d="M210 649q-20 0 -10 19l57 94q6 12 19 12h70q9 0 12 -5.5t-2 -13.5l-62 -95q-6 -11 -19 -11h-65zM378 649q-8 0 -11 5.5t2 13.5l61 95q8 11 20 11h64q9 0 12 -5.5t-3 -13.5l-62 -95q-6 -11 -20 -11h-63zM243 -7q-97 0 -148.5 58.5t-39.5 155.5l43 354q2 16 17 16h82
q16 0 14 -16l-44 -355q-7 -52 17 -82.5t71 -30.5q45 0 76 31t38 82l43 355q2 16 18 16h81q16 0 14 -16l-44 -354q-12 -97 -77 -155.5t-161 -58.5z" />
    <glyph glyph-name="umacron.sc" horiz-adv-x="524" 
d="M202 659q-16 0 -13 16l6 48q2 16 17 16h245q16 0 14 -16l-6 -48q-2 -16 -17 -16h-246zM243 -7q-97 0 -148.5 58.5t-39.5 155.5l43 354q2 16 17 16h82q16 0 14 -16l-44 -355q-7 -52 17 -82.5t71 -30.5q45 0 76 31t38 82l43 355q2 16 18 16h81q16 0 14 -16l-44 -354
q-12 -97 -77 -155.5t-161 -58.5z" />
    <glyph glyph-name="uogonek.sc" horiz-adv-x="524" 
d="M412 561q2 16 18 16h81q16 0 14 -16l-44 -354q-10 -88 -66 -145t-140 -68q-3 0 -8 -3q-51 -41 -47 -75q1 -17 15 -23.5t34 -1.5q16 3 17 -12l1 -31q0 -15 -14 -19q-25 -5 -52 -7t-50.5 14t-28.5 48q-8 56 49 107q6 6 -2 8q-72 14 -108 69.5t-26 138.5l43 354q2 16 17 16
h82q16 0 14 -16l-44 -355q-7 -52 17 -82.5t71 -30.5q45 0 76 31t38 82z" />
    <glyph glyph-name="uring.sc" horiz-adv-x="524" 
d="M322 639q-44 0 -71 31.5t-22 76.5q6 46 40.5 77t78.5 31q45 0 71.5 -31t21.5 -77q-5 -45 -40 -76.5t-79 -31.5zM329 694q21 0 38.5 15.5t20.5 37.5q2 23 -11.5 38.5t-34.5 15.5q-22 0 -39 -15.5t-20 -38.5q-3 -22 10.5 -37.5t35.5 -15.5zM243 -7q-97 0 -148.5 58.5
t-39.5 155.5l43 354q2 16 17 16h82q16 0 14 -16l-44 -355q-7 -52 17 -82.5t71 -30.5q45 0 76 31t38 82l43 355q2 16 18 16h81q16 0 14 -16l-44 -354q-12 -97 -77 -155.5t-161 -58.5z" />
    <glyph glyph-name="v.sc" horiz-adv-x="513" 
d="M191 0q-13 0 -16 13l-99 546q-2 18 15 18h88q14 0 16 -14l60 -401q0 -5 5 -3q2 1 3 4l156 400q5 14 19 14h87q17 0 10 -18l-235 -546q-6 -13 -19 -13h-90z" />
    <glyph glyph-name="w.sc" horiz-adv-x="742" 
d="M173 0q-14 0 -16 14l-82 545q-2 18 16 18h88q15 0 15 -14l39 -355q0 -3 1.5 -4t3.5 0t3 4l119 355q4 14 18 14h89q14 0 14 -14l36 -356q0 -2 2 -3.5t3.5 -0.5t2.5 4l127 356q4 14 18 14h85q17 0 10 -18l-207 -545q-5 -14 -19 -14h-81q-15 0 -16 14l-43 347q0 4 -2 4
q-4 1 -5 -4l-124 -347q-4 -14 -18 -14h-77z" />
    <glyph glyph-name="wacute.sc" horiz-adv-x="742" 
d="M390 641q-9 0 -11.5 5.5t2.5 13.5l62 95q8 11 20 11h76q10 0 12 -5.5t-4 -13.5l-74 -96q-7 -10 -20 -10h-63zM173 0q-14 0 -16 14l-82 545q-2 18 16 18h88q15 0 15 -14l39 -355q0 -3 1.5 -4t3.5 0t3 4l119 355q4 14 18 14h89q14 0 14 -14l36 -356q0 -2 2 -3.5t3.5 -0.5
t2.5 4l127 356q4 14 18 14h85q17 0 10 -18l-207 -545q-5 -14 -19 -14h-81q-15 0 -16 14l-43 347q0 4 -2 4q-4 1 -5 -4l-124 -347q-4 -14 -18 -14h-77z" />
    <glyph glyph-name="wcircumflex.sc" horiz-adv-x="742" 
d="M307 637q-9 0 -11.5 5.5t4.5 13.5l83 98q7 10 19 10h84q10 0 17 -10l60 -97q5 -7 1 -13.5t-13 -6.5h-57q-11 0 -17 10l-35 64q-1 2 -3.5 2t-3.5 -2l-51 -64q-9 -10 -20 -10h-57zM173 0q-14 0 -16 14l-82 545q-2 18 16 18h88q15 0 15 -14l39 -355q0 -3 1.5 -4t3.5 0t3 4
l119 355q4 14 18 14h89q14 0 14 -14l36 -356q0 -2 2 -3.5t3.5 -0.5t2.5 4l127 356q4 14 18 14h85q17 0 10 -18l-207 -545q-5 -14 -19 -14h-81q-15 0 -16 14l-43 347q0 4 -2 4q-4 1 -5 -4l-124 -347q-4 -14 -18 -14h-77z" />
    <glyph glyph-name="wdieresis.sc" horiz-adv-x="742" 
d="M342 647q-27 0 -42 17t-11 45q3 28 22.5 45t46.5 17q26 0 40.5 -17.5t10.5 -44.5q-3 -28 -22 -45t-45 -17zM520 647q-27 0 -41.5 17t-11.5 45q4 28 22.5 45t45.5 17t41.5 -17t11.5 -45q-4 -28 -22.5 -45t-45.5 -17zM173 0q-14 0 -16 14l-82 545q-2 18 16 18h88
q15 0 15 -14l39 -355q0 -3 1.5 -4t3.5 0t3 4l119 355q4 14 18 14h89q14 0 14 -14l36 -356q0 -2 2 -3.5t3.5 -0.5t2.5 4l127 356q4 14 18 14h85q17 0 10 -18l-207 -545q-5 -14 -19 -14h-81q-15 0 -16 14l-43 347q0 4 -2 4q-4 1 -5 -4l-124 -347q-4 -14 -18 -14h-77z" />
    <glyph glyph-name="wgrave.sc" horiz-adv-x="742" 
d="M472 660q3 -8 -1 -13.5t-13 -5.5h-63q-12 0 -17 10l-51 96q-4 8 -0.5 13.5t12.5 5.5h77q12 0 17 -11zM173 0q-14 0 -16 14l-82 545q-2 18 16 18h88q15 0 15 -14l39 -355q0 -3 1.5 -4t3.5 0t3 4l119 355q4 14 18 14h89q14 0 14 -14l36 -356q0 -2 2 -3.5t3.5 -0.5t2.5 4
l127 356q4 14 18 14h85q17 0 10 -18l-207 -545q-5 -14 -19 -14h-81q-15 0 -16 14l-43 347q0 4 -2 4q-4 1 -5 -4l-124 -347q-4 -14 -18 -14h-77z" />
    <glyph glyph-name="x.sc" horiz-adv-x="524" 
d="M24 0q-9 0 -11.5 5.5t3.5 13.5l197 266q4 4 1 8l-132 265q-4 8 -0.5 13.5t13.5 5.5h88q12 0 17 -11l86 -184q1 -3 3.5 -3t3.5 3l131 184q6 11 19 11h89q9 0 11.5 -5.5t-3.5 -13.5l-197 -266q-2 -4 -1 -8l132 -265q4 -8 0 -13.5t-13 -5.5h-88q-13 0 -18 11l-85 183
q-2 8 -8 0l-129 -183q-6 -11 -20 -11h-89z" />
    </font>
</defs>
</svg>
